<mxfile host="app.diagrams.net" modified="2023-09-07T10:57:00.987Z" agent="Mozilla/5.0 (Windows NT 10.0; Win64; x64) AppleWebKit/537.36 (KHTML, like Gecko) Chrome/105.0.0.0 Safari/537.36" etag="dankm1NFeEFPRqi2qn9U" version="21.3.7" type="github">
  <diagram name="第 1 页" id="tupbEmA-pP5lOhJTjc07">
    <mxGraphModel dx="1221" dy="644" grid="1" gridSize="10" guides="1" tooltips="1" connect="1" arrows="1" fold="1" page="1" pageScale="1" pageWidth="827" pageHeight="1169" math="0" shadow="0">
      <root>
        <mxCell id="0" />
        <mxCell id="1" parent="0" />
        <mxCell id="5tJ5e0qFEt_hm9HJa-Kv-791" value="" style="rounded=0;whiteSpace=wrap;html=1;strokeWidth=2;" vertex="1" parent="1">
          <mxGeometry x="3172" y="2096" width="123" height="70" as="geometry" />
        </mxCell>
        <mxCell id="5tJ5e0qFEt_hm9HJa-Kv-687" value="" style="rounded=1;whiteSpace=wrap;html=1;fillColor=#E6E6E6;" vertex="1" parent="1">
          <mxGeometry x="2157" y="1268" width="210" height="72" as="geometry" />
        </mxCell>
        <mxCell id="5tJ5e0qFEt_hm9HJa-Kv-683" value="" style="rounded=1;whiteSpace=wrap;html=1;fillColor=#E6E6E6;" vertex="1" parent="1">
          <mxGeometry x="2151" y="1262" width="210" height="72" as="geometry" />
        </mxCell>
        <mxCell id="5tJ5e0qFEt_hm9HJa-Kv-675" value="" style="rounded=1;whiteSpace=wrap;html=1;fillColor=#E6E6E6;" vertex="1" parent="1">
          <mxGeometry x="2146" y="1256" width="210" height="72" as="geometry" />
        </mxCell>
        <mxCell id="5tJ5e0qFEt_hm9HJa-Kv-679" value="" style="rounded=1;whiteSpace=wrap;html=1;fillColor=#E6E6E6;" vertex="1" parent="1">
          <mxGeometry x="2340" y="1063" width="210" height="72" as="geometry" />
        </mxCell>
        <mxCell id="5tJ5e0qFEt_hm9HJa-Kv-609" value="" style="rounded=1;whiteSpace=wrap;html=1;fillColor=#E6E6E6;" vertex="1" parent="1">
          <mxGeometry x="2140" y="1250" width="210" height="72" as="geometry" />
        </mxCell>
        <mxCell id="5tJ5e0qFEt_hm9HJa-Kv-604" value="" style="rounded=0;whiteSpace=wrap;html=1;sketch=1;curveFitting=1;jiggle=2;fillColor=#E6E6E6;" vertex="1" parent="1">
          <mxGeometry x="1800" y="1220" width="590" height="194" as="geometry" />
        </mxCell>
        <mxCell id="5tJ5e0qFEt_hm9HJa-Kv-576" value="" style="rounded=0;whiteSpace=wrap;html=1;dashed=1;" vertex="1" parent="1">
          <mxGeometry x="1114" y="1570" width="340" height="50" as="geometry" />
        </mxCell>
        <mxCell id="5tJ5e0qFEt_hm9HJa-Kv-567" value="" style="rounded=0;whiteSpace=wrap;html=1;dashed=1;" vertex="1" parent="1">
          <mxGeometry x="1300" y="1690" width="156" height="50" as="geometry" />
        </mxCell>
        <mxCell id="5tJ5e0qFEt_hm9HJa-Kv-381" value="" style="rounded=0;whiteSpace=wrap;html=1;dashed=1;" vertex="1" parent="1">
          <mxGeometry x="670" y="1212" width="300" height="170" as="geometry" />
        </mxCell>
        <mxCell id="5tJ5e0qFEt_hm9HJa-Kv-378" value="" style="rounded=0;whiteSpace=wrap;html=1;dashed=1;" vertex="1" parent="1">
          <mxGeometry x="650" y="1148" width="340" height="40" as="geometry" />
        </mxCell>
        <mxCell id="5tJ5e0qFEt_hm9HJa-Kv-376" value="" style="rounded=0;whiteSpace=wrap;html=1;dashed=1;" vertex="1" parent="1">
          <mxGeometry x="629" y="1082" width="381" height="40" as="geometry" />
        </mxCell>
        <mxCell id="5tJ5e0qFEt_hm9HJa-Kv-71" value="" style="rounded=0;whiteSpace=wrap;html=1;" vertex="1" parent="1">
          <mxGeometry x="2700" y="986" width="410" height="63" as="geometry" />
        </mxCell>
        <mxCell id="F06jq8IFjxAQC7QXPxzw-1" value="FC1" style="rounded=0;whiteSpace=wrap;html=1;" parent="1" vertex="1">
          <mxGeometry x="410" y="810" width="120" height="20" as="geometry" />
        </mxCell>
        <mxCell id="F06jq8IFjxAQC7QXPxzw-9" value="FC2" style="rounded=0;whiteSpace=wrap;html=1;" parent="1" vertex="1">
          <mxGeometry x="417" y="775" width="106" height="20" as="geometry" />
        </mxCell>
        <mxCell id="F06jq8IFjxAQC7QXPxzw-10" value="" style="rounded=0;whiteSpace=wrap;html=1;" parent="1" vertex="1">
          <mxGeometry x="233" y="939" width="10" height="10" as="geometry" />
        </mxCell>
        <mxCell id="F06jq8IFjxAQC7QXPxzw-11" value="" style="rounded=0;whiteSpace=wrap;html=1;" parent="1" vertex="1">
          <mxGeometry x="233" y="969" width="10" height="10" as="geometry" />
        </mxCell>
        <mxCell id="F06jq8IFjxAQC7QXPxzw-12" value="" style="rounded=0;whiteSpace=wrap;html=1;" parent="1" vertex="1">
          <mxGeometry x="233" y="949" width="10" height="10" as="geometry" />
        </mxCell>
        <mxCell id="F06jq8IFjxAQC7QXPxzw-13" value="" style="rounded=0;whiteSpace=wrap;html=1;" parent="1" vertex="1">
          <mxGeometry x="233" y="959" width="10" height="10" as="geometry" />
        </mxCell>
        <mxCell id="F06jq8IFjxAQC7QXPxzw-14" value="FC3" style="rounded=0;whiteSpace=wrap;html=1;" parent="1" vertex="1">
          <mxGeometry x="424" y="740" width="92" height="20" as="geometry" />
        </mxCell>
        <mxCell id="F06jq8IFjxAQC7QXPxzw-16" value="" style="rounded=0;whiteSpace=wrap;html=1;" parent="1" vertex="1">
          <mxGeometry x="248.5" y="1340" width="220" height="20" as="geometry" />
        </mxCell>
        <mxCell id="5tJ5e0qFEt_hm9HJa-Kv-383" style="edgeStyle=none;rounded=0;orthogonalLoop=1;jettySize=auto;html=1;exitX=0.5;exitY=1;exitDx=0;exitDy=0;entryX=0.5;entryY=0;entryDx=0;entryDy=0;fillColor=#f9f7ed;strokeColor=#36393d;" edge="1" parent="1" source="F06jq8IFjxAQC7QXPxzw-17" target="F06jq8IFjxAQC7QXPxzw-30">
          <mxGeometry relative="1" as="geometry" />
        </mxCell>
        <mxCell id="F06jq8IFjxAQC7QXPxzw-17" value="FC 3" style="rounded=0;whiteSpace=wrap;html=1;fillColor=#f9f7ed;strokeColor=#36393d;sketch=1;curveFitting=1;jiggle=2;" parent="1" vertex="1">
          <mxGeometry x="695" y="1228" width="240" height="19" as="geometry" />
        </mxCell>
        <mxCell id="F06jq8IFjxAQC7QXPxzw-22" value="+" style="ellipse;whiteSpace=wrap;html=1;aspect=fixed;" parent="1" vertex="1">
          <mxGeometry x="242" y="1000" width="16" height="16" as="geometry" />
        </mxCell>
        <mxCell id="F06jq8IFjxAQC7QXPxzw-23" value="" style="ellipse;whiteSpace=wrap;html=1;aspect=fixed;" parent="1" vertex="1">
          <mxGeometry x="630" y="900" width="20" height="20" as="geometry" />
        </mxCell>
        <mxCell id="F06jq8IFjxAQC7QXPxzw-24" value="" style="ellipse;whiteSpace=wrap;html=1;aspect=fixed;" parent="1" vertex="1">
          <mxGeometry x="671" y="900" width="20" height="20" as="geometry" />
        </mxCell>
        <mxCell id="F06jq8IFjxAQC7QXPxzw-25" value="" style="ellipse;whiteSpace=wrap;html=1;aspect=fixed;" parent="1" vertex="1">
          <mxGeometry x="710" y="900" width="20" height="20" as="geometry" />
        </mxCell>
        <mxCell id="F06jq8IFjxAQC7QXPxzw-26" value="" style="ellipse;whiteSpace=wrap;html=1;aspect=fixed;" parent="1" vertex="1">
          <mxGeometry x="750" y="900" width="20" height="20" as="geometry" />
        </mxCell>
        <mxCell id="F06jq8IFjxAQC7QXPxzw-27" value="" style="ellipse;whiteSpace=wrap;html=1;aspect=fixed;" parent="1" vertex="1">
          <mxGeometry x="790" y="900" width="20" height="20" as="geometry" />
        </mxCell>
        <mxCell id="5tJ5e0qFEt_hm9HJa-Kv-384" style="edgeStyle=none;rounded=0;orthogonalLoop=1;jettySize=auto;html=1;exitX=0.5;exitY=1;exitDx=0;exitDy=0;entryX=0.5;entryY=0;entryDx=0;entryDy=0;fillColor=#f9f7ed;strokeColor=#36393d;" edge="1" parent="1" source="F06jq8IFjxAQC7QXPxzw-30" target="F06jq8IFjxAQC7QXPxzw-32">
          <mxGeometry relative="1" as="geometry" />
        </mxCell>
        <mxCell id="F06jq8IFjxAQC7QXPxzw-30" value="FC 2" style="rounded=0;whiteSpace=wrap;html=1;fillColor=#f9f7ed;strokeColor=#36393d;sketch=1;curveFitting=1;jiggle=2;" parent="1" vertex="1">
          <mxGeometry x="725" y="1268" width="180.5" height="20" as="geometry" />
        </mxCell>
        <mxCell id="F06jq8IFjxAQC7QXPxzw-31" value="FC2" style="rounded=0;whiteSpace=wrap;html=1;" parent="1" vertex="1">
          <mxGeometry x="667" y="775" width="106" height="20" as="geometry" />
        </mxCell>
        <mxCell id="5tJ5e0qFEt_hm9HJa-Kv-385" style="edgeStyle=none;rounded=0;orthogonalLoop=1;jettySize=auto;html=1;exitX=0.5;exitY=1;exitDx=0;exitDy=0;fillColor=#f9f7ed;strokeColor=#36393d;" edge="1" parent="1" source="F06jq8IFjxAQC7QXPxzw-32" target="5tJ5e0qFEt_hm9HJa-Kv-379">
          <mxGeometry relative="1" as="geometry" />
        </mxCell>
        <mxCell id="F06jq8IFjxAQC7QXPxzw-32" value="Softmax" style="rounded=0;whiteSpace=wrap;html=1;fillColor=#f9f7ed;strokeColor=#36393d;sketch=1;curveFitting=1;jiggle=2;" parent="1" vertex="1">
          <mxGeometry x="750" y="1308" width="130" height="20" as="geometry" />
        </mxCell>
        <mxCell id="5tJ5e0qFEt_hm9HJa-Kv-72" style="rounded=0;orthogonalLoop=1;jettySize=auto;html=1;exitX=0.5;exitY=1;exitDx=0;exitDy=0;entryX=0.5;entryY=0;entryDx=0;entryDy=0;" edge="1" parent="1" source="F06jq8IFjxAQC7QXPxzw-37" target="5tJ5e0qFEt_hm9HJa-Kv-12">
          <mxGeometry relative="1" as="geometry" />
        </mxCell>
        <mxCell id="F06jq8IFjxAQC7QXPxzw-37" value="" style="group;movable=1;resizable=1;rotatable=1;deletable=1;editable=1;locked=0;connectable=1;flipH=1;" parent="1" vertex="1" connectable="0">
          <mxGeometry x="230" y="1039" width="40" height="10" as="geometry" />
        </mxCell>
        <mxCell id="F06jq8IFjxAQC7QXPxzw-18" value="" style="rounded=0;whiteSpace=wrap;html=1;movable=1;resizable=1;rotatable=1;deletable=1;editable=1;locked=0;connectable=1;" parent="F06jq8IFjxAQC7QXPxzw-37" vertex="1">
          <mxGeometry x="30" width="10" height="10" as="geometry" />
        </mxCell>
        <mxCell id="F06jq8IFjxAQC7QXPxzw-19" value="" style="rounded=0;whiteSpace=wrap;html=1;movable=1;resizable=1;rotatable=1;deletable=1;editable=1;locked=0;connectable=1;" parent="F06jq8IFjxAQC7QXPxzw-37" vertex="1">
          <mxGeometry x="20" width="10" height="10" as="geometry" />
        </mxCell>
        <mxCell id="F06jq8IFjxAQC7QXPxzw-20" value="" style="rounded=0;whiteSpace=wrap;html=1;movable=1;resizable=1;rotatable=1;deletable=1;editable=1;locked=0;connectable=1;" parent="F06jq8IFjxAQC7QXPxzw-37" vertex="1">
          <mxGeometry width="10" height="10" as="geometry" />
        </mxCell>
        <mxCell id="F06jq8IFjxAQC7QXPxzw-21" value="" style="rounded=0;whiteSpace=wrap;html=1;movable=1;resizable=1;rotatable=1;deletable=1;editable=1;locked=0;connectable=1;" parent="F06jq8IFjxAQC7QXPxzw-37" vertex="1">
          <mxGeometry x="10" width="10" height="10" as="geometry" />
        </mxCell>
        <mxCell id="F06jq8IFjxAQC7QXPxzw-50" style="edgeStyle=orthogonalEdgeStyle;rounded=0;orthogonalLoop=1;jettySize=auto;html=1;exitX=0.5;exitY=1;exitDx=0;exitDy=0;entryX=0.5;entryY=0;entryDx=0;entryDy=0;elbow=vertical;curved=1;" parent="1" source="F06jq8IFjxAQC7QXPxzw-38" target="F06jq8IFjxAQC7QXPxzw-44" edge="1">
          <mxGeometry relative="1" as="geometry" />
        </mxCell>
        <mxCell id="F06jq8IFjxAQC7QXPxzw-38" value="&lt;font color=&quot;#ffffff&quot;&gt;placeholder&lt;/font&gt;" style="rounded=1;whiteSpace=wrap;html=1;fillColor=#333333;" parent="1" vertex="1">
          <mxGeometry x="200" y="360" width="80" height="25" as="geometry" />
        </mxCell>
        <mxCell id="F06jq8IFjxAQC7QXPxzw-51" style="edgeStyle=orthogonalEdgeStyle;rounded=0;orthogonalLoop=1;jettySize=auto;html=1;exitX=0.5;exitY=1;exitDx=0;exitDy=0;entryX=0.5;entryY=0;entryDx=0;entryDy=0;elbow=vertical;curved=1;" parent="1" source="F06jq8IFjxAQC7QXPxzw-39" target="F06jq8IFjxAQC7QXPxzw-44" edge="1">
          <mxGeometry relative="1" as="geometry" />
        </mxCell>
        <mxCell id="F06jq8IFjxAQC7QXPxzw-39" value="&lt;font color=&quot;#ffffff&quot;&gt;placeholder&lt;/font&gt;" style="rounded=1;whiteSpace=wrap;html=1;fillColor=#333333;" parent="1" vertex="1">
          <mxGeometry x="300" y="360" width="80" height="25" as="geometry" />
        </mxCell>
        <mxCell id="F06jq8IFjxAQC7QXPxzw-52" style="edgeStyle=orthogonalEdgeStyle;rounded=0;orthogonalLoop=1;jettySize=auto;html=1;exitX=0.5;exitY=1;exitDx=0;exitDy=0;entryX=0.5;entryY=0;entryDx=0;entryDy=0;curved=1;" parent="1" source="F06jq8IFjxAQC7QXPxzw-41" target="F06jq8IFjxAQC7QXPxzw-44" edge="1">
          <mxGeometry relative="1" as="geometry" />
        </mxCell>
        <mxCell id="F06jq8IFjxAQC7QXPxzw-41" value="&lt;font color=&quot;#ffffff&quot;&gt;placeholder&lt;/font&gt;" style="rounded=1;whiteSpace=wrap;html=1;fillColor=#333333;" parent="1" vertex="1">
          <mxGeometry x="460" y="360" width="80" height="25" as="geometry" />
        </mxCell>
        <mxCell id="F06jq8IFjxAQC7QXPxzw-53" style="edgeStyle=orthogonalEdgeStyle;rounded=0;orthogonalLoop=1;jettySize=auto;html=1;exitX=0.5;exitY=1;exitDx=0;exitDy=0;entryX=0.5;entryY=0;entryDx=0;entryDy=0;curved=1;" parent="1" source="F06jq8IFjxAQC7QXPxzw-42" target="F06jq8IFjxAQC7QXPxzw-44" edge="1">
          <mxGeometry relative="1" as="geometry" />
        </mxCell>
        <mxCell id="F06jq8IFjxAQC7QXPxzw-42" value="&lt;font color=&quot;#ffffff&quot;&gt;placeholder&lt;/font&gt;" style="rounded=1;whiteSpace=wrap;html=1;fillColor=#333333;" parent="1" vertex="1">
          <mxGeometry x="557" y="360" width="80" height="25" as="geometry" />
        </mxCell>
        <mxCell id="F06jq8IFjxAQC7QXPxzw-43" value="&lt;b&gt;......&lt;/b&gt;" style="text;html=1;strokeColor=none;fillColor=none;align=center;verticalAlign=middle;whiteSpace=wrap;rounded=0;" parent="1" vertex="1">
          <mxGeometry x="390" y="365" width="60" height="15" as="geometry" />
        </mxCell>
        <mxCell id="F06jq8IFjxAQC7QXPxzw-44" value="&lt;font color=&quot;#333333&quot;&gt;Concat&lt;/font&gt;" style="rounded=1;whiteSpace=wrap;html=1;fillColor=#FFFFFF;" parent="1" vertex="1">
          <mxGeometry x="287.5" y="430" width="265" height="25" as="geometry" />
        </mxCell>
        <mxCell id="F06jq8IFjxAQC7QXPxzw-49" value="&lt;font color=&quot;#333333&quot;&gt;MLP&lt;/font&gt;" style="rounded=1;whiteSpace=wrap;html=1;fillColor=#FFFFFF;" parent="1" vertex="1">
          <mxGeometry x="310" y="530" width="230" height="70" as="geometry" />
        </mxCell>
        <mxCell id="F06jq8IFjxAQC7QXPxzw-54" value="" style="rounded=0;whiteSpace=wrap;html=1;" parent="1" vertex="1">
          <mxGeometry x="258.5" y="1097" width="40" height="10" as="geometry" />
        </mxCell>
        <mxCell id="5tJ5e0qFEt_hm9HJa-Kv-73" style="rounded=0;orthogonalLoop=1;jettySize=auto;html=1;exitX=0.5;exitY=1;exitDx=0;exitDy=0;entryX=0.5;entryY=0;entryDx=0;entryDy=0;" edge="1" parent="1" source="F06jq8IFjxAQC7QXPxzw-56" target="5tJ5e0qFEt_hm9HJa-Kv-11">
          <mxGeometry relative="1" as="geometry" />
        </mxCell>
        <mxCell id="F06jq8IFjxAQC7QXPxzw-56" value="" style="group;movable=1;resizable=1;rotatable=1;deletable=1;editable=1;locked=0;connectable=1;flipH=1;" parent="1" vertex="1" connectable="0">
          <mxGeometry x="281" y="1039" width="40" height="10" as="geometry" />
        </mxCell>
        <mxCell id="F06jq8IFjxAQC7QXPxzw-57" value="" style="rounded=0;whiteSpace=wrap;html=1;movable=1;resizable=1;rotatable=1;deletable=1;editable=1;locked=0;connectable=1;" parent="F06jq8IFjxAQC7QXPxzw-56" vertex="1">
          <mxGeometry x="30" width="10" height="10" as="geometry" />
        </mxCell>
        <mxCell id="F06jq8IFjxAQC7QXPxzw-58" value="" style="rounded=0;whiteSpace=wrap;html=1;movable=1;resizable=1;rotatable=1;deletable=1;editable=1;locked=0;connectable=1;" parent="F06jq8IFjxAQC7QXPxzw-56" vertex="1">
          <mxGeometry x="20" width="10" height="10" as="geometry" />
        </mxCell>
        <mxCell id="F06jq8IFjxAQC7QXPxzw-59" value="" style="rounded=0;whiteSpace=wrap;html=1;movable=1;resizable=1;rotatable=1;deletable=1;editable=1;locked=0;connectable=1;" parent="F06jq8IFjxAQC7QXPxzw-56" vertex="1">
          <mxGeometry width="10" height="10" as="geometry" />
        </mxCell>
        <mxCell id="F06jq8IFjxAQC7QXPxzw-60" value="" style="rounded=0;whiteSpace=wrap;html=1;movable=1;resizable=1;rotatable=1;deletable=1;editable=1;locked=0;connectable=1;" parent="F06jq8IFjxAQC7QXPxzw-56" vertex="1">
          <mxGeometry x="10" width="10" height="10" as="geometry" />
        </mxCell>
        <mxCell id="5tJ5e0qFEt_hm9HJa-Kv-74" style="rounded=0;orthogonalLoop=1;jettySize=auto;html=1;exitX=0.5;exitY=1;exitDx=0;exitDy=0;entryX=0.5;entryY=0;entryDx=0;entryDy=0;" edge="1" parent="1" source="F06jq8IFjxAQC7QXPxzw-61" target="5tJ5e0qFEt_hm9HJa-Kv-14">
          <mxGeometry relative="1" as="geometry" />
        </mxCell>
        <mxCell id="F06jq8IFjxAQC7QXPxzw-61" value="" style="group;movable=1;resizable=1;rotatable=1;deletable=1;editable=1;locked=0;connectable=1;flipH=1;" parent="1" vertex="1" connectable="0">
          <mxGeometry x="331" y="1039" width="40" height="10" as="geometry" />
        </mxCell>
        <mxCell id="F06jq8IFjxAQC7QXPxzw-62" value="" style="rounded=0;whiteSpace=wrap;html=1;movable=1;resizable=1;rotatable=1;deletable=1;editable=1;locked=0;connectable=1;" parent="F06jq8IFjxAQC7QXPxzw-61" vertex="1">
          <mxGeometry x="30" width="10" height="10" as="geometry" />
        </mxCell>
        <mxCell id="F06jq8IFjxAQC7QXPxzw-63" value="" style="rounded=0;whiteSpace=wrap;html=1;movable=1;resizable=1;rotatable=1;deletable=1;editable=1;locked=0;connectable=1;" parent="F06jq8IFjxAQC7QXPxzw-61" vertex="1">
          <mxGeometry x="20" width="10" height="10" as="geometry" />
        </mxCell>
        <mxCell id="F06jq8IFjxAQC7QXPxzw-64" value="" style="rounded=0;whiteSpace=wrap;html=1;movable=1;resizable=1;rotatable=1;deletable=1;editable=1;locked=0;connectable=1;" parent="F06jq8IFjxAQC7QXPxzw-61" vertex="1">
          <mxGeometry width="10" height="10" as="geometry" />
        </mxCell>
        <mxCell id="F06jq8IFjxAQC7QXPxzw-65" value="" style="rounded=0;whiteSpace=wrap;html=1;movable=1;resizable=1;rotatable=1;deletable=1;editable=1;locked=0;connectable=1;" parent="F06jq8IFjxAQC7QXPxzw-61" vertex="1">
          <mxGeometry x="10" width="10" height="10" as="geometry" />
        </mxCell>
        <mxCell id="5tJ5e0qFEt_hm9HJa-Kv-75" style="rounded=0;orthogonalLoop=1;jettySize=auto;html=1;exitX=0.5;exitY=1;exitDx=0;exitDy=0;entryX=0.5;entryY=0;entryDx=0;entryDy=0;" edge="1" parent="1" source="F06jq8IFjxAQC7QXPxzw-66" target="5tJ5e0qFEt_hm9HJa-Kv-15">
          <mxGeometry relative="1" as="geometry" />
        </mxCell>
        <mxCell id="F06jq8IFjxAQC7QXPxzw-66" value="" style="group;movable=1;resizable=1;rotatable=1;deletable=1;editable=1;locked=0;connectable=1;flipH=1;" parent="1" vertex="1" connectable="0">
          <mxGeometry x="381" y="1039" width="40" height="10" as="geometry" />
        </mxCell>
        <mxCell id="F06jq8IFjxAQC7QXPxzw-67" value="" style="rounded=0;whiteSpace=wrap;html=1;movable=1;resizable=1;rotatable=1;deletable=1;editable=1;locked=0;connectable=1;" parent="F06jq8IFjxAQC7QXPxzw-66" vertex="1">
          <mxGeometry x="30" width="10" height="10" as="geometry" />
        </mxCell>
        <mxCell id="F06jq8IFjxAQC7QXPxzw-68" value="" style="rounded=0;whiteSpace=wrap;html=1;movable=1;resizable=1;rotatable=1;deletable=1;editable=1;locked=0;connectable=1;" parent="F06jq8IFjxAQC7QXPxzw-66" vertex="1">
          <mxGeometry x="20" width="10" height="10" as="geometry" />
        </mxCell>
        <mxCell id="F06jq8IFjxAQC7QXPxzw-69" value="" style="rounded=0;whiteSpace=wrap;html=1;movable=1;resizable=1;rotatable=1;deletable=1;editable=1;locked=0;connectable=1;" parent="F06jq8IFjxAQC7QXPxzw-66" vertex="1">
          <mxGeometry width="10" height="10" as="geometry" />
        </mxCell>
        <mxCell id="F06jq8IFjxAQC7QXPxzw-70" value="" style="rounded=0;whiteSpace=wrap;html=1;movable=1;resizable=1;rotatable=1;deletable=1;editable=1;locked=0;connectable=1;" parent="F06jq8IFjxAQC7QXPxzw-66" vertex="1">
          <mxGeometry x="10" width="10" height="10" as="geometry" />
        </mxCell>
        <mxCell id="5tJ5e0qFEt_hm9HJa-Kv-76" style="rounded=0;orthogonalLoop=1;jettySize=auto;html=1;exitX=0.5;exitY=1;exitDx=0;exitDy=0;entryX=0.5;entryY=0;entryDx=0;entryDy=0;" edge="1" parent="1" source="F06jq8IFjxAQC7QXPxzw-77" target="5tJ5e0qFEt_hm9HJa-Kv-10">
          <mxGeometry relative="1" as="geometry" />
        </mxCell>
        <mxCell id="F06jq8IFjxAQC7QXPxzw-77" value="" style="group;movable=1;resizable=1;rotatable=1;deletable=1;editable=1;locked=0;connectable=1;flipH=1;" parent="1" vertex="1" connectable="0">
          <mxGeometry x="431" y="1039" width="40" height="10" as="geometry" />
        </mxCell>
        <mxCell id="F06jq8IFjxAQC7QXPxzw-78" value="" style="rounded=0;whiteSpace=wrap;html=1;movable=1;resizable=1;rotatable=1;deletable=1;editable=1;locked=0;connectable=1;" parent="F06jq8IFjxAQC7QXPxzw-77" vertex="1">
          <mxGeometry x="30" width="10" height="10" as="geometry" />
        </mxCell>
        <mxCell id="F06jq8IFjxAQC7QXPxzw-79" value="" style="rounded=0;whiteSpace=wrap;html=1;movable=1;resizable=1;rotatable=1;deletable=1;editable=1;locked=0;connectable=1;" parent="F06jq8IFjxAQC7QXPxzw-77" vertex="1">
          <mxGeometry x="20" width="10" height="10" as="geometry" />
        </mxCell>
        <mxCell id="F06jq8IFjxAQC7QXPxzw-80" value="" style="rounded=0;whiteSpace=wrap;html=1;movable=1;resizable=1;rotatable=1;deletable=1;editable=1;locked=0;connectable=1;" parent="F06jq8IFjxAQC7QXPxzw-77" vertex="1">
          <mxGeometry width="10" height="10" as="geometry" />
        </mxCell>
        <mxCell id="F06jq8IFjxAQC7QXPxzw-81" value="" style="rounded=0;whiteSpace=wrap;html=1;movable=1;resizable=1;rotatable=1;deletable=1;editable=1;locked=0;connectable=1;" parent="F06jq8IFjxAQC7QXPxzw-77" vertex="1">
          <mxGeometry x="10" width="10" height="10" as="geometry" />
        </mxCell>
        <mxCell id="F06jq8IFjxAQC7QXPxzw-82" value="" style="group;movable=1;resizable=1;rotatable=1;deletable=1;editable=1;locked=0;connectable=1;flipH=1;" parent="1" vertex="1" connectable="0">
          <mxGeometry x="480" y="1039" width="40" height="10" as="geometry" />
        </mxCell>
        <mxCell id="F06jq8IFjxAQC7QXPxzw-83" value="" style="rounded=0;whiteSpace=wrap;html=1;movable=1;resizable=1;rotatable=1;deletable=1;editable=1;locked=0;connectable=1;" parent="F06jq8IFjxAQC7QXPxzw-82" vertex="1">
          <mxGeometry x="30" width="10" height="10" as="geometry" />
        </mxCell>
        <mxCell id="F06jq8IFjxAQC7QXPxzw-84" value="" style="rounded=0;whiteSpace=wrap;html=1;movable=1;resizable=1;rotatable=1;deletable=1;editable=1;locked=0;connectable=1;" parent="F06jq8IFjxAQC7QXPxzw-82" vertex="1">
          <mxGeometry x="20" width="10" height="10" as="geometry" />
        </mxCell>
        <mxCell id="F06jq8IFjxAQC7QXPxzw-85" value="" style="rounded=0;whiteSpace=wrap;html=1;movable=1;resizable=1;rotatable=1;deletable=1;editable=1;locked=0;connectable=1;" parent="F06jq8IFjxAQC7QXPxzw-82" vertex="1">
          <mxGeometry width="10" height="10" as="geometry" />
        </mxCell>
        <mxCell id="F06jq8IFjxAQC7QXPxzw-86" value="" style="rounded=0;whiteSpace=wrap;html=1;movable=1;resizable=1;rotatable=1;deletable=1;editable=1;locked=0;connectable=1;" parent="F06jq8IFjxAQC7QXPxzw-82" vertex="1">
          <mxGeometry x="10" width="10" height="10" as="geometry" />
        </mxCell>
        <mxCell id="5tJ5e0qFEt_hm9HJa-Kv-78" style="rounded=0;orthogonalLoop=1;jettySize=auto;html=1;exitX=0.5;exitY=1;exitDx=0;exitDy=0;entryX=0.5;entryY=0;entryDx=0;entryDy=0;" edge="1" parent="1" source="F06jq8IFjxAQC7QXPxzw-87" target="5tJ5e0qFEt_hm9HJa-Kv-13">
          <mxGeometry relative="1" as="geometry" />
        </mxCell>
        <mxCell id="F06jq8IFjxAQC7QXPxzw-87" value="" style="group;movable=1;resizable=1;rotatable=1;deletable=1;editable=1;locked=0;connectable=1;flipH=1;" parent="1" vertex="1" connectable="0">
          <mxGeometry x="531" y="1039" width="40" height="10" as="geometry" />
        </mxCell>
        <mxCell id="F06jq8IFjxAQC7QXPxzw-88" value="" style="rounded=0;whiteSpace=wrap;html=1;movable=1;resizable=1;rotatable=1;deletable=1;editable=1;locked=0;connectable=1;" parent="F06jq8IFjxAQC7QXPxzw-87" vertex="1">
          <mxGeometry x="30" width="10" height="10" as="geometry" />
        </mxCell>
        <mxCell id="F06jq8IFjxAQC7QXPxzw-89" value="" style="rounded=0;whiteSpace=wrap;html=1;movable=1;resizable=1;rotatable=1;deletable=1;editable=1;locked=0;connectable=1;" parent="F06jq8IFjxAQC7QXPxzw-87" vertex="1">
          <mxGeometry x="20" width="10" height="10" as="geometry" />
        </mxCell>
        <mxCell id="F06jq8IFjxAQC7QXPxzw-90" value="" style="rounded=0;whiteSpace=wrap;html=1;movable=1;resizable=1;rotatable=1;deletable=1;editable=1;locked=0;connectable=1;" parent="F06jq8IFjxAQC7QXPxzw-87" vertex="1">
          <mxGeometry width="10" height="10" as="geometry" />
        </mxCell>
        <mxCell id="F06jq8IFjxAQC7QXPxzw-91" value="" style="rounded=0;whiteSpace=wrap;html=1;movable=1;resizable=1;rotatable=1;deletable=1;editable=1;locked=0;connectable=1;" parent="F06jq8IFjxAQC7QXPxzw-87" vertex="1">
          <mxGeometry x="10" width="10" height="10" as="geometry" />
        </mxCell>
        <mxCell id="5tJ5e0qFEt_hm9HJa-Kv-3" value="+" style="ellipse;whiteSpace=wrap;html=1;aspect=fixed;" vertex="1" parent="1">
          <mxGeometry x="293" y="1000" width="16" height="16" as="geometry" />
        </mxCell>
        <mxCell id="5tJ5e0qFEt_hm9HJa-Kv-4" value="+" style="ellipse;whiteSpace=wrap;html=1;aspect=fixed;" vertex="1" parent="1">
          <mxGeometry x="343" y="1000" width="16" height="16" as="geometry" />
        </mxCell>
        <mxCell id="5tJ5e0qFEt_hm9HJa-Kv-5" value="+" style="ellipse;whiteSpace=wrap;html=1;aspect=fixed;" vertex="1" parent="1">
          <mxGeometry x="393" y="1000" width="16" height="16" as="geometry" />
        </mxCell>
        <mxCell id="5tJ5e0qFEt_hm9HJa-Kv-6" value="+" style="ellipse;whiteSpace=wrap;html=1;aspect=fixed;" vertex="1" parent="1">
          <mxGeometry x="443" y="1000" width="16" height="16" as="geometry" />
        </mxCell>
        <mxCell id="5tJ5e0qFEt_hm9HJa-Kv-7" value="+" style="ellipse;whiteSpace=wrap;html=1;aspect=fixed;" vertex="1" parent="1">
          <mxGeometry x="494" y="1000" width="16" height="16" as="geometry" />
        </mxCell>
        <mxCell id="5tJ5e0qFEt_hm9HJa-Kv-8" value="+" style="ellipse;whiteSpace=wrap;html=1;aspect=fixed;" vertex="1" parent="1">
          <mxGeometry x="543" y="1000" width="16" height="16" as="geometry" />
        </mxCell>
        <mxCell id="5tJ5e0qFEt_hm9HJa-Kv-10" value="" style="rounded=0;whiteSpace=wrap;html=1;" vertex="1" parent="1">
          <mxGeometry x="298.5" y="1097" width="40" height="10" as="geometry" />
        </mxCell>
        <mxCell id="5tJ5e0qFEt_hm9HJa-Kv-11" value="" style="rounded=0;whiteSpace=wrap;html=1;" vertex="1" parent="1">
          <mxGeometry x="338.5" y="1097" width="40" height="10" as="geometry" />
        </mxCell>
        <mxCell id="5tJ5e0qFEt_hm9HJa-Kv-12" value="" style="rounded=0;whiteSpace=wrap;html=1;" vertex="1" parent="1">
          <mxGeometry x="378.5" y="1097" width="40" height="10" as="geometry" />
        </mxCell>
        <mxCell id="5tJ5e0qFEt_hm9HJa-Kv-13" value="" style="rounded=0;whiteSpace=wrap;html=1;" vertex="1" parent="1">
          <mxGeometry x="418.5" y="1097" width="40" height="10" as="geometry" />
        </mxCell>
        <mxCell id="5tJ5e0qFEt_hm9HJa-Kv-14" value="" style="rounded=0;whiteSpace=wrap;html=1;" vertex="1" parent="1">
          <mxGeometry x="458.5" y="1097" width="40" height="10" as="geometry" />
        </mxCell>
        <mxCell id="5tJ5e0qFEt_hm9HJa-Kv-15" value="" style="rounded=0;whiteSpace=wrap;html=1;" vertex="1" parent="1">
          <mxGeometry x="498.5" y="1097" width="40" height="10" as="geometry" />
        </mxCell>
        <mxCell id="5tJ5e0qFEt_hm9HJa-Kv-16" value="" style="rounded=0;whiteSpace=wrap;html=1;" vertex="1" parent="1">
          <mxGeometry x="257" y="939" width="10" height="10" as="geometry" />
        </mxCell>
        <mxCell id="5tJ5e0qFEt_hm9HJa-Kv-17" value="" style="rounded=0;whiteSpace=wrap;html=1;" vertex="1" parent="1">
          <mxGeometry x="257" y="969" width="10" height="10" as="geometry" />
        </mxCell>
        <mxCell id="5tJ5e0qFEt_hm9HJa-Kv-18" value="" style="rounded=0;whiteSpace=wrap;html=1;" vertex="1" parent="1">
          <mxGeometry x="257" y="949" width="10" height="10" as="geometry" />
        </mxCell>
        <mxCell id="5tJ5e0qFEt_hm9HJa-Kv-19" value="" style="rounded=0;whiteSpace=wrap;html=1;" vertex="1" parent="1">
          <mxGeometry x="257" y="959" width="10" height="10" as="geometry" />
        </mxCell>
        <mxCell id="5tJ5e0qFEt_hm9HJa-Kv-20" value="" style="rounded=0;whiteSpace=wrap;html=1;" vertex="1" parent="1">
          <mxGeometry x="285" y="938" width="10" height="10" as="geometry" />
        </mxCell>
        <mxCell id="5tJ5e0qFEt_hm9HJa-Kv-21" value="" style="rounded=0;whiteSpace=wrap;html=1;" vertex="1" parent="1">
          <mxGeometry x="285" y="968" width="10" height="10" as="geometry" />
        </mxCell>
        <mxCell id="5tJ5e0qFEt_hm9HJa-Kv-22" value="" style="rounded=0;whiteSpace=wrap;html=1;" vertex="1" parent="1">
          <mxGeometry x="285" y="948" width="10" height="10" as="geometry" />
        </mxCell>
        <mxCell id="5tJ5e0qFEt_hm9HJa-Kv-23" value="" style="rounded=0;whiteSpace=wrap;html=1;" vertex="1" parent="1">
          <mxGeometry x="285" y="958" width="10" height="10" as="geometry" />
        </mxCell>
        <mxCell id="5tJ5e0qFEt_hm9HJa-Kv-24" value="" style="rounded=0;whiteSpace=wrap;html=1;" vertex="1" parent="1">
          <mxGeometry x="309" y="938" width="10" height="10" as="geometry" />
        </mxCell>
        <mxCell id="5tJ5e0qFEt_hm9HJa-Kv-25" value="" style="rounded=0;whiteSpace=wrap;html=1;" vertex="1" parent="1">
          <mxGeometry x="309" y="968" width="10" height="10" as="geometry" />
        </mxCell>
        <mxCell id="5tJ5e0qFEt_hm9HJa-Kv-26" value="" style="rounded=0;whiteSpace=wrap;html=1;" vertex="1" parent="1">
          <mxGeometry x="309" y="948" width="10" height="10" as="geometry" />
        </mxCell>
        <mxCell id="5tJ5e0qFEt_hm9HJa-Kv-27" value="" style="rounded=0;whiteSpace=wrap;html=1;" vertex="1" parent="1">
          <mxGeometry x="309" y="958" width="10" height="10" as="geometry" />
        </mxCell>
        <mxCell id="5tJ5e0qFEt_hm9HJa-Kv-28" value="" style="rounded=0;whiteSpace=wrap;html=1;" vertex="1" parent="1">
          <mxGeometry x="336" y="939" width="10" height="10" as="geometry" />
        </mxCell>
        <mxCell id="5tJ5e0qFEt_hm9HJa-Kv-29" value="" style="rounded=0;whiteSpace=wrap;html=1;" vertex="1" parent="1">
          <mxGeometry x="336" y="969" width="10" height="10" as="geometry" />
        </mxCell>
        <mxCell id="5tJ5e0qFEt_hm9HJa-Kv-30" value="" style="rounded=0;whiteSpace=wrap;html=1;" vertex="1" parent="1">
          <mxGeometry x="336" y="949" width="10" height="10" as="geometry" />
        </mxCell>
        <mxCell id="5tJ5e0qFEt_hm9HJa-Kv-31" value="" style="rounded=0;whiteSpace=wrap;html=1;" vertex="1" parent="1">
          <mxGeometry x="336" y="959" width="10" height="10" as="geometry" />
        </mxCell>
        <mxCell id="5tJ5e0qFEt_hm9HJa-Kv-32" value="" style="rounded=0;whiteSpace=wrap;html=1;" vertex="1" parent="1">
          <mxGeometry x="360" y="939" width="10" height="10" as="geometry" />
        </mxCell>
        <mxCell id="5tJ5e0qFEt_hm9HJa-Kv-33" value="" style="rounded=0;whiteSpace=wrap;html=1;" vertex="1" parent="1">
          <mxGeometry x="360" y="969" width="10" height="10" as="geometry" />
        </mxCell>
        <mxCell id="5tJ5e0qFEt_hm9HJa-Kv-34" value="" style="rounded=0;whiteSpace=wrap;html=1;" vertex="1" parent="1">
          <mxGeometry x="360" y="949" width="10" height="10" as="geometry" />
        </mxCell>
        <mxCell id="5tJ5e0qFEt_hm9HJa-Kv-35" value="" style="rounded=0;whiteSpace=wrap;html=1;" vertex="1" parent="1">
          <mxGeometry x="360" y="959" width="10" height="10" as="geometry" />
        </mxCell>
        <mxCell id="5tJ5e0qFEt_hm9HJa-Kv-36" value="" style="rounded=0;whiteSpace=wrap;html=1;" vertex="1" parent="1">
          <mxGeometry x="386" y="939" width="10" height="10" as="geometry" />
        </mxCell>
        <mxCell id="5tJ5e0qFEt_hm9HJa-Kv-37" value="" style="rounded=0;whiteSpace=wrap;html=1;" vertex="1" parent="1">
          <mxGeometry x="386" y="969" width="10" height="10" as="geometry" />
        </mxCell>
        <mxCell id="5tJ5e0qFEt_hm9HJa-Kv-38" value="" style="rounded=0;whiteSpace=wrap;html=1;" vertex="1" parent="1">
          <mxGeometry x="386" y="949" width="10" height="10" as="geometry" />
        </mxCell>
        <mxCell id="5tJ5e0qFEt_hm9HJa-Kv-39" value="" style="rounded=0;whiteSpace=wrap;html=1;" vertex="1" parent="1">
          <mxGeometry x="386" y="959" width="10" height="10" as="geometry" />
        </mxCell>
        <mxCell id="5tJ5e0qFEt_hm9HJa-Kv-40" value="" style="rounded=0;whiteSpace=wrap;html=1;" vertex="1" parent="1">
          <mxGeometry x="410" y="939" width="10" height="10" as="geometry" />
        </mxCell>
        <mxCell id="5tJ5e0qFEt_hm9HJa-Kv-41" value="" style="rounded=0;whiteSpace=wrap;html=1;" vertex="1" parent="1">
          <mxGeometry x="410" y="969" width="10" height="10" as="geometry" />
        </mxCell>
        <mxCell id="5tJ5e0qFEt_hm9HJa-Kv-42" value="" style="rounded=0;whiteSpace=wrap;html=1;" vertex="1" parent="1">
          <mxGeometry x="410" y="949" width="10" height="10" as="geometry" />
        </mxCell>
        <mxCell id="5tJ5e0qFEt_hm9HJa-Kv-43" value="" style="rounded=0;whiteSpace=wrap;html=1;" vertex="1" parent="1">
          <mxGeometry x="410" y="959" width="10" height="10" as="geometry" />
        </mxCell>
        <mxCell id="5tJ5e0qFEt_hm9HJa-Kv-44" value="" style="rounded=0;whiteSpace=wrap;html=1;" vertex="1" parent="1">
          <mxGeometry x="446" y="939" width="10" height="10" as="geometry" />
        </mxCell>
        <mxCell id="5tJ5e0qFEt_hm9HJa-Kv-45" value="" style="rounded=0;whiteSpace=wrap;html=1;" vertex="1" parent="1">
          <mxGeometry x="446" y="969" width="10" height="10" as="geometry" />
        </mxCell>
        <mxCell id="5tJ5e0qFEt_hm9HJa-Kv-46" value="" style="rounded=0;whiteSpace=wrap;html=1;" vertex="1" parent="1">
          <mxGeometry x="446" y="949" width="10" height="10" as="geometry" />
        </mxCell>
        <mxCell id="5tJ5e0qFEt_hm9HJa-Kv-47" value="" style="rounded=0;whiteSpace=wrap;html=1;" vertex="1" parent="1">
          <mxGeometry x="446" y="959" width="10" height="10" as="geometry" />
        </mxCell>
        <mxCell id="5tJ5e0qFEt_hm9HJa-Kv-48" value="" style="rounded=0;whiteSpace=wrap;html=1;" vertex="1" parent="1">
          <mxGeometry x="484" y="939" width="10" height="10" as="geometry" />
        </mxCell>
        <mxCell id="5tJ5e0qFEt_hm9HJa-Kv-49" value="" style="rounded=0;whiteSpace=wrap;html=1;" vertex="1" parent="1">
          <mxGeometry x="484" y="969" width="10" height="10" as="geometry" />
        </mxCell>
        <mxCell id="5tJ5e0qFEt_hm9HJa-Kv-50" value="" style="rounded=0;whiteSpace=wrap;html=1;" vertex="1" parent="1">
          <mxGeometry x="484" y="949" width="10" height="10" as="geometry" />
        </mxCell>
        <mxCell id="5tJ5e0qFEt_hm9HJa-Kv-51" value="" style="rounded=0;whiteSpace=wrap;html=1;" vertex="1" parent="1">
          <mxGeometry x="484" y="959" width="10" height="10" as="geometry" />
        </mxCell>
        <mxCell id="5tJ5e0qFEt_hm9HJa-Kv-52" value="" style="rounded=0;whiteSpace=wrap;html=1;" vertex="1" parent="1">
          <mxGeometry x="508" y="939" width="10" height="10" as="geometry" />
        </mxCell>
        <mxCell id="5tJ5e0qFEt_hm9HJa-Kv-53" value="" style="rounded=0;whiteSpace=wrap;html=1;" vertex="1" parent="1">
          <mxGeometry x="508" y="969" width="10" height="10" as="geometry" />
        </mxCell>
        <mxCell id="5tJ5e0qFEt_hm9HJa-Kv-54" value="" style="rounded=0;whiteSpace=wrap;html=1;" vertex="1" parent="1">
          <mxGeometry x="508" y="949" width="10" height="10" as="geometry" />
        </mxCell>
        <mxCell id="5tJ5e0qFEt_hm9HJa-Kv-55" value="" style="rounded=0;whiteSpace=wrap;html=1;" vertex="1" parent="1">
          <mxGeometry x="508" y="959" width="10" height="10" as="geometry" />
        </mxCell>
        <mxCell id="5tJ5e0qFEt_hm9HJa-Kv-56" value="" style="rounded=0;whiteSpace=wrap;html=1;" vertex="1" parent="1">
          <mxGeometry x="536" y="939" width="10" height="10" as="geometry" />
        </mxCell>
        <mxCell id="5tJ5e0qFEt_hm9HJa-Kv-57" value="" style="rounded=0;whiteSpace=wrap;html=1;" vertex="1" parent="1">
          <mxGeometry x="536" y="969" width="10" height="10" as="geometry" />
        </mxCell>
        <mxCell id="5tJ5e0qFEt_hm9HJa-Kv-58" value="" style="rounded=0;whiteSpace=wrap;html=1;" vertex="1" parent="1">
          <mxGeometry x="536" y="949" width="10" height="10" as="geometry" />
        </mxCell>
        <mxCell id="5tJ5e0qFEt_hm9HJa-Kv-59" value="" style="rounded=0;whiteSpace=wrap;html=1;" vertex="1" parent="1">
          <mxGeometry x="536" y="959" width="10" height="10" as="geometry" />
        </mxCell>
        <mxCell id="5tJ5e0qFEt_hm9HJa-Kv-60" value="" style="rounded=0;whiteSpace=wrap;html=1;" vertex="1" parent="1">
          <mxGeometry x="560" y="939" width="10" height="10" as="geometry" />
        </mxCell>
        <mxCell id="5tJ5e0qFEt_hm9HJa-Kv-61" value="" style="rounded=0;whiteSpace=wrap;html=1;" vertex="1" parent="1">
          <mxGeometry x="560" y="969" width="10" height="10" as="geometry" />
        </mxCell>
        <mxCell id="5tJ5e0qFEt_hm9HJa-Kv-62" value="" style="rounded=0;whiteSpace=wrap;html=1;" vertex="1" parent="1">
          <mxGeometry x="560" y="949" width="10" height="10" as="geometry" />
        </mxCell>
        <mxCell id="5tJ5e0qFEt_hm9HJa-Kv-63" value="" style="rounded=0;whiteSpace=wrap;html=1;" vertex="1" parent="1">
          <mxGeometry x="560" y="959" width="10" height="10" as="geometry" />
        </mxCell>
        <mxCell id="5tJ5e0qFEt_hm9HJa-Kv-64" value="" style="shape=curlyBracket;whiteSpace=wrap;html=1;rounded=1;flipH=1;labelPosition=right;verticalLabelPosition=middle;align=left;verticalAlign=middle;rotation=90;" vertex="1" parent="1">
          <mxGeometry x="245" y="976" width="10" height="29" as="geometry" />
        </mxCell>
        <mxCell id="5tJ5e0qFEt_hm9HJa-Kv-65" value="" style="shape=curlyBracket;whiteSpace=wrap;html=1;rounded=1;flipH=1;labelPosition=right;verticalLabelPosition=middle;align=left;verticalAlign=middle;rotation=90;" vertex="1" parent="1">
          <mxGeometry x="297" y="976" width="10" height="29" as="geometry" />
        </mxCell>
        <mxCell id="5tJ5e0qFEt_hm9HJa-Kv-66" value="" style="shape=curlyBracket;whiteSpace=wrap;html=1;rounded=1;flipH=1;labelPosition=right;verticalLabelPosition=middle;align=left;verticalAlign=middle;rotation=90;" vertex="1" parent="1">
          <mxGeometry x="347" y="976" width="10" height="29" as="geometry" />
        </mxCell>
        <mxCell id="5tJ5e0qFEt_hm9HJa-Kv-67" value="" style="shape=curlyBracket;whiteSpace=wrap;html=1;rounded=1;flipH=1;labelPosition=right;verticalLabelPosition=middle;align=left;verticalAlign=middle;rotation=90;" vertex="1" parent="1">
          <mxGeometry x="398" y="976" width="10" height="29" as="geometry" />
        </mxCell>
        <mxCell id="5tJ5e0qFEt_hm9HJa-Kv-68" value="" style="shape=curlyBracket;whiteSpace=wrap;html=1;rounded=1;flipH=1;labelPosition=right;verticalLabelPosition=middle;align=left;verticalAlign=middle;rotation=90;" vertex="1" parent="1">
          <mxGeometry x="446" y="976" width="10" height="29" as="geometry" />
        </mxCell>
        <mxCell id="5tJ5e0qFEt_hm9HJa-Kv-69" value="" style="shape=curlyBracket;whiteSpace=wrap;html=1;rounded=1;flipH=1;labelPosition=right;verticalLabelPosition=middle;align=left;verticalAlign=middle;rotation=90;" vertex="1" parent="1">
          <mxGeometry x="495" y="976" width="10" height="29" as="geometry" />
        </mxCell>
        <mxCell id="5tJ5e0qFEt_hm9HJa-Kv-70" value="" style="shape=curlyBracket;whiteSpace=wrap;html=1;rounded=1;flipH=1;labelPosition=right;verticalLabelPosition=middle;align=left;verticalAlign=middle;rotation=90;" vertex="1" parent="1">
          <mxGeometry x="547" y="976" width="10" height="29" as="geometry" />
        </mxCell>
        <mxCell id="5tJ5e0qFEt_hm9HJa-Kv-77" style="rounded=0;orthogonalLoop=1;jettySize=auto;html=1;entryX=0.5;entryY=0;entryDx=0;entryDy=0;" edge="1" parent="1" target="F06jq8IFjxAQC7QXPxzw-54">
          <mxGeometry relative="1" as="geometry">
            <mxPoint x="505" y="1050" as="sourcePoint" />
          </mxGeometry>
        </mxCell>
        <mxCell id="5tJ5e0qFEt_hm9HJa-Kv-128" style="rounded=0;orthogonalLoop=1;jettySize=auto;html=1;exitX=0.5;exitY=1;exitDx=0;exitDy=0;entryX=0.5;entryY=0;entryDx=0;entryDy=0;" edge="1" parent="1" source="5tJ5e0qFEt_hm9HJa-Kv-80" target="5tJ5e0qFEt_hm9HJa-Kv-85">
          <mxGeometry relative="1" as="geometry" />
        </mxCell>
        <mxCell id="5tJ5e0qFEt_hm9HJa-Kv-80" value="" style="group;movable=1;resizable=1;rotatable=1;deletable=1;editable=1;locked=0;connectable=1;flipH=1;" vertex="1" connectable="0" parent="1">
          <mxGeometry x="229" y="1227" width="40" height="10" as="geometry" />
        </mxCell>
        <mxCell id="5tJ5e0qFEt_hm9HJa-Kv-81" value="" style="rounded=0;whiteSpace=wrap;html=1;movable=1;resizable=1;rotatable=1;deletable=1;editable=1;locked=0;connectable=1;" vertex="1" parent="5tJ5e0qFEt_hm9HJa-Kv-80">
          <mxGeometry x="30" width="10" height="10" as="geometry" />
        </mxCell>
        <mxCell id="5tJ5e0qFEt_hm9HJa-Kv-82" value="" style="rounded=0;whiteSpace=wrap;html=1;movable=1;resizable=1;rotatable=1;deletable=1;editable=1;locked=0;connectable=1;" vertex="1" parent="5tJ5e0qFEt_hm9HJa-Kv-80">
          <mxGeometry x="20" width="10" height="10" as="geometry" />
        </mxCell>
        <mxCell id="5tJ5e0qFEt_hm9HJa-Kv-83" value="" style="rounded=0;whiteSpace=wrap;html=1;movable=1;resizable=1;rotatable=1;deletable=1;editable=1;locked=0;connectable=1;" vertex="1" parent="5tJ5e0qFEt_hm9HJa-Kv-80">
          <mxGeometry width="10" height="10" as="geometry" />
        </mxCell>
        <mxCell id="5tJ5e0qFEt_hm9HJa-Kv-84" value="" style="rounded=0;whiteSpace=wrap;html=1;movable=1;resizable=1;rotatable=1;deletable=1;editable=1;locked=0;connectable=1;" vertex="1" parent="5tJ5e0qFEt_hm9HJa-Kv-80">
          <mxGeometry x="10" width="10" height="10" as="geometry" />
        </mxCell>
        <mxCell id="5tJ5e0qFEt_hm9HJa-Kv-85" value="" style="rounded=0;whiteSpace=wrap;html=1;fillColor=#f5f5f5;fontColor=#333333;strokeColor=#666666;" vertex="1" parent="1">
          <mxGeometry x="257.5" y="1285" width="40" height="10" as="geometry" />
        </mxCell>
        <mxCell id="5tJ5e0qFEt_hm9HJa-Kv-129" style="rounded=0;orthogonalLoop=1;jettySize=auto;html=1;exitX=0.5;exitY=1;exitDx=0;exitDy=0;entryX=0.5;entryY=0;entryDx=0;entryDy=0;" edge="1" parent="1" source="5tJ5e0qFEt_hm9HJa-Kv-87" target="5tJ5e0qFEt_hm9HJa-Kv-121">
          <mxGeometry relative="1" as="geometry" />
        </mxCell>
        <mxCell id="5tJ5e0qFEt_hm9HJa-Kv-87" value="" style="group;movable=1;resizable=1;rotatable=1;deletable=1;editable=1;locked=0;connectable=1;flipH=1;" vertex="1" connectable="0" parent="1">
          <mxGeometry x="280" y="1227" width="40" height="10" as="geometry" />
        </mxCell>
        <mxCell id="5tJ5e0qFEt_hm9HJa-Kv-88" value="" style="rounded=0;whiteSpace=wrap;html=1;movable=1;resizable=1;rotatable=1;deletable=1;editable=1;locked=0;connectable=1;" vertex="1" parent="5tJ5e0qFEt_hm9HJa-Kv-87">
          <mxGeometry x="30" width="10" height="10" as="geometry" />
        </mxCell>
        <mxCell id="5tJ5e0qFEt_hm9HJa-Kv-89" value="" style="rounded=0;whiteSpace=wrap;html=1;movable=1;resizable=1;rotatable=1;deletable=1;editable=1;locked=0;connectable=1;" vertex="1" parent="5tJ5e0qFEt_hm9HJa-Kv-87">
          <mxGeometry x="20" width="10" height="10" as="geometry" />
        </mxCell>
        <mxCell id="5tJ5e0qFEt_hm9HJa-Kv-90" value="" style="rounded=0;whiteSpace=wrap;html=1;movable=1;resizable=1;rotatable=1;deletable=1;editable=1;locked=0;connectable=1;" vertex="1" parent="5tJ5e0qFEt_hm9HJa-Kv-87">
          <mxGeometry width="10" height="10" as="geometry" />
        </mxCell>
        <mxCell id="5tJ5e0qFEt_hm9HJa-Kv-91" value="" style="rounded=0;whiteSpace=wrap;html=1;movable=1;resizable=1;rotatable=1;deletable=1;editable=1;locked=0;connectable=1;" vertex="1" parent="5tJ5e0qFEt_hm9HJa-Kv-87">
          <mxGeometry x="10" width="10" height="10" as="geometry" />
        </mxCell>
        <mxCell id="5tJ5e0qFEt_hm9HJa-Kv-130" style="rounded=0;orthogonalLoop=1;jettySize=auto;html=1;exitX=0.5;exitY=1;exitDx=0;exitDy=0;entryX=0.5;entryY=0;entryDx=0;entryDy=0;" edge="1" parent="1" source="5tJ5e0qFEt_hm9HJa-Kv-93" target="5tJ5e0qFEt_hm9HJa-Kv-122">
          <mxGeometry relative="1" as="geometry" />
        </mxCell>
        <mxCell id="5tJ5e0qFEt_hm9HJa-Kv-93" value="" style="group;movable=1;resizable=1;rotatable=1;deletable=1;editable=1;locked=0;connectable=1;flipH=1;" vertex="1" connectable="0" parent="1">
          <mxGeometry x="330" y="1227" width="40" height="10" as="geometry" />
        </mxCell>
        <mxCell id="5tJ5e0qFEt_hm9HJa-Kv-94" value="" style="rounded=0;whiteSpace=wrap;html=1;movable=1;resizable=1;rotatable=1;deletable=1;editable=1;locked=0;connectable=1;" vertex="1" parent="5tJ5e0qFEt_hm9HJa-Kv-93">
          <mxGeometry x="30" width="10" height="10" as="geometry" />
        </mxCell>
        <mxCell id="5tJ5e0qFEt_hm9HJa-Kv-95" value="" style="rounded=0;whiteSpace=wrap;html=1;movable=1;resizable=1;rotatable=1;deletable=1;editable=1;locked=0;connectable=1;" vertex="1" parent="5tJ5e0qFEt_hm9HJa-Kv-93">
          <mxGeometry x="20" width="10" height="10" as="geometry" />
        </mxCell>
        <mxCell id="5tJ5e0qFEt_hm9HJa-Kv-96" value="" style="rounded=0;whiteSpace=wrap;html=1;movable=1;resizable=1;rotatable=1;deletable=1;editable=1;locked=0;connectable=1;" vertex="1" parent="5tJ5e0qFEt_hm9HJa-Kv-93">
          <mxGeometry width="10" height="10" as="geometry" />
        </mxCell>
        <mxCell id="5tJ5e0qFEt_hm9HJa-Kv-97" value="" style="rounded=0;whiteSpace=wrap;html=1;movable=1;resizable=1;rotatable=1;deletable=1;editable=1;locked=0;connectable=1;" vertex="1" parent="5tJ5e0qFEt_hm9HJa-Kv-93">
          <mxGeometry x="10" width="10" height="10" as="geometry" />
        </mxCell>
        <mxCell id="5tJ5e0qFEt_hm9HJa-Kv-131" style="rounded=0;orthogonalLoop=1;jettySize=auto;html=1;exitX=0.5;exitY=1;exitDx=0;exitDy=0;entryX=0.5;entryY=0;entryDx=0;entryDy=0;" edge="1" parent="1" source="5tJ5e0qFEt_hm9HJa-Kv-99" target="5tJ5e0qFEt_hm9HJa-Kv-123">
          <mxGeometry relative="1" as="geometry" />
        </mxCell>
        <mxCell id="5tJ5e0qFEt_hm9HJa-Kv-99" value="" style="group;movable=1;resizable=1;rotatable=1;deletable=1;editable=1;locked=0;connectable=1;flipH=1;" vertex="1" connectable="0" parent="1">
          <mxGeometry x="380" y="1227" width="40" height="10" as="geometry" />
        </mxCell>
        <mxCell id="5tJ5e0qFEt_hm9HJa-Kv-100" value="" style="rounded=0;whiteSpace=wrap;html=1;movable=1;resizable=1;rotatable=1;deletable=1;editable=1;locked=0;connectable=1;" vertex="1" parent="5tJ5e0qFEt_hm9HJa-Kv-99">
          <mxGeometry x="30" width="10" height="10" as="geometry" />
        </mxCell>
        <mxCell id="5tJ5e0qFEt_hm9HJa-Kv-101" value="" style="rounded=0;whiteSpace=wrap;html=1;movable=1;resizable=1;rotatable=1;deletable=1;editable=1;locked=0;connectable=1;" vertex="1" parent="5tJ5e0qFEt_hm9HJa-Kv-99">
          <mxGeometry x="20" width="10" height="10" as="geometry" />
        </mxCell>
        <mxCell id="5tJ5e0qFEt_hm9HJa-Kv-102" value="" style="rounded=0;whiteSpace=wrap;html=1;movable=1;resizable=1;rotatable=1;deletable=1;editable=1;locked=0;connectable=1;" vertex="1" parent="5tJ5e0qFEt_hm9HJa-Kv-99">
          <mxGeometry width="10" height="10" as="geometry" />
        </mxCell>
        <mxCell id="5tJ5e0qFEt_hm9HJa-Kv-103" value="" style="rounded=0;whiteSpace=wrap;html=1;movable=1;resizable=1;rotatable=1;deletable=1;editable=1;locked=0;connectable=1;" vertex="1" parent="5tJ5e0qFEt_hm9HJa-Kv-99">
          <mxGeometry x="10" width="10" height="10" as="geometry" />
        </mxCell>
        <mxCell id="5tJ5e0qFEt_hm9HJa-Kv-132" style="rounded=0;orthogonalLoop=1;jettySize=auto;html=1;exitX=0.5;exitY=1;exitDx=0;exitDy=0;entryX=0.5;entryY=0;entryDx=0;entryDy=0;" edge="1" parent="1" source="5tJ5e0qFEt_hm9HJa-Kv-105" target="5tJ5e0qFEt_hm9HJa-Kv-124">
          <mxGeometry relative="1" as="geometry" />
        </mxCell>
        <mxCell id="5tJ5e0qFEt_hm9HJa-Kv-105" value="" style="group;movable=1;resizable=1;rotatable=1;deletable=1;editable=1;locked=0;connectable=1;flipH=1;" vertex="1" connectable="0" parent="1">
          <mxGeometry x="430" y="1227" width="40" height="10" as="geometry" />
        </mxCell>
        <mxCell id="5tJ5e0qFEt_hm9HJa-Kv-106" value="" style="rounded=0;whiteSpace=wrap;html=1;movable=1;resizable=1;rotatable=1;deletable=1;editable=1;locked=0;connectable=1;" vertex="1" parent="5tJ5e0qFEt_hm9HJa-Kv-105">
          <mxGeometry x="30" width="10" height="10" as="geometry" />
        </mxCell>
        <mxCell id="5tJ5e0qFEt_hm9HJa-Kv-107" value="" style="rounded=0;whiteSpace=wrap;html=1;movable=1;resizable=1;rotatable=1;deletable=1;editable=1;locked=0;connectable=1;" vertex="1" parent="5tJ5e0qFEt_hm9HJa-Kv-105">
          <mxGeometry x="20" width="10" height="10" as="geometry" />
        </mxCell>
        <mxCell id="5tJ5e0qFEt_hm9HJa-Kv-108" value="" style="rounded=0;whiteSpace=wrap;html=1;movable=1;resizable=1;rotatable=1;deletable=1;editable=1;locked=0;connectable=1;" vertex="1" parent="5tJ5e0qFEt_hm9HJa-Kv-105">
          <mxGeometry width="10" height="10" as="geometry" />
        </mxCell>
        <mxCell id="5tJ5e0qFEt_hm9HJa-Kv-109" value="" style="rounded=0;whiteSpace=wrap;html=1;movable=1;resizable=1;rotatable=1;deletable=1;editable=1;locked=0;connectable=1;" vertex="1" parent="5tJ5e0qFEt_hm9HJa-Kv-105">
          <mxGeometry x="10" width="10" height="10" as="geometry" />
        </mxCell>
        <mxCell id="5tJ5e0qFEt_hm9HJa-Kv-133" style="rounded=0;orthogonalLoop=1;jettySize=auto;html=1;exitX=0.5;exitY=1;exitDx=0;exitDy=0;entryX=0.5;entryY=0;entryDx=0;entryDy=0;" edge="1" parent="1" source="5tJ5e0qFEt_hm9HJa-Kv-110" target="5tJ5e0qFEt_hm9HJa-Kv-125">
          <mxGeometry relative="1" as="geometry" />
        </mxCell>
        <mxCell id="5tJ5e0qFEt_hm9HJa-Kv-110" value="" style="group;movable=1;resizable=1;rotatable=1;deletable=1;editable=1;locked=0;connectable=1;flipH=1;" vertex="1" connectable="0" parent="1">
          <mxGeometry x="479" y="1227" width="40" height="10" as="geometry" />
        </mxCell>
        <mxCell id="5tJ5e0qFEt_hm9HJa-Kv-111" value="" style="rounded=0;whiteSpace=wrap;html=1;movable=1;resizable=1;rotatable=1;deletable=1;editable=1;locked=0;connectable=1;" vertex="1" parent="5tJ5e0qFEt_hm9HJa-Kv-110">
          <mxGeometry x="30" width="10" height="10" as="geometry" />
        </mxCell>
        <mxCell id="5tJ5e0qFEt_hm9HJa-Kv-112" value="" style="rounded=0;whiteSpace=wrap;html=1;movable=1;resizable=1;rotatable=1;deletable=1;editable=1;locked=0;connectable=1;" vertex="1" parent="5tJ5e0qFEt_hm9HJa-Kv-110">
          <mxGeometry x="20" width="10" height="10" as="geometry" />
        </mxCell>
        <mxCell id="5tJ5e0qFEt_hm9HJa-Kv-113" value="" style="rounded=0;whiteSpace=wrap;html=1;movable=1;resizable=1;rotatable=1;deletable=1;editable=1;locked=0;connectable=1;" vertex="1" parent="5tJ5e0qFEt_hm9HJa-Kv-110">
          <mxGeometry width="10" height="10" as="geometry" />
        </mxCell>
        <mxCell id="5tJ5e0qFEt_hm9HJa-Kv-114" value="" style="rounded=0;whiteSpace=wrap;html=1;movable=1;resizable=1;rotatable=1;deletable=1;editable=1;locked=0;connectable=1;" vertex="1" parent="5tJ5e0qFEt_hm9HJa-Kv-110">
          <mxGeometry x="10" width="10" height="10" as="geometry" />
        </mxCell>
        <mxCell id="5tJ5e0qFEt_hm9HJa-Kv-134" style="rounded=0;orthogonalLoop=1;jettySize=auto;html=1;exitX=0.5;exitY=1;exitDx=0;exitDy=0;entryX=0.5;entryY=0;entryDx=0;entryDy=0;" edge="1" parent="1" source="5tJ5e0qFEt_hm9HJa-Kv-116" target="5tJ5e0qFEt_hm9HJa-Kv-126">
          <mxGeometry relative="1" as="geometry" />
        </mxCell>
        <mxCell id="5tJ5e0qFEt_hm9HJa-Kv-116" value="" style="group;movable=1;resizable=1;rotatable=1;deletable=1;editable=1;locked=0;connectable=1;flipH=1;" vertex="1" connectable="0" parent="1">
          <mxGeometry x="530" y="1227" width="40" height="10" as="geometry" />
        </mxCell>
        <mxCell id="5tJ5e0qFEt_hm9HJa-Kv-821" style="edgeStyle=none;rounded=0;orthogonalLoop=1;jettySize=auto;html=1;exitX=1;exitY=0.5;exitDx=0;exitDy=0;" edge="1" parent="5tJ5e0qFEt_hm9HJa-Kv-116" source="5tJ5e0qFEt_hm9HJa-Kv-117">
          <mxGeometry relative="1" as="geometry">
            <mxPoint x="60" y="73" as="targetPoint" />
          </mxGeometry>
        </mxCell>
        <mxCell id="5tJ5e0qFEt_hm9HJa-Kv-117" value="" style="rounded=0;whiteSpace=wrap;html=1;movable=1;resizable=1;rotatable=1;deletable=1;editable=1;locked=0;connectable=1;" vertex="1" parent="5tJ5e0qFEt_hm9HJa-Kv-116">
          <mxGeometry x="30" y="14" width="10" height="10" as="geometry" />
        </mxCell>
        <mxCell id="5tJ5e0qFEt_hm9HJa-Kv-118" value="" style="rounded=0;whiteSpace=wrap;html=1;movable=1;resizable=1;rotatable=1;deletable=1;editable=1;locked=0;connectable=1;" vertex="1" parent="5tJ5e0qFEt_hm9HJa-Kv-116">
          <mxGeometry x="20" y="14" width="10" height="10" as="geometry" />
        </mxCell>
        <mxCell id="5tJ5e0qFEt_hm9HJa-Kv-119" value="" style="rounded=0;whiteSpace=wrap;html=1;movable=1;resizable=1;rotatable=1;deletable=1;editable=1;locked=0;connectable=1;" vertex="1" parent="5tJ5e0qFEt_hm9HJa-Kv-116">
          <mxGeometry width="10" height="10" as="geometry" />
        </mxCell>
        <mxCell id="5tJ5e0qFEt_hm9HJa-Kv-120" value="" style="rounded=0;whiteSpace=wrap;html=1;movable=1;resizable=1;rotatable=1;deletable=1;editable=1;locked=0;connectable=1;" vertex="1" parent="5tJ5e0qFEt_hm9HJa-Kv-116">
          <mxGeometry x="10" width="10" height="10" as="geometry" />
        </mxCell>
        <mxCell id="5tJ5e0qFEt_hm9HJa-Kv-121" value="" style="rounded=0;whiteSpace=wrap;html=1;fillColor=#f5f5f5;fontColor=#333333;strokeColor=#666666;" vertex="1" parent="1">
          <mxGeometry x="297.5" y="1285" width="40" height="10" as="geometry" />
        </mxCell>
        <mxCell id="5tJ5e0qFEt_hm9HJa-Kv-122" value="" style="rounded=0;whiteSpace=wrap;html=1;fillColor=#f5f5f5;fontColor=#333333;strokeColor=#666666;" vertex="1" parent="1">
          <mxGeometry x="337.5" y="1285" width="40" height="10" as="geometry" />
        </mxCell>
        <mxCell id="5tJ5e0qFEt_hm9HJa-Kv-123" value="" style="rounded=0;whiteSpace=wrap;html=1;fillColor=#f5f5f5;fontColor=#333333;strokeColor=#666666;" vertex="1" parent="1">
          <mxGeometry x="377.5" y="1285" width="40" height="10" as="geometry" />
        </mxCell>
        <mxCell id="5tJ5e0qFEt_hm9HJa-Kv-124" value="" style="rounded=0;whiteSpace=wrap;html=1;fillColor=#f5f5f5;fontColor=#333333;strokeColor=#666666;" vertex="1" parent="1">
          <mxGeometry x="417.5" y="1285" width="40" height="10" as="geometry" />
        </mxCell>
        <mxCell id="5tJ5e0qFEt_hm9HJa-Kv-125" value="" style="rounded=0;whiteSpace=wrap;html=1;fillColor=#f5f5f5;fontColor=#333333;strokeColor=#666666;" vertex="1" parent="1">
          <mxGeometry x="457.5" y="1285" width="40" height="10" as="geometry" />
        </mxCell>
        <mxCell id="5tJ5e0qFEt_hm9HJa-Kv-126" value="" style="rounded=0;whiteSpace=wrap;html=1;fillColor=#f5f5f5;fontColor=#333333;strokeColor=#666666;" vertex="1" parent="1">
          <mxGeometry x="497.5" y="1285" width="40" height="10" as="geometry" />
        </mxCell>
        <mxCell id="5tJ5e0qFEt_hm9HJa-Kv-256" value="" style="ellipse;whiteSpace=wrap;html=1;aspect=fixed;fillColor=#dae8fc;strokeColor=#6c8ebf;" vertex="1" parent="1">
          <mxGeometry x="658" y="1047" width="16" height="16" as="geometry" />
        </mxCell>
        <mxCell id="5tJ5e0qFEt_hm9HJa-Kv-257" style="rounded=0;orthogonalLoop=1;jettySize=auto;html=1;exitX=0.5;exitY=1;exitDx=0;exitDy=0;entryX=0.5;entryY=0;entryDx=0;entryDy=0;" edge="1" parent="1" source="5tJ5e0qFEt_hm9HJa-Kv-258" target="5tJ5e0qFEt_hm9HJa-Kv-307">
          <mxGeometry relative="1" as="geometry" />
        </mxCell>
        <mxCell id="5tJ5e0qFEt_hm9HJa-Kv-258" value="" style="group;movable=1;resizable=1;rotatable=1;deletable=1;editable=1;locked=0;connectable=1;flipH=1;fillColor=#dae8fc;strokeColor=#6c8ebf;" vertex="1" connectable="0" parent="1">
          <mxGeometry x="647" y="1098" width="40" height="10" as="geometry" />
        </mxCell>
        <mxCell id="5tJ5e0qFEt_hm9HJa-Kv-259" value="" style="rounded=0;whiteSpace=wrap;html=1;movable=1;resizable=1;rotatable=1;deletable=1;editable=1;locked=0;connectable=1;fillColor=#dae8fc;strokeColor=#6c8ebf;" vertex="1" parent="5tJ5e0qFEt_hm9HJa-Kv-258">
          <mxGeometry x="30" width="10" height="10" as="geometry" />
        </mxCell>
        <mxCell id="5tJ5e0qFEt_hm9HJa-Kv-260" value="" style="rounded=0;whiteSpace=wrap;html=1;movable=1;resizable=1;rotatable=1;deletable=1;editable=1;locked=0;connectable=1;fillColor=#dae8fc;strokeColor=#6c8ebf;" vertex="1" parent="5tJ5e0qFEt_hm9HJa-Kv-258">
          <mxGeometry x="20" width="10" height="10" as="geometry" />
        </mxCell>
        <mxCell id="5tJ5e0qFEt_hm9HJa-Kv-261" value="" style="rounded=0;whiteSpace=wrap;html=1;movable=1;resizable=1;rotatable=1;deletable=1;editable=1;locked=0;connectable=1;fillColor=#dae8fc;strokeColor=#6c8ebf;" vertex="1" parent="5tJ5e0qFEt_hm9HJa-Kv-258">
          <mxGeometry width="10" height="10" as="geometry" />
        </mxCell>
        <mxCell id="5tJ5e0qFEt_hm9HJa-Kv-262" value="" style="rounded=0;whiteSpace=wrap;html=1;movable=1;resizable=1;rotatable=1;deletable=1;editable=1;locked=0;connectable=1;fillColor=#dae8fc;strokeColor=#6c8ebf;" vertex="1" parent="5tJ5e0qFEt_hm9HJa-Kv-258">
          <mxGeometry x="10" width="10" height="10" as="geometry" />
        </mxCell>
        <mxCell id="5tJ5e0qFEt_hm9HJa-Kv-263" value="" style="rounded=0;whiteSpace=wrap;html=1;fillColor=#ffcc99;strokeColor=#36393d;" vertex="1" parent="1">
          <mxGeometry x="675.5" y="1163" width="40" height="10" as="geometry" />
        </mxCell>
        <mxCell id="5tJ5e0qFEt_hm9HJa-Kv-264" style="rounded=0;orthogonalLoop=1;jettySize=auto;html=1;exitX=0.5;exitY=1;exitDx=0;exitDy=0;entryX=0.5;entryY=0;entryDx=0;entryDy=0;" edge="1" parent="1" source="5tJ5e0qFEt_hm9HJa-Kv-265" target="5tJ5e0qFEt_hm9HJa-Kv-306">
          <mxGeometry relative="1" as="geometry" />
        </mxCell>
        <mxCell id="5tJ5e0qFEt_hm9HJa-Kv-265" value="" style="group;movable=1;resizable=1;rotatable=1;deletable=1;editable=1;locked=0;connectable=1;flipH=1;fillColor=#d5e8d4;strokeColor=#82b366;" vertex="1" connectable="0" parent="1">
          <mxGeometry x="698" y="1098" width="40" height="10" as="geometry" />
        </mxCell>
        <mxCell id="5tJ5e0qFEt_hm9HJa-Kv-266" value="" style="rounded=0;whiteSpace=wrap;html=1;movable=1;resizable=1;rotatable=1;deletable=1;editable=1;locked=0;connectable=1;fillColor=#d5e8d4;strokeColor=#82b366;" vertex="1" parent="5tJ5e0qFEt_hm9HJa-Kv-265">
          <mxGeometry x="30" width="10" height="10" as="geometry" />
        </mxCell>
        <mxCell id="5tJ5e0qFEt_hm9HJa-Kv-267" value="" style="rounded=0;whiteSpace=wrap;html=1;movable=1;resizable=1;rotatable=1;deletable=1;editable=1;locked=0;connectable=1;fillColor=#d5e8d4;strokeColor=#82b366;" vertex="1" parent="5tJ5e0qFEt_hm9HJa-Kv-265">
          <mxGeometry x="20" width="10" height="10" as="geometry" />
        </mxCell>
        <mxCell id="5tJ5e0qFEt_hm9HJa-Kv-268" value="" style="rounded=0;whiteSpace=wrap;html=1;movable=1;resizable=1;rotatable=1;deletable=1;editable=1;locked=0;connectable=1;fillColor=#d5e8d4;strokeColor=#82b366;" vertex="1" parent="5tJ5e0qFEt_hm9HJa-Kv-265">
          <mxGeometry width="10" height="10" as="geometry" />
        </mxCell>
        <mxCell id="5tJ5e0qFEt_hm9HJa-Kv-269" value="" style="rounded=0;whiteSpace=wrap;html=1;movable=1;resizable=1;rotatable=1;deletable=1;editable=1;locked=0;connectable=1;fillColor=#d5e8d4;strokeColor=#82b366;" vertex="1" parent="5tJ5e0qFEt_hm9HJa-Kv-265">
          <mxGeometry x="10" width="10" height="10" as="geometry" />
        </mxCell>
        <mxCell id="5tJ5e0qFEt_hm9HJa-Kv-270" style="rounded=0;orthogonalLoop=1;jettySize=auto;html=1;exitX=0.5;exitY=1;exitDx=0;exitDy=0;entryX=0.5;entryY=0;entryDx=0;entryDy=0;" edge="1" parent="1" source="5tJ5e0qFEt_hm9HJa-Kv-271" target="5tJ5e0qFEt_hm9HJa-Kv-309">
          <mxGeometry relative="1" as="geometry" />
        </mxCell>
        <mxCell id="5tJ5e0qFEt_hm9HJa-Kv-271" value="" style="group;movable=1;resizable=1;rotatable=1;deletable=1;editable=1;locked=0;connectable=1;flipH=1;fillColor=#e1d5e7;strokeColor=#9673a6;" vertex="1" connectable="0" parent="1">
          <mxGeometry x="748" y="1098" width="40" height="10" as="geometry" />
        </mxCell>
        <mxCell id="5tJ5e0qFEt_hm9HJa-Kv-272" value="" style="rounded=0;whiteSpace=wrap;html=1;movable=1;resizable=1;rotatable=1;deletable=1;editable=1;locked=0;connectable=1;fillColor=#e1d5e7;strokeColor=#9673a6;" vertex="1" parent="5tJ5e0qFEt_hm9HJa-Kv-271">
          <mxGeometry x="30" width="10" height="10" as="geometry" />
        </mxCell>
        <mxCell id="5tJ5e0qFEt_hm9HJa-Kv-273" value="" style="rounded=0;whiteSpace=wrap;html=1;movable=1;resizable=1;rotatable=1;deletable=1;editable=1;locked=0;connectable=1;fillColor=#e1d5e7;strokeColor=#9673a6;" vertex="1" parent="5tJ5e0qFEt_hm9HJa-Kv-271">
          <mxGeometry x="20" width="10" height="10" as="geometry" />
        </mxCell>
        <mxCell id="5tJ5e0qFEt_hm9HJa-Kv-274" value="" style="rounded=0;whiteSpace=wrap;html=1;movable=1;resizable=1;rotatable=1;deletable=1;editable=1;locked=0;connectable=1;fillColor=#e1d5e7;strokeColor=#9673a6;" vertex="1" parent="5tJ5e0qFEt_hm9HJa-Kv-271">
          <mxGeometry width="10" height="10" as="geometry" />
        </mxCell>
        <mxCell id="5tJ5e0qFEt_hm9HJa-Kv-275" value="" style="rounded=0;whiteSpace=wrap;html=1;movable=1;resizable=1;rotatable=1;deletable=1;editable=1;locked=0;connectable=1;fillColor=#e1d5e7;strokeColor=#9673a6;" vertex="1" parent="5tJ5e0qFEt_hm9HJa-Kv-271">
          <mxGeometry x="10" width="10" height="10" as="geometry" />
        </mxCell>
        <mxCell id="5tJ5e0qFEt_hm9HJa-Kv-276" style="rounded=0;orthogonalLoop=1;jettySize=auto;html=1;exitX=0.5;exitY=1;exitDx=0;exitDy=0;entryX=0.5;entryY=0;entryDx=0;entryDy=0;" edge="1" parent="1" source="5tJ5e0qFEt_hm9HJa-Kv-277" target="5tJ5e0qFEt_hm9HJa-Kv-310">
          <mxGeometry relative="1" as="geometry" />
        </mxCell>
        <mxCell id="5tJ5e0qFEt_hm9HJa-Kv-277" value="" style="group;movable=1;resizable=1;rotatable=1;deletable=1;editable=1;locked=0;connectable=1;flipH=1;fillColor=#f8cecc;strokeColor=#b85450;" vertex="1" connectable="0" parent="1">
          <mxGeometry x="798" y="1098" width="40" height="10" as="geometry" />
        </mxCell>
        <mxCell id="5tJ5e0qFEt_hm9HJa-Kv-278" value="" style="rounded=0;whiteSpace=wrap;html=1;movable=1;resizable=1;rotatable=1;deletable=1;editable=1;locked=0;connectable=1;fillColor=#f8cecc;strokeColor=#b85450;" vertex="1" parent="5tJ5e0qFEt_hm9HJa-Kv-277">
          <mxGeometry x="30" width="10" height="10" as="geometry" />
        </mxCell>
        <mxCell id="5tJ5e0qFEt_hm9HJa-Kv-279" value="" style="rounded=0;whiteSpace=wrap;html=1;movable=1;resizable=1;rotatable=1;deletable=1;editable=1;locked=0;connectable=1;fillColor=#f8cecc;strokeColor=#b85450;" vertex="1" parent="5tJ5e0qFEt_hm9HJa-Kv-277">
          <mxGeometry x="20" width="10" height="10" as="geometry" />
        </mxCell>
        <mxCell id="5tJ5e0qFEt_hm9HJa-Kv-280" value="" style="rounded=0;whiteSpace=wrap;html=1;movable=1;resizable=1;rotatable=1;deletable=1;editable=1;locked=0;connectable=1;fillColor=#f8cecc;strokeColor=#b85450;" vertex="1" parent="5tJ5e0qFEt_hm9HJa-Kv-277">
          <mxGeometry width="10" height="10" as="geometry" />
        </mxCell>
        <mxCell id="5tJ5e0qFEt_hm9HJa-Kv-281" value="" style="rounded=0;whiteSpace=wrap;html=1;movable=1;resizable=1;rotatable=1;deletable=1;editable=1;locked=0;connectable=1;fillColor=#f8cecc;strokeColor=#b85450;" vertex="1" parent="5tJ5e0qFEt_hm9HJa-Kv-277">
          <mxGeometry x="10" width="10" height="10" as="geometry" />
        </mxCell>
        <mxCell id="5tJ5e0qFEt_hm9HJa-Kv-282" style="rounded=0;orthogonalLoop=1;jettySize=auto;html=1;exitX=0.5;exitY=1;exitDx=0;exitDy=0;entryX=0.5;entryY=0;entryDx=0;entryDy=0;" edge="1" parent="1" source="5tJ5e0qFEt_hm9HJa-Kv-283" target="5tJ5e0qFEt_hm9HJa-Kv-305">
          <mxGeometry relative="1" as="geometry" />
        </mxCell>
        <mxCell id="5tJ5e0qFEt_hm9HJa-Kv-283" value="" style="group;movable=1;resizable=1;rotatable=1;deletable=1;editable=1;locked=0;connectable=1;flipH=1;fillColor=#fff2cc;strokeColor=#d6b656;" vertex="1" connectable="0" parent="1">
          <mxGeometry x="848" y="1098" width="40" height="10" as="geometry" />
        </mxCell>
        <mxCell id="5tJ5e0qFEt_hm9HJa-Kv-284" value="" style="rounded=0;whiteSpace=wrap;html=1;movable=1;resizable=1;rotatable=1;deletable=1;editable=1;locked=0;connectable=1;fillColor=#fff2cc;strokeColor=#d6b656;" vertex="1" parent="5tJ5e0qFEt_hm9HJa-Kv-283">
          <mxGeometry x="30" width="10" height="10" as="geometry" />
        </mxCell>
        <mxCell id="5tJ5e0qFEt_hm9HJa-Kv-285" value="" style="rounded=0;whiteSpace=wrap;html=1;movable=1;resizable=1;rotatable=1;deletable=1;editable=1;locked=0;connectable=1;fillColor=#fff2cc;strokeColor=#d6b656;" vertex="1" parent="5tJ5e0qFEt_hm9HJa-Kv-283">
          <mxGeometry x="20" width="10" height="10" as="geometry" />
        </mxCell>
        <mxCell id="5tJ5e0qFEt_hm9HJa-Kv-286" value="" style="rounded=0;whiteSpace=wrap;html=1;movable=1;resizable=1;rotatable=1;deletable=1;editable=1;locked=0;connectable=1;fillColor=#fff2cc;strokeColor=#d6b656;" vertex="1" parent="5tJ5e0qFEt_hm9HJa-Kv-283">
          <mxGeometry width="10" height="10" as="geometry" />
        </mxCell>
        <mxCell id="5tJ5e0qFEt_hm9HJa-Kv-287" value="" style="rounded=0;whiteSpace=wrap;html=1;movable=1;resizable=1;rotatable=1;deletable=1;editable=1;locked=0;connectable=1;fillColor=#fff2cc;strokeColor=#d6b656;" vertex="1" parent="5tJ5e0qFEt_hm9HJa-Kv-283">
          <mxGeometry x="10" width="10" height="10" as="geometry" />
        </mxCell>
        <mxCell id="5tJ5e0qFEt_hm9HJa-Kv-288" value="" style="group;movable=1;resizable=1;rotatable=1;deletable=1;editable=1;locked=0;connectable=1;flipH=1;fillColor=#ffe6cc;strokeColor=#d79b00;" vertex="1" connectable="0" parent="1">
          <mxGeometry x="897" y="1098" width="40" height="10" as="geometry" />
        </mxCell>
        <mxCell id="5tJ5e0qFEt_hm9HJa-Kv-289" value="" style="rounded=0;whiteSpace=wrap;html=1;movable=1;resizable=1;rotatable=1;deletable=1;editable=1;locked=0;connectable=1;fillColor=#ffe6cc;strokeColor=#d79b00;" vertex="1" parent="5tJ5e0qFEt_hm9HJa-Kv-288">
          <mxGeometry x="30" width="10" height="10" as="geometry" />
        </mxCell>
        <mxCell id="5tJ5e0qFEt_hm9HJa-Kv-290" value="" style="rounded=0;whiteSpace=wrap;html=1;movable=1;resizable=1;rotatable=1;deletable=1;editable=1;locked=0;connectable=1;fillColor=#ffe6cc;strokeColor=#d79b00;" vertex="1" parent="5tJ5e0qFEt_hm9HJa-Kv-288">
          <mxGeometry x="20" width="10" height="10" as="geometry" />
        </mxCell>
        <mxCell id="5tJ5e0qFEt_hm9HJa-Kv-291" value="" style="rounded=0;whiteSpace=wrap;html=1;movable=1;resizable=1;rotatable=1;deletable=1;editable=1;locked=0;connectable=1;fillColor=#ffe6cc;strokeColor=#d79b00;" vertex="1" parent="5tJ5e0qFEt_hm9HJa-Kv-288">
          <mxGeometry width="10" height="10" as="geometry" />
        </mxCell>
        <mxCell id="5tJ5e0qFEt_hm9HJa-Kv-292" value="" style="rounded=0;whiteSpace=wrap;html=1;movable=1;resizable=1;rotatable=1;deletable=1;editable=1;locked=0;connectable=1;fillColor=#ffe6cc;strokeColor=#d79b00;" vertex="1" parent="5tJ5e0qFEt_hm9HJa-Kv-288">
          <mxGeometry x="10" width="10" height="10" as="geometry" />
        </mxCell>
        <mxCell id="5tJ5e0qFEt_hm9HJa-Kv-293" style="rounded=0;orthogonalLoop=1;jettySize=auto;html=1;exitX=0.5;exitY=1;exitDx=0;exitDy=0;entryX=0.5;entryY=0;entryDx=0;entryDy=0;" edge="1" parent="1" source="5tJ5e0qFEt_hm9HJa-Kv-294" target="5tJ5e0qFEt_hm9HJa-Kv-308">
          <mxGeometry relative="1" as="geometry" />
        </mxCell>
        <mxCell id="5tJ5e0qFEt_hm9HJa-Kv-294" value="" style="group;movable=1;resizable=1;rotatable=1;deletable=1;editable=1;locked=0;connectable=1;flipH=1;fillColor=#e3c800;strokeColor=#B09500;fontColor=#000000;" vertex="1" connectable="0" parent="1">
          <mxGeometry x="948" y="1098" width="40" height="10" as="geometry" />
        </mxCell>
        <mxCell id="5tJ5e0qFEt_hm9HJa-Kv-295" value="" style="rounded=0;whiteSpace=wrap;html=1;movable=1;resizable=1;rotatable=1;deletable=1;editable=1;locked=0;connectable=1;fillColor=#e3c800;strokeColor=#B09500;fontColor=#000000;" vertex="1" parent="5tJ5e0qFEt_hm9HJa-Kv-294">
          <mxGeometry x="30" width="10" height="10" as="geometry" />
        </mxCell>
        <mxCell id="5tJ5e0qFEt_hm9HJa-Kv-296" value="" style="rounded=0;whiteSpace=wrap;html=1;movable=1;resizable=1;rotatable=1;deletable=1;editable=1;locked=0;connectable=1;fillColor=#e3c800;strokeColor=#B09500;fontColor=#000000;" vertex="1" parent="5tJ5e0qFEt_hm9HJa-Kv-294">
          <mxGeometry x="20" width="10" height="10" as="geometry" />
        </mxCell>
        <mxCell id="5tJ5e0qFEt_hm9HJa-Kv-297" value="" style="rounded=0;whiteSpace=wrap;html=1;movable=1;resizable=1;rotatable=1;deletable=1;editable=1;locked=0;connectable=1;fillColor=#e3c800;strokeColor=#B09500;fontColor=#000000;" vertex="1" parent="5tJ5e0qFEt_hm9HJa-Kv-294">
          <mxGeometry width="10" height="10" as="geometry" />
        </mxCell>
        <mxCell id="5tJ5e0qFEt_hm9HJa-Kv-298" value="" style="rounded=0;whiteSpace=wrap;html=1;movable=1;resizable=1;rotatable=1;deletable=1;editable=1;locked=0;connectable=1;fillColor=#e3c800;strokeColor=#B09500;fontColor=#000000;" vertex="1" parent="5tJ5e0qFEt_hm9HJa-Kv-294">
          <mxGeometry x="10" width="10" height="10" as="geometry" />
        </mxCell>
        <mxCell id="5tJ5e0qFEt_hm9HJa-Kv-299" value="" style="ellipse;whiteSpace=wrap;html=1;aspect=fixed;fillColor=#d5e8d4;strokeColor=#82b366;" vertex="1" parent="1">
          <mxGeometry x="709" y="1047" width="16" height="16" as="geometry" />
        </mxCell>
        <mxCell id="5tJ5e0qFEt_hm9HJa-Kv-300" value="" style="ellipse;whiteSpace=wrap;html=1;aspect=fixed;fillColor=#e1d5e7;strokeColor=#9673a6;" vertex="1" parent="1">
          <mxGeometry x="759" y="1047" width="16" height="16" as="geometry" />
        </mxCell>
        <mxCell id="5tJ5e0qFEt_hm9HJa-Kv-301" value="" style="ellipse;whiteSpace=wrap;html=1;aspect=fixed;fillColor=#f8cecc;strokeColor=#b85450;" vertex="1" parent="1">
          <mxGeometry x="809" y="1047" width="16" height="16" as="geometry" />
        </mxCell>
        <mxCell id="5tJ5e0qFEt_hm9HJa-Kv-302" value="" style="ellipse;whiteSpace=wrap;html=1;aspect=fixed;fillColor=#fff2cc;strokeColor=#d6b656;" vertex="1" parent="1">
          <mxGeometry x="859" y="1047" width="16" height="16" as="geometry" />
        </mxCell>
        <mxCell id="5tJ5e0qFEt_hm9HJa-Kv-303" value="" style="ellipse;whiteSpace=wrap;html=1;aspect=fixed;fillColor=#ffe6cc;strokeColor=#d79b00;" vertex="1" parent="1">
          <mxGeometry x="910" y="1047" width="16" height="16" as="geometry" />
        </mxCell>
        <mxCell id="5tJ5e0qFEt_hm9HJa-Kv-304" value="" style="ellipse;whiteSpace=wrap;html=1;aspect=fixed;fillColor=#e3c800;fontColor=#000000;strokeColor=#B09500;" vertex="1" parent="1">
          <mxGeometry x="959" y="1047" width="16" height="16" as="geometry" />
        </mxCell>
        <mxCell id="5tJ5e0qFEt_hm9HJa-Kv-305" value="" style="rounded=0;whiteSpace=wrap;html=1;fillColor=#fff2cc;strokeColor=#d6b656;" vertex="1" parent="1">
          <mxGeometry x="715.5" y="1163" width="40" height="10" as="geometry" />
        </mxCell>
        <mxCell id="5tJ5e0qFEt_hm9HJa-Kv-306" value="" style="rounded=0;whiteSpace=wrap;html=1;fillColor=#d5e8d4;strokeColor=#82b366;" vertex="1" parent="1">
          <mxGeometry x="755.5" y="1163" width="40" height="10" as="geometry" />
        </mxCell>
        <mxCell id="5tJ5e0qFEt_hm9HJa-Kv-386" style="edgeStyle=none;rounded=0;orthogonalLoop=1;jettySize=auto;html=1;exitX=0.5;exitY=1;exitDx=0;exitDy=0;entryX=0.5;entryY=0;entryDx=0;entryDy=0;" edge="1" parent="1" source="5tJ5e0qFEt_hm9HJa-Kv-307" target="F06jq8IFjxAQC7QXPxzw-17">
          <mxGeometry relative="1" as="geometry" />
        </mxCell>
        <mxCell id="5tJ5e0qFEt_hm9HJa-Kv-307" value="" style="rounded=0;whiteSpace=wrap;html=1;fillColor=#dae8fc;strokeColor=#6c8ebf;" vertex="1" parent="1">
          <mxGeometry x="795.5" y="1163" width="40" height="10" as="geometry" />
        </mxCell>
        <mxCell id="5tJ5e0qFEt_hm9HJa-Kv-308" value="" style="rounded=0;whiteSpace=wrap;html=1;fillColor=#e3c800;fontColor=#000000;strokeColor=#B09500;" vertex="1" parent="1">
          <mxGeometry x="835.5" y="1163" width="40" height="10" as="geometry" />
        </mxCell>
        <mxCell id="5tJ5e0qFEt_hm9HJa-Kv-309" value="" style="rounded=0;whiteSpace=wrap;html=1;fillColor=#e1d5e7;strokeColor=#9673a6;" vertex="1" parent="1">
          <mxGeometry x="875.5" y="1163" width="40" height="10" as="geometry" />
        </mxCell>
        <mxCell id="5tJ5e0qFEt_hm9HJa-Kv-310" value="" style="rounded=0;whiteSpace=wrap;html=1;fillColor=#f8cecc;strokeColor=#b85450;" vertex="1" parent="1">
          <mxGeometry x="915.5" y="1163" width="40" height="10" as="geometry" />
        </mxCell>
        <mxCell id="5tJ5e0qFEt_hm9HJa-Kv-366" style="rounded=0;orthogonalLoop=1;jettySize=auto;html=1;entryX=0.5;entryY=0;entryDx=0;entryDy=0;" edge="1" parent="1" target="5tJ5e0qFEt_hm9HJa-Kv-263">
          <mxGeometry relative="1" as="geometry">
            <mxPoint x="922" y="1109" as="sourcePoint" />
          </mxGeometry>
        </mxCell>
        <mxCell id="5tJ5e0qFEt_hm9HJa-Kv-367" value="Field 1" style="text;html=1;strokeColor=none;fillColor=none;align=center;verticalAlign=middle;whiteSpace=wrap;rounded=0;fontStyle=0" vertex="1" parent="1">
          <mxGeometry x="636" y="1016" width="63" height="20" as="geometry" />
        </mxCell>
        <mxCell id="5tJ5e0qFEt_hm9HJa-Kv-369" value="Field 2" style="text;html=1;strokeColor=none;fillColor=none;align=center;verticalAlign=middle;whiteSpace=wrap;rounded=0;fontStyle=0" vertex="1" parent="1">
          <mxGeometry x="686" y="1016" width="63" height="20" as="geometry" />
        </mxCell>
        <mxCell id="5tJ5e0qFEt_hm9HJa-Kv-370" value="Field 3" style="text;html=1;strokeColor=none;fillColor=none;align=center;verticalAlign=middle;whiteSpace=wrap;rounded=0;fontStyle=0" vertex="1" parent="1">
          <mxGeometry x="737" y="1016" width="63" height="20" as="geometry" />
        </mxCell>
        <mxCell id="5tJ5e0qFEt_hm9HJa-Kv-371" value="Field n-2" style="text;html=1;strokeColor=none;fillColor=none;align=center;verticalAlign=middle;whiteSpace=wrap;rounded=0;fontStyle=0" vertex="1" parent="1">
          <mxGeometry x="837" y="1016" width="63" height="20" as="geometry" />
        </mxCell>
        <mxCell id="5tJ5e0qFEt_hm9HJa-Kv-372" value="Field n-1" style="text;html=1;strokeColor=none;fillColor=none;align=center;verticalAlign=middle;whiteSpace=wrap;rounded=0;fontStyle=0" vertex="1" parent="1">
          <mxGeometry x="891" y="1016" width="63" height="20" as="geometry" />
        </mxCell>
        <mxCell id="5tJ5e0qFEt_hm9HJa-Kv-373" value="Field n" style="text;html=1;strokeColor=none;fillColor=none;align=center;verticalAlign=middle;whiteSpace=wrap;rounded=0;fontStyle=0" vertex="1" parent="1">
          <mxGeometry x="939" y="1016" width="63" height="20" as="geometry" />
        </mxCell>
        <mxCell id="5tJ5e0qFEt_hm9HJa-Kv-374" value="......" style="text;html=1;strokeColor=none;fillColor=none;align=center;verticalAlign=middle;whiteSpace=wrap;rounded=0;fontStyle=0" vertex="1" parent="1">
          <mxGeometry x="784" y="1014" width="63" height="20" as="geometry" />
        </mxCell>
        <mxCell id="5tJ5e0qFEt_hm9HJa-Kv-379" value="OutPut" style="rounded=0;whiteSpace=wrap;html=1;fillColor=#f9f7ed;strokeColor=#36393d;sketch=1;curveFitting=1;jiggle=2;" vertex="1" parent="1">
          <mxGeometry x="775" y="1349" width="80" height="20" as="geometry" />
        </mxCell>
        <mxCell id="5tJ5e0qFEt_hm9HJa-Kv-380" style="edgeStyle=none;rounded=0;orthogonalLoop=1;jettySize=auto;html=1;exitX=0.5;exitY=0;exitDx=0;exitDy=0;fillColor=#f9f7ed;strokeColor=#36393d;" edge="1" parent="1" source="F06jq8IFjxAQC7QXPxzw-32" target="F06jq8IFjxAQC7QXPxzw-32">
          <mxGeometry relative="1" as="geometry" />
        </mxCell>
        <mxCell id="5tJ5e0qFEt_hm9HJa-Kv-462" value="" style="rounded=0;whiteSpace=wrap;html=1;dashed=1;" vertex="1" parent="1">
          <mxGeometry x="1152" y="1212" width="300" height="170" as="geometry" />
        </mxCell>
        <mxCell id="5tJ5e0qFEt_hm9HJa-Kv-463" value="" style="rounded=0;whiteSpace=wrap;html=1;dashed=1;" vertex="1" parent="1">
          <mxGeometry x="1131" y="1148" width="340" height="40" as="geometry" />
        </mxCell>
        <mxCell id="5tJ5e0qFEt_hm9HJa-Kv-464" value="" style="rounded=0;whiteSpace=wrap;html=1;dashed=1;" vertex="1" parent="1">
          <mxGeometry x="1110" y="1082" width="381" height="40" as="geometry" />
        </mxCell>
        <mxCell id="5tJ5e0qFEt_hm9HJa-Kv-465" style="edgeStyle=none;rounded=0;orthogonalLoop=1;jettySize=auto;html=1;exitX=0.5;exitY=1;exitDx=0;exitDy=0;entryX=0.5;entryY=0;entryDx=0;entryDy=0;fillColor=#f9f7ed;strokeColor=#36393d;" edge="1" parent="1" source="5tJ5e0qFEt_hm9HJa-Kv-466" target="5tJ5e0qFEt_hm9HJa-Kv-468">
          <mxGeometry relative="1" as="geometry" />
        </mxCell>
        <mxCell id="5tJ5e0qFEt_hm9HJa-Kv-466" value="FC 3" style="rounded=0;whiteSpace=wrap;html=1;fillColor=#f9f7ed;strokeColor=#36393d;sketch=1;curveFitting=1;jiggle=2;" vertex="1" parent="1">
          <mxGeometry x="1177" y="1228" width="240" height="19" as="geometry" />
        </mxCell>
        <mxCell id="5tJ5e0qFEt_hm9HJa-Kv-467" style="edgeStyle=none;rounded=0;orthogonalLoop=1;jettySize=auto;html=1;exitX=0.5;exitY=1;exitDx=0;exitDy=0;entryX=0.5;entryY=0;entryDx=0;entryDy=0;fillColor=#f9f7ed;strokeColor=#36393d;" edge="1" parent="1" source="5tJ5e0qFEt_hm9HJa-Kv-468" target="5tJ5e0qFEt_hm9HJa-Kv-470">
          <mxGeometry relative="1" as="geometry" />
        </mxCell>
        <mxCell id="5tJ5e0qFEt_hm9HJa-Kv-468" value="FC 2" style="rounded=0;whiteSpace=wrap;html=1;fillColor=#f9f7ed;strokeColor=#36393d;sketch=1;curveFitting=1;jiggle=2;" vertex="1" parent="1">
          <mxGeometry x="1207" y="1268" width="180.5" height="20" as="geometry" />
        </mxCell>
        <mxCell id="5tJ5e0qFEt_hm9HJa-Kv-469" style="edgeStyle=none;rounded=0;orthogonalLoop=1;jettySize=auto;html=1;exitX=0.5;exitY=1;exitDx=0;exitDy=0;fillColor=#f9f7ed;strokeColor=#36393d;" edge="1" parent="1" source="5tJ5e0qFEt_hm9HJa-Kv-470" target="5tJ5e0qFEt_hm9HJa-Kv-535">
          <mxGeometry relative="1" as="geometry" />
        </mxCell>
        <mxCell id="5tJ5e0qFEt_hm9HJa-Kv-470" value="Softmax" style="rounded=0;whiteSpace=wrap;html=1;fillColor=#f9f7ed;strokeColor=#36393d;sketch=1;curveFitting=1;jiggle=2;" vertex="1" parent="1">
          <mxGeometry x="1232" y="1308" width="130" height="20" as="geometry" />
        </mxCell>
        <mxCell id="5tJ5e0qFEt_hm9HJa-Kv-471" value="" style="ellipse;whiteSpace=wrap;html=1;aspect=fixed;fillColor=#dae8fc;strokeColor=#6c8ebf;" vertex="1" parent="1">
          <mxGeometry x="1139" y="1047" width="16" height="16" as="geometry" />
        </mxCell>
        <mxCell id="5tJ5e0qFEt_hm9HJa-Kv-473" value="" style="group;movable=1;resizable=1;rotatable=1;deletable=1;editable=1;locked=0;connectable=1;flipH=1;fillColor=#dae8fc;strokeColor=#6c8ebf;" vertex="1" connectable="0" parent="1">
          <mxGeometry x="1128" y="1098" width="40" height="10" as="geometry" />
        </mxCell>
        <mxCell id="5tJ5e0qFEt_hm9HJa-Kv-474" value="" style="rounded=0;whiteSpace=wrap;html=1;movable=1;resizable=1;rotatable=1;deletable=1;editable=1;locked=0;connectable=1;fillColor=#dae8fc;strokeColor=#6c8ebf;" vertex="1" parent="5tJ5e0qFEt_hm9HJa-Kv-473">
          <mxGeometry x="30" width="10" height="10" as="geometry" />
        </mxCell>
        <mxCell id="5tJ5e0qFEt_hm9HJa-Kv-475" value="" style="rounded=0;whiteSpace=wrap;html=1;movable=1;resizable=1;rotatable=1;deletable=1;editable=1;locked=0;connectable=1;fillColor=#dae8fc;strokeColor=#6c8ebf;" vertex="1" parent="5tJ5e0qFEt_hm9HJa-Kv-473">
          <mxGeometry x="20" width="10" height="10" as="geometry" />
        </mxCell>
        <mxCell id="5tJ5e0qFEt_hm9HJa-Kv-476" value="" style="rounded=0;whiteSpace=wrap;html=1;movable=1;resizable=1;rotatable=1;deletable=1;editable=1;locked=0;connectable=1;fillColor=#dae8fc;strokeColor=#6c8ebf;" vertex="1" parent="5tJ5e0qFEt_hm9HJa-Kv-473">
          <mxGeometry width="10" height="10" as="geometry" />
        </mxCell>
        <mxCell id="5tJ5e0qFEt_hm9HJa-Kv-477" value="" style="rounded=0;whiteSpace=wrap;html=1;movable=1;resizable=1;rotatable=1;deletable=1;editable=1;locked=0;connectable=1;fillColor=#dae8fc;strokeColor=#6c8ebf;" vertex="1" parent="5tJ5e0qFEt_hm9HJa-Kv-473">
          <mxGeometry x="10" width="10" height="10" as="geometry" />
        </mxCell>
        <mxCell id="5tJ5e0qFEt_hm9HJa-Kv-478" value="" style="rounded=0;whiteSpace=wrap;html=1;fillColor=#cce5ff;strokeColor=#36393d;" vertex="1" parent="1">
          <mxGeometry x="1156.5" y="1163" width="40" height="10" as="geometry" />
        </mxCell>
        <mxCell id="5tJ5e0qFEt_hm9HJa-Kv-480" value="" style="group;movable=1;resizable=1;rotatable=1;deletable=1;editable=1;locked=0;connectable=1;flipH=1;fillColor=#d5e8d4;strokeColor=#82b366;" vertex="1" connectable="0" parent="1">
          <mxGeometry x="1179" y="1098" width="40" height="10" as="geometry" />
        </mxCell>
        <mxCell id="5tJ5e0qFEt_hm9HJa-Kv-481" value="" style="rounded=0;whiteSpace=wrap;html=1;movable=1;resizable=1;rotatable=1;deletable=1;editable=1;locked=0;connectable=1;fillColor=#d5e8d4;strokeColor=#82b366;" vertex="1" parent="5tJ5e0qFEt_hm9HJa-Kv-480">
          <mxGeometry x="30" width="10" height="10" as="geometry" />
        </mxCell>
        <mxCell id="5tJ5e0qFEt_hm9HJa-Kv-482" value="" style="rounded=0;whiteSpace=wrap;html=1;movable=1;resizable=1;rotatable=1;deletable=1;editable=1;locked=0;connectable=1;fillColor=#d5e8d4;strokeColor=#82b366;" vertex="1" parent="5tJ5e0qFEt_hm9HJa-Kv-480">
          <mxGeometry x="20" width="10" height="10" as="geometry" />
        </mxCell>
        <mxCell id="5tJ5e0qFEt_hm9HJa-Kv-483" value="" style="rounded=0;whiteSpace=wrap;html=1;movable=1;resizable=1;rotatable=1;deletable=1;editable=1;locked=0;connectable=1;fillColor=#d5e8d4;strokeColor=#82b366;" vertex="1" parent="5tJ5e0qFEt_hm9HJa-Kv-480">
          <mxGeometry width="10" height="10" as="geometry" />
        </mxCell>
        <mxCell id="5tJ5e0qFEt_hm9HJa-Kv-484" value="" style="rounded=0;whiteSpace=wrap;html=1;movable=1;resizable=1;rotatable=1;deletable=1;editable=1;locked=0;connectable=1;fillColor=#d5e8d4;strokeColor=#82b366;" vertex="1" parent="5tJ5e0qFEt_hm9HJa-Kv-480">
          <mxGeometry x="10" width="10" height="10" as="geometry" />
        </mxCell>
        <mxCell id="5tJ5e0qFEt_hm9HJa-Kv-486" value="" style="group;movable=1;resizable=1;rotatable=1;deletable=1;editable=1;locked=0;connectable=1;flipH=1;fillColor=#e1d5e7;strokeColor=#9673a6;" vertex="1" connectable="0" parent="1">
          <mxGeometry x="1229" y="1098" width="40" height="10" as="geometry" />
        </mxCell>
        <mxCell id="5tJ5e0qFEt_hm9HJa-Kv-487" value="" style="rounded=0;whiteSpace=wrap;html=1;movable=1;resizable=1;rotatable=1;deletable=1;editable=1;locked=0;connectable=1;fillColor=#e1d5e7;strokeColor=#9673a6;" vertex="1" parent="5tJ5e0qFEt_hm9HJa-Kv-486">
          <mxGeometry x="30" width="10" height="10" as="geometry" />
        </mxCell>
        <mxCell id="5tJ5e0qFEt_hm9HJa-Kv-488" value="" style="rounded=0;whiteSpace=wrap;html=1;movable=1;resizable=1;rotatable=1;deletable=1;editable=1;locked=0;connectable=1;fillColor=#e1d5e7;strokeColor=#9673a6;" vertex="1" parent="5tJ5e0qFEt_hm9HJa-Kv-486">
          <mxGeometry x="20" width="10" height="10" as="geometry" />
        </mxCell>
        <mxCell id="5tJ5e0qFEt_hm9HJa-Kv-489" value="" style="rounded=0;whiteSpace=wrap;html=1;movable=1;resizable=1;rotatable=1;deletable=1;editable=1;locked=0;connectable=1;fillColor=#e1d5e7;strokeColor=#9673a6;" vertex="1" parent="5tJ5e0qFEt_hm9HJa-Kv-486">
          <mxGeometry width="10" height="10" as="geometry" />
        </mxCell>
        <mxCell id="5tJ5e0qFEt_hm9HJa-Kv-490" value="" style="rounded=0;whiteSpace=wrap;html=1;movable=1;resizable=1;rotatable=1;deletable=1;editable=1;locked=0;connectable=1;fillColor=#e1d5e7;strokeColor=#9673a6;" vertex="1" parent="5tJ5e0qFEt_hm9HJa-Kv-486">
          <mxGeometry x="10" width="10" height="10" as="geometry" />
        </mxCell>
        <mxCell id="5tJ5e0qFEt_hm9HJa-Kv-492" value="" style="group;movable=1;resizable=1;rotatable=1;deletable=1;editable=1;locked=0;connectable=1;flipH=1;fillColor=#f8cecc;strokeColor=#b85450;" vertex="1" connectable="0" parent="1">
          <mxGeometry x="1279" y="1098" width="40" height="10" as="geometry" />
        </mxCell>
        <mxCell id="5tJ5e0qFEt_hm9HJa-Kv-493" value="" style="rounded=0;whiteSpace=wrap;html=1;movable=1;resizable=1;rotatable=1;deletable=1;editable=1;locked=0;connectable=1;fillColor=#f8cecc;strokeColor=#b85450;" vertex="1" parent="5tJ5e0qFEt_hm9HJa-Kv-492">
          <mxGeometry x="30" width="10" height="10" as="geometry" />
        </mxCell>
        <mxCell id="5tJ5e0qFEt_hm9HJa-Kv-494" value="" style="rounded=0;whiteSpace=wrap;html=1;movable=1;resizable=1;rotatable=1;deletable=1;editable=1;locked=0;connectable=1;fillColor=#f8cecc;strokeColor=#b85450;" vertex="1" parent="5tJ5e0qFEt_hm9HJa-Kv-492">
          <mxGeometry x="20" width="10" height="10" as="geometry" />
        </mxCell>
        <mxCell id="5tJ5e0qFEt_hm9HJa-Kv-495" value="" style="rounded=0;whiteSpace=wrap;html=1;movable=1;resizable=1;rotatable=1;deletable=1;editable=1;locked=0;connectable=1;fillColor=#f8cecc;strokeColor=#b85450;" vertex="1" parent="5tJ5e0qFEt_hm9HJa-Kv-492">
          <mxGeometry width="10" height="10" as="geometry" />
        </mxCell>
        <mxCell id="5tJ5e0qFEt_hm9HJa-Kv-496" value="" style="rounded=0;whiteSpace=wrap;html=1;movable=1;resizable=1;rotatable=1;deletable=1;editable=1;locked=0;connectable=1;fillColor=#f8cecc;strokeColor=#b85450;" vertex="1" parent="5tJ5e0qFEt_hm9HJa-Kv-492">
          <mxGeometry x="10" width="10" height="10" as="geometry" />
        </mxCell>
        <mxCell id="5tJ5e0qFEt_hm9HJa-Kv-498" value="" style="group;movable=1;resizable=1;rotatable=1;deletable=1;editable=1;locked=0;connectable=1;flipH=1;fillColor=#fff2cc;strokeColor=#d6b656;" vertex="1" connectable="0" parent="1">
          <mxGeometry x="1329" y="1098" width="40" height="10" as="geometry" />
        </mxCell>
        <mxCell id="5tJ5e0qFEt_hm9HJa-Kv-499" value="" style="rounded=0;whiteSpace=wrap;html=1;movable=1;resizable=1;rotatable=1;deletable=1;editable=1;locked=0;connectable=1;fillColor=#fff2cc;strokeColor=#d6b656;" vertex="1" parent="5tJ5e0qFEt_hm9HJa-Kv-498">
          <mxGeometry x="30" width="10" height="10" as="geometry" />
        </mxCell>
        <mxCell id="5tJ5e0qFEt_hm9HJa-Kv-500" value="" style="rounded=0;whiteSpace=wrap;html=1;movable=1;resizable=1;rotatable=1;deletable=1;editable=1;locked=0;connectable=1;fillColor=#fff2cc;strokeColor=#d6b656;" vertex="1" parent="5tJ5e0qFEt_hm9HJa-Kv-498">
          <mxGeometry x="20" width="10" height="10" as="geometry" />
        </mxCell>
        <mxCell id="5tJ5e0qFEt_hm9HJa-Kv-501" value="" style="rounded=0;whiteSpace=wrap;html=1;movable=1;resizable=1;rotatable=1;deletable=1;editable=1;locked=0;connectable=1;fillColor=#fff2cc;strokeColor=#d6b656;" vertex="1" parent="5tJ5e0qFEt_hm9HJa-Kv-498">
          <mxGeometry width="10" height="10" as="geometry" />
        </mxCell>
        <mxCell id="5tJ5e0qFEt_hm9HJa-Kv-502" value="" style="rounded=0;whiteSpace=wrap;html=1;movable=1;resizable=1;rotatable=1;deletable=1;editable=1;locked=0;connectable=1;fillColor=#fff2cc;strokeColor=#d6b656;" vertex="1" parent="5tJ5e0qFEt_hm9HJa-Kv-498">
          <mxGeometry x="10" width="10" height="10" as="geometry" />
        </mxCell>
        <mxCell id="5tJ5e0qFEt_hm9HJa-Kv-503" value="" style="group;movable=1;resizable=1;rotatable=1;deletable=1;editable=1;locked=0;connectable=1;flipH=1;fillColor=#ffe6cc;strokeColor=#d79b00;" vertex="1" connectable="0" parent="1">
          <mxGeometry x="1378" y="1098" width="40" height="10" as="geometry" />
        </mxCell>
        <mxCell id="5tJ5e0qFEt_hm9HJa-Kv-504" value="" style="rounded=0;whiteSpace=wrap;html=1;movable=1;resizable=1;rotatable=1;deletable=1;editable=1;locked=0;connectable=1;fillColor=#ffe6cc;strokeColor=#d79b00;" vertex="1" parent="5tJ5e0qFEt_hm9HJa-Kv-503">
          <mxGeometry x="30" width="10" height="10" as="geometry" />
        </mxCell>
        <mxCell id="5tJ5e0qFEt_hm9HJa-Kv-505" value="" style="rounded=0;whiteSpace=wrap;html=1;movable=1;resizable=1;rotatable=1;deletable=1;editable=1;locked=0;connectable=1;fillColor=#ffe6cc;strokeColor=#d79b00;" vertex="1" parent="5tJ5e0qFEt_hm9HJa-Kv-503">
          <mxGeometry x="20" width="10" height="10" as="geometry" />
        </mxCell>
        <mxCell id="5tJ5e0qFEt_hm9HJa-Kv-506" value="" style="rounded=0;whiteSpace=wrap;html=1;movable=1;resizable=1;rotatable=1;deletable=1;editable=1;locked=0;connectable=1;fillColor=#ffe6cc;strokeColor=#d79b00;" vertex="1" parent="5tJ5e0qFEt_hm9HJa-Kv-503">
          <mxGeometry width="10" height="10" as="geometry" />
        </mxCell>
        <mxCell id="5tJ5e0qFEt_hm9HJa-Kv-507" value="" style="rounded=0;whiteSpace=wrap;html=1;movable=1;resizable=1;rotatable=1;deletable=1;editable=1;locked=0;connectable=1;fillColor=#ffe6cc;strokeColor=#d79b00;" vertex="1" parent="5tJ5e0qFEt_hm9HJa-Kv-503">
          <mxGeometry x="10" width="10" height="10" as="geometry" />
        </mxCell>
        <mxCell id="5tJ5e0qFEt_hm9HJa-Kv-509" value="" style="group;movable=1;resizable=1;rotatable=1;deletable=1;editable=1;locked=0;connectable=1;flipH=1;fillColor=#e3c800;strokeColor=#B09500;fontColor=#000000;" vertex="1" connectable="0" parent="1">
          <mxGeometry x="1429" y="1098" width="40" height="10" as="geometry" />
        </mxCell>
        <mxCell id="5tJ5e0qFEt_hm9HJa-Kv-510" value="" style="rounded=0;whiteSpace=wrap;html=1;movable=1;resizable=1;rotatable=1;deletable=1;editable=1;locked=0;connectable=1;fillColor=#e3c800;strokeColor=#B09500;fontColor=#000000;" vertex="1" parent="5tJ5e0qFEt_hm9HJa-Kv-509">
          <mxGeometry x="30" width="10" height="10" as="geometry" />
        </mxCell>
        <mxCell id="5tJ5e0qFEt_hm9HJa-Kv-511" value="" style="rounded=0;whiteSpace=wrap;html=1;movable=1;resizable=1;rotatable=1;deletable=1;editable=1;locked=0;connectable=1;fillColor=#e3c800;strokeColor=#B09500;fontColor=#000000;" vertex="1" parent="5tJ5e0qFEt_hm9HJa-Kv-509">
          <mxGeometry x="20" width="10" height="10" as="geometry" />
        </mxCell>
        <mxCell id="5tJ5e0qFEt_hm9HJa-Kv-512" value="" style="rounded=0;whiteSpace=wrap;html=1;movable=1;resizable=1;rotatable=1;deletable=1;editable=1;locked=0;connectable=1;fillColor=#e3c800;strokeColor=#B09500;fontColor=#000000;" vertex="1" parent="5tJ5e0qFEt_hm9HJa-Kv-509">
          <mxGeometry width="10" height="10" as="geometry" />
        </mxCell>
        <mxCell id="5tJ5e0qFEt_hm9HJa-Kv-513" value="" style="rounded=0;whiteSpace=wrap;html=1;movable=1;resizable=1;rotatable=1;deletable=1;editable=1;locked=0;connectable=1;fillColor=#e3c800;strokeColor=#B09500;fontColor=#000000;" vertex="1" parent="5tJ5e0qFEt_hm9HJa-Kv-509">
          <mxGeometry x="10" width="10" height="10" as="geometry" />
        </mxCell>
        <mxCell id="5tJ5e0qFEt_hm9HJa-Kv-514" value="" style="ellipse;whiteSpace=wrap;html=1;aspect=fixed;fillColor=#d5e8d4;strokeColor=#82b366;" vertex="1" parent="1">
          <mxGeometry x="1190" y="1047" width="16" height="16" as="geometry" />
        </mxCell>
        <mxCell id="5tJ5e0qFEt_hm9HJa-Kv-515" value="" style="ellipse;whiteSpace=wrap;html=1;aspect=fixed;fillColor=#e1d5e7;strokeColor=#9673a6;" vertex="1" parent="1">
          <mxGeometry x="1240" y="1047" width="16" height="16" as="geometry" />
        </mxCell>
        <mxCell id="5tJ5e0qFEt_hm9HJa-Kv-516" value="" style="ellipse;whiteSpace=wrap;html=1;aspect=fixed;fillColor=#f8cecc;strokeColor=#b85450;" vertex="1" parent="1">
          <mxGeometry x="1290" y="1047" width="16" height="16" as="geometry" />
        </mxCell>
        <mxCell id="5tJ5e0qFEt_hm9HJa-Kv-517" value="" style="ellipse;whiteSpace=wrap;html=1;aspect=fixed;fillColor=#fff2cc;strokeColor=#d6b656;" vertex="1" parent="1">
          <mxGeometry x="1340" y="1047" width="16" height="16" as="geometry" />
        </mxCell>
        <mxCell id="5tJ5e0qFEt_hm9HJa-Kv-518" value="" style="ellipse;whiteSpace=wrap;html=1;aspect=fixed;fillColor=#ffe6cc;strokeColor=#d79b00;" vertex="1" parent="1">
          <mxGeometry x="1391" y="1047" width="16" height="16" as="geometry" />
        </mxCell>
        <mxCell id="5tJ5e0qFEt_hm9HJa-Kv-519" value="" style="ellipse;whiteSpace=wrap;html=1;aspect=fixed;fillColor=#e3c800;fontColor=#000000;strokeColor=#B09500;" vertex="1" parent="1">
          <mxGeometry x="1440" y="1047" width="16" height="16" as="geometry" />
        </mxCell>
        <mxCell id="5tJ5e0qFEt_hm9HJa-Kv-520" value="" style="rounded=0;whiteSpace=wrap;html=1;fillColor=#d5e8d4;strokeColor=#82b366;" vertex="1" parent="1">
          <mxGeometry x="1196.5" y="1163" width="40" height="10" as="geometry" />
        </mxCell>
        <mxCell id="5tJ5e0qFEt_hm9HJa-Kv-521" value="" style="rounded=0;whiteSpace=wrap;html=1;fillColor=#e1d5e7;strokeColor=#9673a6;" vertex="1" parent="1">
          <mxGeometry x="1236.5" y="1163" width="40" height="10" as="geometry" />
        </mxCell>
        <mxCell id="5tJ5e0qFEt_hm9HJa-Kv-522" style="edgeStyle=none;rounded=0;orthogonalLoop=1;jettySize=auto;html=1;exitX=0.5;exitY=1;exitDx=0;exitDy=0;entryX=0.5;entryY=0;entryDx=0;entryDy=0;" edge="1" parent="1" source="5tJ5e0qFEt_hm9HJa-Kv-523" target="5tJ5e0qFEt_hm9HJa-Kv-466">
          <mxGeometry relative="1" as="geometry" />
        </mxCell>
        <mxCell id="5tJ5e0qFEt_hm9HJa-Kv-523" value="" style="rounded=0;whiteSpace=wrap;html=1;fillColor=#f8cecc;strokeColor=#b85450;" vertex="1" parent="1">
          <mxGeometry x="1276.5" y="1163" width="40" height="10" as="geometry" />
        </mxCell>
        <mxCell id="5tJ5e0qFEt_hm9HJa-Kv-524" value="" style="rounded=0;whiteSpace=wrap;html=1;fillColor=#fff2cc;strokeColor=#d6b656;" vertex="1" parent="1">
          <mxGeometry x="1316.5" y="1163" width="40" height="10" as="geometry" />
        </mxCell>
        <mxCell id="5tJ5e0qFEt_hm9HJa-Kv-525" value="" style="rounded=0;whiteSpace=wrap;html=1;fillColor=#ffe6cc;strokeColor=#d79b00;" vertex="1" parent="1">
          <mxGeometry x="1356.5" y="1163" width="40" height="10" as="geometry" />
        </mxCell>
        <mxCell id="5tJ5e0qFEt_hm9HJa-Kv-526" value="" style="rounded=0;whiteSpace=wrap;html=1;fillColor=#e3c800;strokeColor=#B09500;fontColor=#000000;" vertex="1" parent="1">
          <mxGeometry x="1396.5" y="1163" width="40" height="10" as="geometry" />
        </mxCell>
        <mxCell id="5tJ5e0qFEt_hm9HJa-Kv-528" value="Field 1" style="text;html=1;strokeColor=none;fillColor=none;align=center;verticalAlign=middle;whiteSpace=wrap;rounded=0;fontStyle=0" vertex="1" parent="1">
          <mxGeometry x="1117" y="1016" width="63" height="20" as="geometry" />
        </mxCell>
        <mxCell id="5tJ5e0qFEt_hm9HJa-Kv-529" value="Field 2" style="text;html=1;strokeColor=none;fillColor=none;align=center;verticalAlign=middle;whiteSpace=wrap;rounded=0;fontStyle=0" vertex="1" parent="1">
          <mxGeometry x="1167" y="1016" width="63" height="20" as="geometry" />
        </mxCell>
        <mxCell id="5tJ5e0qFEt_hm9HJa-Kv-530" value="Field 3" style="text;html=1;strokeColor=none;fillColor=none;align=center;verticalAlign=middle;whiteSpace=wrap;rounded=0;fontStyle=0" vertex="1" parent="1">
          <mxGeometry x="1218" y="1016" width="63" height="20" as="geometry" />
        </mxCell>
        <mxCell id="5tJ5e0qFEt_hm9HJa-Kv-531" value="Field n-2" style="text;html=1;strokeColor=none;fillColor=none;align=center;verticalAlign=middle;whiteSpace=wrap;rounded=0;fontStyle=0" vertex="1" parent="1">
          <mxGeometry x="1318" y="1016" width="63" height="20" as="geometry" />
        </mxCell>
        <mxCell id="5tJ5e0qFEt_hm9HJa-Kv-532" value="Field n-1" style="text;html=1;strokeColor=none;fillColor=none;align=center;verticalAlign=middle;whiteSpace=wrap;rounded=0;fontStyle=0" vertex="1" parent="1">
          <mxGeometry x="1372" y="1016" width="63" height="20" as="geometry" />
        </mxCell>
        <mxCell id="5tJ5e0qFEt_hm9HJa-Kv-533" value="Field n" style="text;html=1;strokeColor=none;fillColor=none;align=center;verticalAlign=middle;whiteSpace=wrap;rounded=0;fontStyle=0" vertex="1" parent="1">
          <mxGeometry x="1420" y="1016" width="63" height="20" as="geometry" />
        </mxCell>
        <mxCell id="5tJ5e0qFEt_hm9HJa-Kv-534" value="......" style="text;html=1;strokeColor=none;fillColor=none;align=center;verticalAlign=middle;whiteSpace=wrap;rounded=0;fontStyle=0" vertex="1" parent="1">
          <mxGeometry x="1265" y="1014" width="63" height="20" as="geometry" />
        </mxCell>
        <mxCell id="5tJ5e0qFEt_hm9HJa-Kv-535" value="OutPut" style="rounded=0;whiteSpace=wrap;html=1;fillColor=#f9f7ed;strokeColor=#36393d;sketch=1;curveFitting=1;jiggle=2;" vertex="1" parent="1">
          <mxGeometry x="1257" y="1349" width="80" height="20" as="geometry" />
        </mxCell>
        <mxCell id="5tJ5e0qFEt_hm9HJa-Kv-536" style="edgeStyle=none;rounded=0;orthogonalLoop=1;jettySize=auto;html=1;exitX=0.5;exitY=0;exitDx=0;exitDy=0;fillColor=#f9f7ed;strokeColor=#36393d;" edge="1" parent="1" source="5tJ5e0qFEt_hm9HJa-Kv-470" target="5tJ5e0qFEt_hm9HJa-Kv-470">
          <mxGeometry relative="1" as="geometry" />
        </mxCell>
        <mxCell id="5tJ5e0qFEt_hm9HJa-Kv-538" style="edgeStyle=none;rounded=0;orthogonalLoop=1;jettySize=auto;html=1;exitX=1;exitY=0.75;exitDx=0;exitDy=0;entryX=0.5;entryY=0;entryDx=0;entryDy=0;" edge="1" parent="1" source="5tJ5e0qFEt_hm9HJa-Kv-477" target="5tJ5e0qFEt_hm9HJa-Kv-478">
          <mxGeometry relative="1" as="geometry" />
        </mxCell>
        <mxCell id="5tJ5e0qFEt_hm9HJa-Kv-539" style="edgeStyle=none;rounded=0;orthogonalLoop=1;jettySize=auto;html=1;exitX=0;exitY=1;exitDx=0;exitDy=0;entryX=0.5;entryY=0;entryDx=0;entryDy=0;" edge="1" parent="1" source="5tJ5e0qFEt_hm9HJa-Kv-482" target="5tJ5e0qFEt_hm9HJa-Kv-520">
          <mxGeometry relative="1" as="geometry" />
        </mxCell>
        <mxCell id="5tJ5e0qFEt_hm9HJa-Kv-540" style="edgeStyle=none;rounded=0;orthogonalLoop=1;jettySize=auto;html=1;exitX=0;exitY=0.75;exitDx=0;exitDy=0;entryX=0.5;entryY=0;entryDx=0;entryDy=0;" edge="1" parent="1" source="5tJ5e0qFEt_hm9HJa-Kv-488" target="5tJ5e0qFEt_hm9HJa-Kv-521">
          <mxGeometry relative="1" as="geometry" />
        </mxCell>
        <mxCell id="5tJ5e0qFEt_hm9HJa-Kv-541" style="edgeStyle=none;rounded=0;orthogonalLoop=1;jettySize=auto;html=1;exitX=0;exitY=0.75;exitDx=0;exitDy=0;entryX=0.5;entryY=0;entryDx=0;entryDy=0;" edge="1" parent="1" source="5tJ5e0qFEt_hm9HJa-Kv-494" target="5tJ5e0qFEt_hm9HJa-Kv-523">
          <mxGeometry relative="1" as="geometry" />
        </mxCell>
        <mxCell id="5tJ5e0qFEt_hm9HJa-Kv-542" style="edgeStyle=none;rounded=0;orthogonalLoop=1;jettySize=auto;html=1;exitX=0;exitY=1;exitDx=0;exitDy=0;entryX=0.5;entryY=0;entryDx=0;entryDy=0;" edge="1" parent="1" source="5tJ5e0qFEt_hm9HJa-Kv-500" target="5tJ5e0qFEt_hm9HJa-Kv-524">
          <mxGeometry relative="1" as="geometry" />
        </mxCell>
        <mxCell id="5tJ5e0qFEt_hm9HJa-Kv-543" style="edgeStyle=none;rounded=0;orthogonalLoop=1;jettySize=auto;html=1;exitX=1;exitY=1;exitDx=0;exitDy=0;entryX=0.5;entryY=0;entryDx=0;entryDy=0;" edge="1" parent="1" source="5tJ5e0qFEt_hm9HJa-Kv-507" target="5tJ5e0qFEt_hm9HJa-Kv-525">
          <mxGeometry relative="1" as="geometry" />
        </mxCell>
        <mxCell id="5tJ5e0qFEt_hm9HJa-Kv-544" style="edgeStyle=none;rounded=0;orthogonalLoop=1;jettySize=auto;html=1;exitX=0;exitY=1;exitDx=0;exitDy=0;entryX=0.5;entryY=0;entryDx=0;entryDy=0;" edge="1" parent="1" source="5tJ5e0qFEt_hm9HJa-Kv-511" target="5tJ5e0qFEt_hm9HJa-Kv-526">
          <mxGeometry relative="1" as="geometry" />
        </mxCell>
        <mxCell id="5tJ5e0qFEt_hm9HJa-Kv-546" value="Model" style="rounded=1;whiteSpace=wrap;html=1;fontStyle=1;fillColor=#f5f5f5;fontColor=#333333;strokeColor=#666666;sketch=1;curveFitting=1;jiggle=2;" vertex="1" parent="1">
          <mxGeometry x="798" y="1490" width="87" height="30" as="geometry" />
        </mxCell>
        <mxCell id="5tJ5e0qFEt_hm9HJa-Kv-548" value="MLP" style="rounded=1;whiteSpace=wrap;html=1;fontStyle=1;fillColor=#f5f5f5;fontColor=#333333;strokeColor=#666666;sketch=1;curveFitting=1;jiggle=2;glass=0;" vertex="1" parent="1">
          <mxGeometry x="1131" y="1490" width="120" height="30" as="geometry" />
        </mxCell>
        <mxCell id="5tJ5e0qFEt_hm9HJa-Kv-549" value="=" style="text;html=1;align=center;verticalAlign=middle;whiteSpace=wrap;rounded=0;fontStyle=1;" vertex="1" parent="1">
          <mxGeometry x="902" y="1490" width="38" height="30" as="geometry" />
        </mxCell>
        <mxCell id="5tJ5e0qFEt_hm9HJa-Kv-550" value="Embedding" style="rounded=1;whiteSpace=wrap;html=1;fontStyle=1;fillColor=#f5f5f5;fontColor=#333333;strokeColor=#666666;sketch=1;curveFitting=1;jiggle=2;" vertex="1" parent="1">
          <mxGeometry x="955.5" y="1490" width="120" height="30" as="geometry" />
        </mxCell>
        <mxCell id="5tJ5e0qFEt_hm9HJa-Kv-551" value="+" style="text;html=1;align=center;verticalAlign=middle;whiteSpace=wrap;rounded=0;fontStyle=1;" vertex="1" parent="1">
          <mxGeometry x="1085" y="1490" width="38" height="30" as="geometry" />
        </mxCell>
        <mxCell id="5tJ5e0qFEt_hm9HJa-Kv-552" value="Taibu&lt;br&gt;Engine" style="rounded=1;whiteSpace=wrap;html=1;fontStyle=1;fillColor=#f5f5f5;fontColor=#333333;strokeColor=#666666;sketch=1;curveFitting=1;jiggle=2;" vertex="1" parent="1">
          <mxGeometry x="798" y="1580" width="87" height="30" as="geometry" />
        </mxCell>
        <mxCell id="5tJ5e0qFEt_hm9HJa-Kv-553" value="=" style="text;html=1;align=center;verticalAlign=middle;whiteSpace=wrap;rounded=0;fontStyle=1;" vertex="1" parent="1">
          <mxGeometry x="902" y="1580" width="38" height="30" as="geometry" />
        </mxCell>
        <mxCell id="5tJ5e0qFEt_hm9HJa-Kv-555" value="Feature" style="rounded=1;whiteSpace=wrap;html=1;fontStyle=1;fillColor=#f5f5f5;fontColor=#333333;strokeColor=#666666;sketch=1;curveFitting=1;jiggle=2;" vertex="1" parent="1">
          <mxGeometry x="955.5" y="1580" width="120" height="30" as="geometry" />
        </mxCell>
        <mxCell id="5tJ5e0qFEt_hm9HJa-Kv-556" value="Embedding" style="rounded=1;whiteSpace=wrap;html=1;fontStyle=1;fillColor=#f5f5f5;fontColor=#333333;strokeColor=#666666;sketch=1;curveFitting=1;jiggle=2;" vertex="1" parent="1">
          <mxGeometry x="1131" y="1580" width="120" height="30" as="geometry" />
        </mxCell>
        <mxCell id="5tJ5e0qFEt_hm9HJa-Kv-557" value="MLP" style="rounded=1;whiteSpace=wrap;html=1;fontStyle=1;fillColor=#f5f5f5;fontColor=#333333;strokeColor=#666666;glass=0;sketch=1;curveFitting=1;jiggle=2;" vertex="1" parent="1">
          <mxGeometry x="1316.5" y="1580" width="120" height="30" as="geometry" />
        </mxCell>
        <mxCell id="5tJ5e0qFEt_hm9HJa-Kv-558" value="+" style="text;html=1;align=center;verticalAlign=middle;whiteSpace=wrap;rounded=0;fontStyle=1;" vertex="1" parent="1">
          <mxGeometry x="1085" y="1580" width="38" height="30" as="geometry" />
        </mxCell>
        <mxCell id="5tJ5e0qFEt_hm9HJa-Kv-559" value="+" style="text;html=1;align=center;verticalAlign=middle;whiteSpace=wrap;rounded=0;fontStyle=1;" vertex="1" parent="1">
          <mxGeometry x="1265" y="1580" width="38" height="30" as="geometry" />
        </mxCell>
        <mxCell id="5tJ5e0qFEt_hm9HJa-Kv-560" value="AngelRec&lt;br&gt;Engine" style="rounded=1;whiteSpace=wrap;html=1;fontStyle=1;fillColor=#f5f5f5;fontColor=#333333;strokeColor=#666666;sketch=1;curveFitting=1;jiggle=2;" vertex="1" parent="1">
          <mxGeometry x="798" y="1700" width="87" height="30" as="geometry" />
        </mxCell>
        <mxCell id="5tJ5e0qFEt_hm9HJa-Kv-561" value="=" style="text;html=1;align=center;verticalAlign=middle;whiteSpace=wrap;rounded=0;fontStyle=1;" vertex="1" parent="1">
          <mxGeometry x="902" y="1700" width="38" height="30" as="geometry" />
        </mxCell>
        <mxCell id="5tJ5e0qFEt_hm9HJa-Kv-562" value="Feature" style="rounded=1;whiteSpace=wrap;html=1;fontStyle=1;fillColor=#f5f5f5;fontColor=#333333;strokeColor=#666666;sketch=1;curveFitting=1;jiggle=2;" vertex="1" parent="1">
          <mxGeometry x="955.5" y="1700" width="120" height="30" as="geometry" />
        </mxCell>
        <mxCell id="5tJ5e0qFEt_hm9HJa-Kv-563" value="Embedding" style="rounded=1;whiteSpace=wrap;html=1;fontStyle=1;fillColor=#f5f5f5;fontColor=#333333;strokeColor=#666666;sketch=1;curveFitting=1;jiggle=2;" vertex="1" parent="1">
          <mxGeometry x="1131" y="1700" width="120" height="30" as="geometry" />
        </mxCell>
        <mxCell id="5tJ5e0qFEt_hm9HJa-Kv-564" value="MLP" style="rounded=1;whiteSpace=wrap;html=1;fontStyle=1;fillColor=#f5f5f5;fontColor=#333333;strokeColor=#666666;glass=0;sketch=1;curveFitting=1;jiggle=2;" vertex="1" parent="1">
          <mxGeometry x="1316.5" y="1700" width="120" height="30" as="geometry" />
        </mxCell>
        <mxCell id="5tJ5e0qFEt_hm9HJa-Kv-565" value="+" style="text;html=1;align=center;verticalAlign=middle;whiteSpace=wrap;rounded=0;fontStyle=1;" vertex="1" parent="1">
          <mxGeometry x="1085" y="1700" width="38" height="30" as="geometry" />
        </mxCell>
        <mxCell id="5tJ5e0qFEt_hm9HJa-Kv-566" value="+" style="text;html=1;align=center;verticalAlign=middle;whiteSpace=wrap;rounded=0;fontStyle=1;" vertex="1" parent="1">
          <mxGeometry x="1265" y="1700" width="38" height="30" as="geometry" />
        </mxCell>
        <mxCell id="5tJ5e0qFEt_hm9HJa-Kv-568" value="" style="rounded=0;whiteSpace=wrap;html=1;dashed=1;" vertex="1" parent="1">
          <mxGeometry x="1116" y="1800" width="340" height="50" as="geometry" />
        </mxCell>
        <mxCell id="5tJ5e0qFEt_hm9HJa-Kv-569" value="AngelRec&lt;br&gt;Engine" style="rounded=1;whiteSpace=wrap;html=1;fontStyle=1;fillColor=#f5f5f5;fontColor=#333333;strokeColor=#666666;sketch=1;curveFitting=1;jiggle=2;" vertex="1" parent="1">
          <mxGeometry x="798" y="1810" width="87" height="30" as="geometry" />
        </mxCell>
        <mxCell id="5tJ5e0qFEt_hm9HJa-Kv-570" value="=" style="text;html=1;align=center;verticalAlign=middle;whiteSpace=wrap;rounded=0;fontStyle=1;" vertex="1" parent="1">
          <mxGeometry x="902" y="1810" width="38" height="30" as="geometry" />
        </mxCell>
        <mxCell id="5tJ5e0qFEt_hm9HJa-Kv-571" value="Feature" style="rounded=1;whiteSpace=wrap;html=1;fontStyle=1;fillColor=#f5f5f5;fontColor=#333333;strokeColor=#666666;sketch=1;curveFitting=1;jiggle=2;" vertex="1" parent="1">
          <mxGeometry x="955.5" y="1810" width="120" height="30" as="geometry" />
        </mxCell>
        <mxCell id="5tJ5e0qFEt_hm9HJa-Kv-572" value="Embedding" style="rounded=1;whiteSpace=wrap;html=1;fontStyle=1;fillColor=#f5f5f5;fontColor=#333333;strokeColor=#666666;sketch=1;curveFitting=1;jiggle=2;" vertex="1" parent="1">
          <mxGeometry x="1131" y="1810" width="120" height="30" as="geometry" />
        </mxCell>
        <mxCell id="5tJ5e0qFEt_hm9HJa-Kv-573" value="MLP" style="rounded=1;whiteSpace=wrap;html=1;fontStyle=1;fillColor=#f5f5f5;fontColor=#333333;strokeColor=#666666;glass=0;sketch=1;curveFitting=1;jiggle=2;" vertex="1" parent="1">
          <mxGeometry x="1316.5" y="1810" width="120" height="30" as="geometry" />
        </mxCell>
        <mxCell id="5tJ5e0qFEt_hm9HJa-Kv-574" value="+" style="text;html=1;align=center;verticalAlign=middle;whiteSpace=wrap;rounded=0;fontStyle=1;" vertex="1" parent="1">
          <mxGeometry x="1085" y="1810" width="38" height="30" as="geometry" />
        </mxCell>
        <mxCell id="5tJ5e0qFEt_hm9HJa-Kv-575" value="+" style="text;html=1;align=center;verticalAlign=middle;whiteSpace=wrap;rounded=0;fontStyle=1;" vertex="1" parent="1">
          <mxGeometry x="1265" y="1810" width="38" height="30" as="geometry" />
        </mxCell>
        <mxCell id="5tJ5e0qFEt_hm9HJa-Kv-577" value="Feature" style="rounded=1;whiteSpace=wrap;html=1;fontStyle=1;fillColor=#f5f5f5;fontColor=#333333;strokeColor=#666666;sketch=1;curveFitting=1;jiggle=2;" vertex="1" parent="1">
          <mxGeometry x="1560" y="938" width="120" height="30" as="geometry" />
        </mxCell>
        <mxCell id="5tJ5e0qFEt_hm9HJa-Kv-578" value="Embedding" style="rounded=1;whiteSpace=wrap;html=1;fontStyle=1;fillColor=#f5f5f5;fontColor=#333333;strokeColor=#666666;sketch=1;curveFitting=1;jiggle=2;" vertex="1" parent="1">
          <mxGeometry x="1560" y="1004" width="120" height="30" as="geometry" />
        </mxCell>
        <mxCell id="5tJ5e0qFEt_hm9HJa-Kv-579" value="MLP" style="rounded=1;whiteSpace=wrap;html=1;fontStyle=1;fillColor=#f5f5f5;fontColor=#333333;strokeColor=#666666;glass=0;sketch=1;curveFitting=1;jiggle=2;" vertex="1" parent="1">
          <mxGeometry x="1550" y="1063" width="120" height="30" as="geometry" />
        </mxCell>
        <mxCell id="5tJ5e0qFEt_hm9HJa-Kv-580" value="" style="rounded=1;whiteSpace=wrap;html=1;fillColor=#eeeeee;strokeColor=#36393d;sketch=1;curveFitting=1;jiggle=2;" vertex="1" parent="1">
          <mxGeometry x="1814" y="1260" width="290" height="110" as="geometry" />
        </mxCell>
        <mxCell id="5tJ5e0qFEt_hm9HJa-Kv-603" style="edgeStyle=none;rounded=0;orthogonalLoop=1;jettySize=auto;html=1;exitX=1;exitY=1;exitDx=0;exitDy=0;entryX=0;entryY=0;entryDx=0;entryDy=0;" edge="1" parent="1" source="5tJ5e0qFEt_hm9HJa-Kv-585" target="5tJ5e0qFEt_hm9HJa-Kv-594">
          <mxGeometry relative="1" as="geometry" />
        </mxCell>
        <mxCell id="5tJ5e0qFEt_hm9HJa-Kv-585" value="unit n" style="rounded=1;whiteSpace=wrap;html=1;sketch=1;curveFitting=1;jiggle=2;" vertex="1" parent="1">
          <mxGeometry x="1834" y="1279" width="50" height="21" as="geometry" />
        </mxCell>
        <mxCell id="5tJ5e0qFEt_hm9HJa-Kv-586" value="unit n-1" style="rounded=1;whiteSpace=wrap;html=1;sketch=1;curveFitting=1;jiggle=2;" vertex="1" parent="1">
          <mxGeometry x="1884" y="1279" width="50" height="21" as="geometry" />
        </mxCell>
        <mxCell id="5tJ5e0qFEt_hm9HJa-Kv-587" value="&lt;b&gt;......&lt;/b&gt;" style="rounded=0;whiteSpace=wrap;html=1;sketch=1;curveFitting=1;jiggle=2;" vertex="1" parent="1">
          <mxGeometry x="1934" y="1279" width="50" height="21" as="geometry" />
        </mxCell>
        <mxCell id="5tJ5e0qFEt_hm9HJa-Kv-601" style="edgeStyle=none;rounded=0;orthogonalLoop=1;jettySize=auto;html=1;exitX=0;exitY=1;exitDx=0;exitDy=0;entryX=0;entryY=0;entryDx=0;entryDy=0;" edge="1" parent="1" source="5tJ5e0qFEt_hm9HJa-Kv-588" target="5tJ5e0qFEt_hm9HJa-Kv-595">
          <mxGeometry relative="1" as="geometry" />
        </mxCell>
        <mxCell id="5tJ5e0qFEt_hm9HJa-Kv-588" value="unit 2" style="rounded=0;whiteSpace=wrap;html=1;sketch=1;curveFitting=1;jiggle=2;" vertex="1" parent="1">
          <mxGeometry x="1984" y="1279" width="50" height="21" as="geometry" />
        </mxCell>
        <mxCell id="5tJ5e0qFEt_hm9HJa-Kv-698" style="edgeStyle=none;rounded=0;orthogonalLoop=1;jettySize=auto;html=1;exitX=1;exitY=1;exitDx=0;exitDy=0;entryX=1;entryY=0;entryDx=0;entryDy=0;" edge="1" parent="1" source="5tJ5e0qFEt_hm9HJa-Kv-589" target="5tJ5e0qFEt_hm9HJa-Kv-595">
          <mxGeometry relative="1" as="geometry" />
        </mxCell>
        <mxCell id="5tJ5e0qFEt_hm9HJa-Kv-589" value="unit 1" style="rounded=0;whiteSpace=wrap;html=1;sketch=1;curveFitting=1;jiggle=2;" vertex="1" parent="1">
          <mxGeometry x="2034" y="1279" width="50" height="21" as="geometry" />
        </mxCell>
        <mxCell id="5tJ5e0qFEt_hm9HJa-Kv-593" value="batch k" style="rounded=1;whiteSpace=wrap;html=1;sketch=1;curveFitting=1;jiggle=2;" vertex="1" parent="1">
          <mxGeometry x="1834" y="1330" width="80" height="21" as="geometry" />
        </mxCell>
        <mxCell id="5tJ5e0qFEt_hm9HJa-Kv-594" value="&lt;b&gt;......&lt;/b&gt;" style="rounded=1;whiteSpace=wrap;html=1;sketch=1;curveFitting=1;jiggle=2;" vertex="1" parent="1">
          <mxGeometry x="1914" y="1330" width="80" height="21" as="geometry" />
        </mxCell>
        <mxCell id="5tJ5e0qFEt_hm9HJa-Kv-595" value="batch 1" style="rounded=0;whiteSpace=wrap;html=1;sketch=1;curveFitting=1;jiggle=2;" vertex="1" parent="1">
          <mxGeometry x="1994" y="1330" width="90" height="21" as="geometry" />
        </mxCell>
        <mxCell id="5tJ5e0qFEt_hm9HJa-Kv-771" style="edgeStyle=entityRelationEdgeStyle;rounded=0;orthogonalLoop=1;jettySize=auto;html=1;exitX=1;exitY=0.25;exitDx=0;exitDy=0;entryX=0;entryY=0.5;entryDx=0;entryDy=0;" edge="1" parent="1" source="5tJ5e0qFEt_hm9HJa-Kv-596" target="5tJ5e0qFEt_hm9HJa-Kv-585">
          <mxGeometry relative="1" as="geometry" />
        </mxCell>
        <mxCell id="5tJ5e0qFEt_hm9HJa-Kv-596" value="Request 1" style="rounded=1;whiteSpace=wrap;html=1;sketch=1;curveFitting=1;jiggle=2;fontStyle=1;fillColor=#cce5ff;strokeColor=#36393d;" vertex="1" parent="1">
          <mxGeometry x="1590" y="1233" width="140" height="30" as="geometry" />
        </mxCell>
        <mxCell id="5tJ5e0qFEt_hm9HJa-Kv-600" value="" style="rounded=1;whiteSpace=wrap;html=1;fillColor=#D4E1F5;strokeColor=#36393d;align=center;sketch=1;curveFitting=1;jiggle=2;" vertex="1" parent="1">
          <mxGeometry x="2131" y="1230" width="249" height="170" as="geometry" />
        </mxCell>
        <mxCell id="5tJ5e0qFEt_hm9HJa-Kv-623" value="" style="rounded=1;whiteSpace=wrap;html=1;sketch=1;curveFitting=1;jiggle=2;fillColor=#eeeeee;strokeColor=#36393d;" vertex="1" parent="1">
          <mxGeometry x="1900" y="2001" width="290" height="130" as="geometry" />
        </mxCell>
        <mxCell id="5tJ5e0qFEt_hm9HJa-Kv-624" value="CPU" style="rounded=1;whiteSpace=wrap;html=1;fillColor=#0071c5;strokeColor=#1A1A1A;sketch=1;curveFitting=1;jiggle=2;fontStyle=1" vertex="1" parent="1">
          <mxGeometry x="1800" y="2001" width="80" height="20" as="geometry" />
        </mxCell>
        <mxCell id="5tJ5e0qFEt_hm9HJa-Kv-626" style="edgeStyle=none;rounded=0;orthogonalLoop=1;jettySize=auto;html=1;exitX=0;exitY=0.5;exitDx=0;exitDy=0;entryX=1;entryY=0.5;entryDx=0;entryDy=0;endArrow=none;endFill=0;sketch=1;curveFitting=1;jiggle=2;" edge="1" parent="1" source="5tJ5e0qFEt_hm9HJa-Kv-623" target="5tJ5e0qFEt_hm9HJa-Kv-623">
          <mxGeometry relative="1" as="geometry" />
        </mxCell>
        <mxCell id="5tJ5e0qFEt_hm9HJa-Kv-627" value="GPU" style="rounded=1;whiteSpace=wrap;html=1;fillColor=#76b900;fontStyle=1;sketch=1;curveFitting=1;jiggle=2;" vertex="1" parent="1">
          <mxGeometry x="1800" y="2031" width="80" height="20" as="geometry" />
        </mxCell>
        <mxCell id="5tJ5e0qFEt_hm9HJa-Kv-636" style="edgeStyle=orthogonalEdgeStyle;rounded=0;orthogonalLoop=1;jettySize=auto;html=1;exitX=0.5;exitY=1;exitDx=0;exitDy=0;entryX=0;entryY=0.5;entryDx=0;entryDy=0;" edge="1" parent="1" source="5tJ5e0qFEt_hm9HJa-Kv-628" target="5tJ5e0qFEt_hm9HJa-Kv-630">
          <mxGeometry relative="1" as="geometry" />
        </mxCell>
        <mxCell id="5tJ5e0qFEt_hm9HJa-Kv-637" style="edgeStyle=none;rounded=0;orthogonalLoop=1;jettySize=auto;html=1;exitX=1;exitY=0.5;exitDx=0;exitDy=0;entryX=0;entryY=0.5;entryDx=0;entryDy=0;" edge="1" parent="1" source="5tJ5e0qFEt_hm9HJa-Kv-628" target="5tJ5e0qFEt_hm9HJa-Kv-629">
          <mxGeometry relative="1" as="geometry" />
        </mxCell>
        <mxCell id="5tJ5e0qFEt_hm9HJa-Kv-628" value="特征" style="rounded=1;whiteSpace=wrap;html=1;fillColor=#0071C5;strokeColor=#1A1A1A;sketch=1;curveFitting=1;jiggle=2;fontStyle=1" vertex="1" parent="1">
          <mxGeometry x="1937" y="2026" width="80" height="20" as="geometry" />
        </mxCell>
        <mxCell id="5tJ5e0qFEt_hm9HJa-Kv-629" value="GPU" style="rounded=1;whiteSpace=wrap;html=1;fillColor=#76B900;fontStyle=1;sketch=1;curveFitting=1;jiggle=2;" vertex="1" parent="1">
          <mxGeometry x="2040" y="2026" width="80" height="20" as="geometry" />
        </mxCell>
        <mxCell id="5tJ5e0qFEt_hm9HJa-Kv-630" value="lookup" style="rounded=1;whiteSpace=wrap;html=1;fillColor=#0071C5;strokeColor=#1A1A1A;sketch=1;curveFitting=1;jiggle=2;fontStyle=1" vertex="1" parent="1">
          <mxGeometry x="1998" y="2075" width="112" height="20" as="geometry" />
        </mxCell>
        <mxCell id="5tJ5e0qFEt_hm9HJa-Kv-638" style="edgeStyle=orthogonalEdgeStyle;rounded=0;orthogonalLoop=1;jettySize=auto;html=1;exitX=0;exitY=0.5;exitDx=0;exitDy=0;entryX=0;entryY=0.5;entryDx=0;entryDy=0;" edge="1" parent="1" source="5tJ5e0qFEt_hm9HJa-Kv-631" target="5tJ5e0qFEt_hm9HJa-Kv-628">
          <mxGeometry relative="1" as="geometry">
            <Array as="points">
              <mxPoint x="1920" y="2111" />
              <mxPoint x="1920" y="2036" />
            </Array>
          </mxGeometry>
        </mxCell>
        <mxCell id="5tJ5e0qFEt_hm9HJa-Kv-631" value="pooling" style="rounded=1;whiteSpace=wrap;html=1;fillColor=#0071C5;strokeColor=#1A1A1A;sketch=1;curveFitting=1;jiggle=2;fontStyle=1" vertex="1" parent="1">
          <mxGeometry x="1998" y="2101" width="112" height="20" as="geometry" />
        </mxCell>
        <mxCell id="5tJ5e0qFEt_hm9HJa-Kv-633" value="业界竞品" style="text;html=1;strokeColor=none;fillColor=none;align=center;verticalAlign=middle;whiteSpace=wrap;rounded=0;sketch=1;curveFitting=1;jiggle=2;fontStyle=1" vertex="1" parent="1">
          <mxGeometry x="2131" y="1980" width="59" height="20" as="geometry" />
        </mxCell>
        <mxCell id="5tJ5e0qFEt_hm9HJa-Kv-634" value="推理" style="text;html=1;strokeColor=none;fillColor=none;align=center;verticalAlign=middle;whiteSpace=wrap;rounded=0;fontStyle=1" vertex="1" parent="1">
          <mxGeometry x="2113" y="2026" width="70" height="20" as="geometry" />
        </mxCell>
        <mxCell id="5tJ5e0qFEt_hm9HJa-Kv-635" value="内存、PS" style="text;html=1;strokeColor=none;fillColor=none;align=center;verticalAlign=middle;whiteSpace=wrap;rounded=0;fontStyle=1" vertex="1" parent="1">
          <mxGeometry x="2114" y="2089" width="70" height="20" as="geometry" />
        </mxCell>
        <mxCell id="5tJ5e0qFEt_hm9HJa-Kv-639" value="" style="rounded=1;whiteSpace=wrap;html=1;fillColor=#eeeeee;strokeColor=#36393d;sketch=1;curveFitting=1;jiggle=2;" vertex="1" parent="1">
          <mxGeometry x="1900" y="2181" width="290" height="130" as="geometry" />
        </mxCell>
        <mxCell id="5tJ5e0qFEt_hm9HJa-Kv-640" value="CPU" style="rounded=1;whiteSpace=wrap;html=1;fillColor=#0071C5;strokeColor=#1A1A1A;sketch=1;curveFitting=1;jiggle=2;fontStyle=1" vertex="1" parent="1">
          <mxGeometry x="1800" y="2181" width="80" height="20" as="geometry" />
        </mxCell>
        <mxCell id="5tJ5e0qFEt_hm9HJa-Kv-641" style="edgeStyle=none;rounded=0;orthogonalLoop=1;jettySize=auto;html=1;exitX=0;exitY=0.5;exitDx=0;exitDy=0;entryX=1;entryY=0.5;entryDx=0;entryDy=0;endArrow=none;endFill=0;sketch=1;curveFitting=1;jiggle=2;" edge="1" parent="1" source="5tJ5e0qFEt_hm9HJa-Kv-639" target="5tJ5e0qFEt_hm9HJa-Kv-639">
          <mxGeometry relative="1" as="geometry" />
        </mxCell>
        <mxCell id="5tJ5e0qFEt_hm9HJa-Kv-642" value="GPU" style="rounded=1;whiteSpace=wrap;html=1;fillColor=#76B900;fontStyle=1;sketch=1;curveFitting=1;jiggle=2;" vertex="1" parent="1">
          <mxGeometry x="1800" y="2211" width="80" height="20" as="geometry" />
        </mxCell>
        <mxCell id="5tJ5e0qFEt_hm9HJa-Kv-643" style="edgeStyle=orthogonalEdgeStyle;rounded=0;orthogonalLoop=1;jettySize=auto;html=1;exitX=0.5;exitY=1;exitDx=0;exitDy=0;entryX=0;entryY=0.5;entryDx=0;entryDy=0;" edge="1" parent="1" source="5tJ5e0qFEt_hm9HJa-Kv-645" target="5tJ5e0qFEt_hm9HJa-Kv-647">
          <mxGeometry relative="1" as="geometry" />
        </mxCell>
        <mxCell id="5tJ5e0qFEt_hm9HJa-Kv-644" style="edgeStyle=none;rounded=0;orthogonalLoop=1;jettySize=auto;html=1;exitX=1;exitY=0.5;exitDx=0;exitDy=0;entryX=0;entryY=0.5;entryDx=0;entryDy=0;" edge="1" parent="1" source="5tJ5e0qFEt_hm9HJa-Kv-645" target="5tJ5e0qFEt_hm9HJa-Kv-646">
          <mxGeometry relative="1" as="geometry" />
        </mxCell>
        <mxCell id="5tJ5e0qFEt_hm9HJa-Kv-645" value="特征" style="rounded=1;whiteSpace=wrap;html=1;fillColor=#0071C5;strokeColor=#1A1A1A;sketch=1;curveFitting=1;jiggle=2;fontStyle=1" vertex="1" parent="1">
          <mxGeometry x="1937" y="2206" width="80" height="20" as="geometry" />
        </mxCell>
        <mxCell id="5tJ5e0qFEt_hm9HJa-Kv-646" value="GPU" style="rounded=1;whiteSpace=wrap;html=1;fillColor=#76B900;fontStyle=1;sketch=1;curveFitting=1;jiggle=2;" vertex="1" parent="1">
          <mxGeometry x="2040" y="2206" width="80" height="20" as="geometry" />
        </mxCell>
        <mxCell id="5tJ5e0qFEt_hm9HJa-Kv-647" value="lookup" style="rounded=1;whiteSpace=wrap;html=1;fillColor=#76B900;strokeColor=#1A1A1A;sketch=1;curveFitting=1;jiggle=2;fontStyle=1;shadow=0;glass=0;" vertex="1" parent="1">
          <mxGeometry x="1998" y="2255" width="112" height="20" as="geometry" />
        </mxCell>
        <mxCell id="5tJ5e0qFEt_hm9HJa-Kv-648" style="edgeStyle=orthogonalEdgeStyle;rounded=0;orthogonalLoop=1;jettySize=auto;html=1;exitX=0;exitY=0.5;exitDx=0;exitDy=0;entryX=0;entryY=0.5;entryDx=0;entryDy=0;" edge="1" parent="1" source="5tJ5e0qFEt_hm9HJa-Kv-649" target="5tJ5e0qFEt_hm9HJa-Kv-645">
          <mxGeometry relative="1" as="geometry">
            <Array as="points">
              <mxPoint x="1920" y="2291" />
              <mxPoint x="1920" y="2216" />
            </Array>
          </mxGeometry>
        </mxCell>
        <mxCell id="5tJ5e0qFEt_hm9HJa-Kv-649" value="pooling" style="rounded=1;whiteSpace=wrap;html=1;fillColor=#76b900;strokeColor=#1A1A1A;sketch=1;curveFitting=1;jiggle=2;fontStyle=1" vertex="1" parent="1">
          <mxGeometry x="1998" y="2281" width="112" height="20" as="geometry" />
        </mxCell>
        <mxCell id="5tJ5e0qFEt_hm9HJa-Kv-650" value="IS" style="text;html=1;strokeColor=none;fillColor=none;align=center;verticalAlign=middle;whiteSpace=wrap;rounded=0;sketch=1;curveFitting=1;jiggle=2;fontStyle=1" vertex="1" parent="1">
          <mxGeometry x="2130" y="2161" width="59" height="20" as="geometry" />
        </mxCell>
        <mxCell id="5tJ5e0qFEt_hm9HJa-Kv-651" value="推理" style="text;html=1;strokeColor=none;fillColor=none;align=center;verticalAlign=middle;whiteSpace=wrap;rounded=0;fontStyle=1" vertex="1" parent="1">
          <mxGeometry x="2113" y="2206" width="70" height="20" as="geometry" />
        </mxCell>
        <mxCell id="5tJ5e0qFEt_hm9HJa-Kv-652" value="内存、PS" style="text;html=1;strokeColor=none;fillColor=none;align=center;verticalAlign=middle;whiteSpace=wrap;rounded=0;fontStyle=1" vertex="1" parent="1">
          <mxGeometry x="2114" y="2269" width="70" height="20" as="geometry" />
        </mxCell>
        <mxCell id="5tJ5e0qFEt_hm9HJa-Kv-665" value="lookup" style="rounded=1;whiteSpace=wrap;html=1;fontStyle=1;fillColor=#76B900;sketch=1;curveFitting=1;jiggle=2;" vertex="1" parent="1">
          <mxGeometry x="2150" y="1260" width="90" height="24" as="geometry" />
        </mxCell>
        <mxCell id="5tJ5e0qFEt_hm9HJa-Kv-666" value="推理" style="rounded=1;whiteSpace=wrap;html=1;fontStyle=1;fillColor=#76B900;sketch=1;curveFitting=1;jiggle=2;" vertex="1" parent="1">
          <mxGeometry x="2250" y="1259" width="90" height="54" as="geometry" />
        </mxCell>
        <mxCell id="5tJ5e0qFEt_hm9HJa-Kv-667" value="pooling" style="rounded=1;whiteSpace=wrap;html=1;fontStyle=1;fillColor=#76B900;sketch=1;curveFitting=1;jiggle=2;" vertex="1" parent="1">
          <mxGeometry x="2150" y="1292" width="90" height="24" as="geometry" />
        </mxCell>
        <mxCell id="5tJ5e0qFEt_hm9HJa-Kv-689" value="NVIDIA GPU" style="rounded=1;whiteSpace=wrap;html=1;fontStyle=1;fillColor=#76B900;sketch=1;curveFitting=1;jiggle=2;" vertex="1" parent="1">
          <mxGeometry x="2150" y="1354" width="204" height="36" as="geometry" />
        </mxCell>
        <mxCell id="5tJ5e0qFEt_hm9HJa-Kv-772" style="edgeStyle=entityRelationEdgeStyle;rounded=0;orthogonalLoop=1;jettySize=auto;html=1;exitX=1;exitY=0.5;exitDx=0;exitDy=0;entryX=0;entryY=0.5;entryDx=0;entryDy=0;" edge="1" parent="1" source="5tJ5e0qFEt_hm9HJa-Kv-690" target="5tJ5e0qFEt_hm9HJa-Kv-585">
          <mxGeometry relative="1" as="geometry" />
        </mxCell>
        <mxCell id="5tJ5e0qFEt_hm9HJa-Kv-690" value="Request 2" style="rounded=1;whiteSpace=wrap;html=1;sketch=1;curveFitting=1;jiggle=2;fontStyle=1;fillColor=#cce5ff;strokeColor=#36393d;" vertex="1" parent="1">
          <mxGeometry x="1590" y="1281" width="140" height="30" as="geometry" />
        </mxCell>
        <mxCell id="5tJ5e0qFEt_hm9HJa-Kv-773" style="edgeStyle=entityRelationEdgeStyle;rounded=0;orthogonalLoop=1;jettySize=auto;html=1;exitX=1;exitY=0.5;exitDx=0;exitDy=0;entryX=0;entryY=0.5;entryDx=0;entryDy=0;" edge="1" parent="1" source="5tJ5e0qFEt_hm9HJa-Kv-692" target="5tJ5e0qFEt_hm9HJa-Kv-585">
          <mxGeometry relative="1" as="geometry" />
        </mxCell>
        <mxCell id="5tJ5e0qFEt_hm9HJa-Kv-692" value="Request n" style="rounded=1;whiteSpace=wrap;html=1;sketch=1;curveFitting=1;jiggle=2;fontStyle=1;fillColor=#cce5ff;strokeColor=#36393d;" vertex="1" parent="1">
          <mxGeometry x="1590" y="1370" width="140" height="30" as="geometry" />
        </mxCell>
        <mxCell id="5tJ5e0qFEt_hm9HJa-Kv-693" value="&lt;b&gt;......&lt;/b&gt;" style="text;html=1;strokeColor=none;fillColor=none;align=center;verticalAlign=middle;whiteSpace=wrap;rounded=0;" vertex="1" parent="1">
          <mxGeometry x="1635" y="1324" width="60" height="30" as="geometry" />
        </mxCell>
        <mxCell id="5tJ5e0qFEt_hm9HJa-Kv-702" value="" style="rounded=1;whiteSpace=wrap;html=1;fillColor=#E6E6E6;" vertex="1" parent="1">
          <mxGeometry x="2167" y="1528" width="210" height="72" as="geometry" />
        </mxCell>
        <mxCell id="5tJ5e0qFEt_hm9HJa-Kv-703" value="" style="rounded=1;whiteSpace=wrap;html=1;fillColor=#E6E6E6;" vertex="1" parent="1">
          <mxGeometry x="2161" y="1522" width="210" height="72" as="geometry" />
        </mxCell>
        <mxCell id="5tJ5e0qFEt_hm9HJa-Kv-704" value="" style="rounded=1;whiteSpace=wrap;html=1;fillColor=#E6E6E6;" vertex="1" parent="1">
          <mxGeometry x="2156" y="1516" width="210" height="72" as="geometry" />
        </mxCell>
        <mxCell id="5tJ5e0qFEt_hm9HJa-Kv-705" value="" style="rounded=1;whiteSpace=wrap;html=1;fillColor=#E6E6E6;" vertex="1" parent="1">
          <mxGeometry x="2150" y="1510" width="210" height="72" as="geometry" />
        </mxCell>
        <mxCell id="5tJ5e0qFEt_hm9HJa-Kv-706" value="" style="rounded=0;whiteSpace=wrap;html=1;sketch=1;curveFitting=1;jiggle=2;fillColor=#E6E6E6;" vertex="1" parent="1">
          <mxGeometry x="1810" y="1480" width="590" height="194" as="geometry" />
        </mxCell>
        <mxCell id="5tJ5e0qFEt_hm9HJa-Kv-707" value="" style="rounded=1;whiteSpace=wrap;html=1;fillColor=#eeeeee;strokeColor=#36393d;sketch=1;curveFitting=1;jiggle=2;" vertex="1" parent="1">
          <mxGeometry x="1824" y="1520" width="290" height="110" as="geometry" />
        </mxCell>
        <mxCell id="5tJ5e0qFEt_hm9HJa-Kv-708" style="edgeStyle=none;rounded=0;orthogonalLoop=1;jettySize=auto;html=1;exitX=1;exitY=1;exitDx=0;exitDy=0;entryX=0;entryY=0;entryDx=0;entryDy=0;" edge="1" parent="1" source="5tJ5e0qFEt_hm9HJa-Kv-709" target="5tJ5e0qFEt_hm9HJa-Kv-717">
          <mxGeometry relative="1" as="geometry" />
        </mxCell>
        <mxCell id="5tJ5e0qFEt_hm9HJa-Kv-709" value="unit n" style="rounded=1;whiteSpace=wrap;html=1;sketch=1;curveFitting=1;jiggle=2;" vertex="1" parent="1">
          <mxGeometry x="1844" y="1539" width="50" height="21" as="geometry" />
        </mxCell>
        <mxCell id="5tJ5e0qFEt_hm9HJa-Kv-710" value="unit n-1" style="rounded=1;whiteSpace=wrap;html=1;sketch=1;curveFitting=1;jiggle=2;" vertex="1" parent="1">
          <mxGeometry x="1894" y="1539" width="50" height="21" as="geometry" />
        </mxCell>
        <mxCell id="5tJ5e0qFEt_hm9HJa-Kv-711" value="&lt;b&gt;......&lt;/b&gt;" style="rounded=0;whiteSpace=wrap;html=1;sketch=1;curveFitting=1;jiggle=2;" vertex="1" parent="1">
          <mxGeometry x="1944" y="1539" width="50" height="21" as="geometry" />
        </mxCell>
        <mxCell id="5tJ5e0qFEt_hm9HJa-Kv-712" style="edgeStyle=none;rounded=0;orthogonalLoop=1;jettySize=auto;html=1;exitX=0;exitY=1;exitDx=0;exitDy=0;entryX=0;entryY=0;entryDx=0;entryDy=0;" edge="1" parent="1" source="5tJ5e0qFEt_hm9HJa-Kv-713" target="5tJ5e0qFEt_hm9HJa-Kv-718">
          <mxGeometry relative="1" as="geometry" />
        </mxCell>
        <mxCell id="5tJ5e0qFEt_hm9HJa-Kv-713" value="unit 2" style="rounded=0;whiteSpace=wrap;html=1;sketch=1;curveFitting=1;jiggle=2;" vertex="1" parent="1">
          <mxGeometry x="1994" y="1539" width="50" height="21" as="geometry" />
        </mxCell>
        <mxCell id="5tJ5e0qFEt_hm9HJa-Kv-714" style="edgeStyle=none;rounded=0;orthogonalLoop=1;jettySize=auto;html=1;exitX=1;exitY=1;exitDx=0;exitDy=0;entryX=1;entryY=0;entryDx=0;entryDy=0;" edge="1" parent="1" source="5tJ5e0qFEt_hm9HJa-Kv-715" target="5tJ5e0qFEt_hm9HJa-Kv-718">
          <mxGeometry relative="1" as="geometry" />
        </mxCell>
        <mxCell id="5tJ5e0qFEt_hm9HJa-Kv-715" value="unit 1" style="rounded=0;whiteSpace=wrap;html=1;sketch=1;curveFitting=1;jiggle=2;" vertex="1" parent="1">
          <mxGeometry x="2044" y="1539" width="50" height="21" as="geometry" />
        </mxCell>
        <mxCell id="5tJ5e0qFEt_hm9HJa-Kv-716" value="batch k" style="rounded=1;whiteSpace=wrap;html=1;sketch=1;curveFitting=1;jiggle=2;" vertex="1" parent="1">
          <mxGeometry x="1844" y="1590" width="80" height="21" as="geometry" />
        </mxCell>
        <mxCell id="5tJ5e0qFEt_hm9HJa-Kv-717" value="&lt;b&gt;......&lt;/b&gt;" style="rounded=1;whiteSpace=wrap;html=1;sketch=1;curveFitting=1;jiggle=2;" vertex="1" parent="1">
          <mxGeometry x="1924" y="1590" width="80" height="21" as="geometry" />
        </mxCell>
        <mxCell id="5tJ5e0qFEt_hm9HJa-Kv-718" value="batch 1" style="rounded=0;whiteSpace=wrap;html=1;sketch=1;curveFitting=1;jiggle=2;" vertex="1" parent="1">
          <mxGeometry x="2004" y="1590" width="90" height="21" as="geometry" />
        </mxCell>
        <mxCell id="5tJ5e0qFEt_hm9HJa-Kv-768" style="edgeStyle=entityRelationEdgeStyle;rounded=0;orthogonalLoop=1;jettySize=auto;html=1;exitX=1;exitY=0.5;exitDx=0;exitDy=0;entryX=0;entryY=0.5;entryDx=0;entryDy=0;" edge="1" parent="1" source="5tJ5e0qFEt_hm9HJa-Kv-719" target="5tJ5e0qFEt_hm9HJa-Kv-709">
          <mxGeometry relative="1" as="geometry" />
        </mxCell>
        <mxCell id="5tJ5e0qFEt_hm9HJa-Kv-719" value="Request 1" style="rounded=1;whiteSpace=wrap;html=1;sketch=1;curveFitting=1;jiggle=2;fontStyle=1;fillColor=#cce5ff;strokeColor=#36393d;" vertex="1" parent="1">
          <mxGeometry x="1590" y="1493" width="150" height="30" as="geometry" />
        </mxCell>
        <mxCell id="5tJ5e0qFEt_hm9HJa-Kv-720" value="" style="rounded=1;whiteSpace=wrap;html=1;fillColor=#D4E1F5;strokeColor=#36393d;align=center;sketch=1;curveFitting=1;jiggle=2;" vertex="1" parent="1">
          <mxGeometry x="2141" y="1490" width="249" height="170" as="geometry" />
        </mxCell>
        <mxCell id="5tJ5e0qFEt_hm9HJa-Kv-721" value="lookup" style="rounded=1;whiteSpace=wrap;html=1;fontStyle=1;fillColor=#0071C5;sketch=1;curveFitting=1;jiggle=2;" vertex="1" parent="1">
          <mxGeometry x="2160" y="1520" width="90" height="24" as="geometry" />
        </mxCell>
        <mxCell id="5tJ5e0qFEt_hm9HJa-Kv-722" value="推理" style="rounded=1;whiteSpace=wrap;html=1;fontStyle=1;fillColor=#76B900;sketch=1;curveFitting=1;jiggle=2;" vertex="1" parent="1">
          <mxGeometry x="2260" y="1519" width="90" height="54" as="geometry" />
        </mxCell>
        <mxCell id="5tJ5e0qFEt_hm9HJa-Kv-723" value="pooling" style="rounded=1;whiteSpace=wrap;html=1;fontStyle=1;fillColor=#0071C5;sketch=1;curveFitting=1;jiggle=2;" vertex="1" parent="1">
          <mxGeometry x="2160" y="1552" width="90" height="24" as="geometry" />
        </mxCell>
        <mxCell id="5tJ5e0qFEt_hm9HJa-Kv-724" value="NVIDIA GPU" style="rounded=1;whiteSpace=wrap;html=1;fontStyle=1;fillColor=#76B900;sketch=1;curveFitting=1;jiggle=2;" vertex="1" parent="1">
          <mxGeometry x="2270" y="1614" width="94" height="36" as="geometry" />
        </mxCell>
        <mxCell id="5tJ5e0qFEt_hm9HJa-Kv-769" style="edgeStyle=entityRelationEdgeStyle;rounded=0;orthogonalLoop=1;jettySize=auto;html=1;exitX=1;exitY=0.5;exitDx=0;exitDy=0;entryX=0;entryY=0.5;entryDx=0;entryDy=0;" edge="1" parent="1" source="5tJ5e0qFEt_hm9HJa-Kv-725" target="5tJ5e0qFEt_hm9HJa-Kv-709">
          <mxGeometry relative="1" as="geometry">
            <mxPoint x="1840" y="1550" as="targetPoint" />
          </mxGeometry>
        </mxCell>
        <mxCell id="5tJ5e0qFEt_hm9HJa-Kv-725" value="Request 2" style="rounded=1;whiteSpace=wrap;html=1;sketch=1;curveFitting=1;jiggle=2;fontStyle=1;fillColor=#cce5ff;strokeColor=#36393d;" vertex="1" parent="1">
          <mxGeometry x="1590" y="1541" width="150" height="30" as="geometry" />
        </mxCell>
        <mxCell id="5tJ5e0qFEt_hm9HJa-Kv-770" style="edgeStyle=entityRelationEdgeStyle;rounded=0;orthogonalLoop=1;jettySize=auto;html=1;exitX=1;exitY=0.5;exitDx=0;exitDy=0;entryX=0;entryY=0.5;entryDx=0;entryDy=0;" edge="1" parent="1" source="5tJ5e0qFEt_hm9HJa-Kv-726" target="5tJ5e0qFEt_hm9HJa-Kv-709">
          <mxGeometry relative="1" as="geometry" />
        </mxCell>
        <mxCell id="5tJ5e0qFEt_hm9HJa-Kv-726" value="Request n" style="rounded=1;whiteSpace=wrap;html=1;sketch=1;curveFitting=1;jiggle=2;fontStyle=1;fillColor=#cce5ff;strokeColor=#36393d;" vertex="1" parent="1">
          <mxGeometry x="1590" y="1630" width="150" height="30" as="geometry" />
        </mxCell>
        <mxCell id="5tJ5e0qFEt_hm9HJa-Kv-727" value="&lt;b&gt;......&lt;/b&gt;" style="text;html=1;strokeColor=none;fillColor=none;align=center;verticalAlign=middle;whiteSpace=wrap;rounded=0;" vertex="1" parent="1">
          <mxGeometry x="1645" y="1584" width="60" height="30" as="geometry" />
        </mxCell>
        <mxCell id="5tJ5e0qFEt_hm9HJa-Kv-728" value="AMD CPU" style="rounded=1;whiteSpace=wrap;html=1;fontStyle=1;fillColor=#0071C5;sketch=1;curveFitting=1;jiggle=2;" vertex="1" parent="1">
          <mxGeometry x="2161" y="1614" width="94" height="36" as="geometry" />
        </mxCell>
        <mxCell id="5tJ5e0qFEt_hm9HJa-Kv-729" value="" style="rounded=1;whiteSpace=wrap;html=1;fillColor=#E6E6E6;" vertex="1" parent="1">
          <mxGeometry x="2167" y="1768" width="210" height="72" as="geometry" />
        </mxCell>
        <mxCell id="5tJ5e0qFEt_hm9HJa-Kv-730" value="" style="rounded=1;whiteSpace=wrap;html=1;fillColor=#E6E6E6;" vertex="1" parent="1">
          <mxGeometry x="2161" y="1762" width="210" height="72" as="geometry" />
        </mxCell>
        <mxCell id="5tJ5e0qFEt_hm9HJa-Kv-731" value="" style="rounded=1;whiteSpace=wrap;html=1;fillColor=#E6E6E6;" vertex="1" parent="1">
          <mxGeometry x="2156" y="1756" width="210" height="72" as="geometry" />
        </mxCell>
        <mxCell id="5tJ5e0qFEt_hm9HJa-Kv-732" value="" style="rounded=1;whiteSpace=wrap;html=1;fillColor=#E6E6E6;" vertex="1" parent="1">
          <mxGeometry x="2150" y="1750" width="210" height="72" as="geometry" />
        </mxCell>
        <mxCell id="5tJ5e0qFEt_hm9HJa-Kv-733" value="" style="rounded=0;whiteSpace=wrap;html=1;sketch=1;curveFitting=1;jiggle=2;fillColor=#E6E6E6;" vertex="1" parent="1">
          <mxGeometry x="1810" y="1720" width="590" height="194" as="geometry" />
        </mxCell>
        <mxCell id="5tJ5e0qFEt_hm9HJa-Kv-734" value="" style="rounded=1;whiteSpace=wrap;html=1;fillColor=#eeeeee;strokeColor=#36393d;sketch=1;curveFitting=1;jiggle=2;" vertex="1" parent="1">
          <mxGeometry x="1824" y="1760" width="290" height="110" as="geometry" />
        </mxCell>
        <mxCell id="5tJ5e0qFEt_hm9HJa-Kv-735" style="edgeStyle=none;rounded=0;orthogonalLoop=1;jettySize=auto;html=1;exitX=1;exitY=1;exitDx=0;exitDy=0;entryX=0;entryY=0;entryDx=0;entryDy=0;" edge="1" parent="1" source="5tJ5e0qFEt_hm9HJa-Kv-736" target="5tJ5e0qFEt_hm9HJa-Kv-744">
          <mxGeometry relative="1" as="geometry" />
        </mxCell>
        <mxCell id="5tJ5e0qFEt_hm9HJa-Kv-736" value="unit n" style="rounded=1;whiteSpace=wrap;html=1;sketch=1;curveFitting=1;jiggle=2;" vertex="1" parent="1">
          <mxGeometry x="1844" y="1779" width="50" height="21" as="geometry" />
        </mxCell>
        <mxCell id="5tJ5e0qFEt_hm9HJa-Kv-737" value="unit n-1" style="rounded=1;whiteSpace=wrap;html=1;sketch=1;curveFitting=1;jiggle=2;" vertex="1" parent="1">
          <mxGeometry x="1894" y="1779" width="50" height="21" as="geometry" />
        </mxCell>
        <mxCell id="5tJ5e0qFEt_hm9HJa-Kv-738" value="&lt;b&gt;......&lt;/b&gt;" style="rounded=0;whiteSpace=wrap;html=1;sketch=1;curveFitting=1;jiggle=2;" vertex="1" parent="1">
          <mxGeometry x="1944" y="1779" width="50" height="21" as="geometry" />
        </mxCell>
        <mxCell id="5tJ5e0qFEt_hm9HJa-Kv-739" style="edgeStyle=none;rounded=0;orthogonalLoop=1;jettySize=auto;html=1;exitX=0;exitY=1;exitDx=0;exitDy=0;entryX=0;entryY=0;entryDx=0;entryDy=0;" edge="1" parent="1" source="5tJ5e0qFEt_hm9HJa-Kv-740" target="5tJ5e0qFEt_hm9HJa-Kv-745">
          <mxGeometry relative="1" as="geometry" />
        </mxCell>
        <mxCell id="5tJ5e0qFEt_hm9HJa-Kv-740" value="unit 2" style="rounded=0;whiteSpace=wrap;html=1;sketch=1;curveFitting=1;jiggle=2;" vertex="1" parent="1">
          <mxGeometry x="1994" y="1779" width="50" height="21" as="geometry" />
        </mxCell>
        <mxCell id="5tJ5e0qFEt_hm9HJa-Kv-741" style="edgeStyle=none;rounded=0;orthogonalLoop=1;jettySize=auto;html=1;exitX=1;exitY=1;exitDx=0;exitDy=0;entryX=1;entryY=0;entryDx=0;entryDy=0;" edge="1" parent="1" source="5tJ5e0qFEt_hm9HJa-Kv-742" target="5tJ5e0qFEt_hm9HJa-Kv-745">
          <mxGeometry relative="1" as="geometry" />
        </mxCell>
        <mxCell id="5tJ5e0qFEt_hm9HJa-Kv-742" value="unit 1" style="rounded=0;whiteSpace=wrap;html=1;sketch=1;curveFitting=1;jiggle=2;" vertex="1" parent="1">
          <mxGeometry x="2044" y="1779" width="50" height="21" as="geometry" />
        </mxCell>
        <mxCell id="5tJ5e0qFEt_hm9HJa-Kv-743" value="batch k" style="rounded=1;whiteSpace=wrap;html=1;sketch=1;curveFitting=1;jiggle=2;" vertex="1" parent="1">
          <mxGeometry x="1844" y="1830" width="80" height="21" as="geometry" />
        </mxCell>
        <mxCell id="5tJ5e0qFEt_hm9HJa-Kv-744" value="&lt;b&gt;......&lt;/b&gt;" style="rounded=1;whiteSpace=wrap;html=1;sketch=1;curveFitting=1;jiggle=2;" vertex="1" parent="1">
          <mxGeometry x="1924" y="1830" width="80" height="21" as="geometry" />
        </mxCell>
        <mxCell id="5tJ5e0qFEt_hm9HJa-Kv-745" value="batch 1" style="rounded=0;whiteSpace=wrap;html=1;sketch=1;curveFitting=1;jiggle=2;" vertex="1" parent="1">
          <mxGeometry x="2004" y="1830" width="90" height="21" as="geometry" />
        </mxCell>
        <mxCell id="5tJ5e0qFEt_hm9HJa-Kv-765" style="edgeStyle=entityRelationEdgeStyle;rounded=0;orthogonalLoop=1;jettySize=auto;html=1;exitX=1;exitY=0.5;exitDx=0;exitDy=0;entryX=0;entryY=0.25;entryDx=0;entryDy=0;" edge="1" parent="1" source="5tJ5e0qFEt_hm9HJa-Kv-746" target="5tJ5e0qFEt_hm9HJa-Kv-734">
          <mxGeometry relative="1" as="geometry" />
        </mxCell>
        <mxCell id="5tJ5e0qFEt_hm9HJa-Kv-746" value="" style="rounded=1;whiteSpace=wrap;html=1;sketch=1;curveFitting=1;jiggle=2;fontStyle=1;fillColor=#cce5ff;strokeColor=#36393d;" vertex="1" parent="1">
          <mxGeometry x="1590" y="1726" width="160" height="36" as="geometry" />
        </mxCell>
        <mxCell id="5tJ5e0qFEt_hm9HJa-Kv-747" value="" style="rounded=1;whiteSpace=wrap;html=1;fillColor=#D4E1F5;strokeColor=#36393d;align=center;sketch=1;curveFitting=1;jiggle=2;" vertex="1" parent="1">
          <mxGeometry x="2141" y="1730" width="249" height="170" as="geometry" />
        </mxCell>
        <mxCell id="5tJ5e0qFEt_hm9HJa-Kv-749" value="推理" style="rounded=1;whiteSpace=wrap;html=1;fontStyle=1;fillColor=#76B900;sketch=1;curveFitting=1;jiggle=2;" vertex="1" parent="1">
          <mxGeometry x="2260" y="1759" width="90" height="54" as="geometry" />
        </mxCell>
        <mxCell id="5tJ5e0qFEt_hm9HJa-Kv-751" value="NVIDIA GPU" style="rounded=1;whiteSpace=wrap;html=1;fontStyle=1;fillColor=#76B900;sketch=1;curveFitting=1;jiggle=2;" vertex="1" parent="1">
          <mxGeometry x="2270" y="1854" width="94" height="36" as="geometry" />
        </mxCell>
        <mxCell id="5tJ5e0qFEt_hm9HJa-Kv-754" value="&lt;b&gt;......&lt;/b&gt;" style="text;html=1;strokeColor=none;fillColor=none;align=center;verticalAlign=middle;whiteSpace=wrap;rounded=0;" vertex="1" parent="1">
          <mxGeometry x="1645" y="1824" width="60" height="30" as="geometry" />
        </mxCell>
        <mxCell id="5tJ5e0qFEt_hm9HJa-Kv-755" value="AMD CPU" style="rounded=1;whiteSpace=wrap;html=1;fontStyle=1;fillColor=#0071C5;sketch=1;curveFitting=1;jiggle=2;" vertex="1" parent="1">
          <mxGeometry x="2161" y="1854" width="94" height="36" as="geometry" />
        </mxCell>
        <mxCell id="5tJ5e0qFEt_hm9HJa-Kv-756" value="HtoD Memcpy" style="rounded=1;whiteSpace=wrap;html=1;fontStyle=1;fillColor=#0071C5;sketch=1;curveFitting=1;jiggle=2;" vertex="1" parent="1">
          <mxGeometry x="2156" y="1776" width="90" height="24" as="geometry" />
        </mxCell>
        <mxCell id="5tJ5e0qFEt_hm9HJa-Kv-757" value="lookup" style="rounded=1;whiteSpace=wrap;html=1;fontStyle=1;fillColor=#0071C5;sketch=1;curveFitting=1;jiggle=2;" vertex="1" parent="1">
          <mxGeometry x="1600" y="1735" width="65" height="24" as="geometry" />
        </mxCell>
        <mxCell id="5tJ5e0qFEt_hm9HJa-Kv-758" value="pooling" style="rounded=1;whiteSpace=wrap;html=1;fontStyle=1;fillColor=#0071C5;sketch=1;curveFitting=1;jiggle=2;" vertex="1" parent="1">
          <mxGeometry x="1673" y="1734" width="60" height="24" as="geometry" />
        </mxCell>
        <mxCell id="5tJ5e0qFEt_hm9HJa-Kv-766" style="edgeStyle=entityRelationEdgeStyle;rounded=0;orthogonalLoop=1;jettySize=auto;html=1;exitX=1;exitY=0.5;exitDx=0;exitDy=0;entryX=0;entryY=0.25;entryDx=0;entryDy=0;" edge="1" parent="1" source="5tJ5e0qFEt_hm9HJa-Kv-759" target="5tJ5e0qFEt_hm9HJa-Kv-734">
          <mxGeometry relative="1" as="geometry" />
        </mxCell>
        <mxCell id="5tJ5e0qFEt_hm9HJa-Kv-759" value="" style="rounded=1;whiteSpace=wrap;html=1;sketch=1;curveFitting=1;jiggle=2;fontStyle=1;fillColor=#cce5ff;strokeColor=#36393d;" vertex="1" parent="1">
          <mxGeometry x="1590" y="1774" width="160" height="36" as="geometry" />
        </mxCell>
        <mxCell id="5tJ5e0qFEt_hm9HJa-Kv-760" value="lookup" style="rounded=1;whiteSpace=wrap;html=1;fontStyle=1;fillColor=#0071C5;sketch=1;curveFitting=1;jiggle=2;" vertex="1" parent="1">
          <mxGeometry x="1600" y="1783" width="65" height="24" as="geometry" />
        </mxCell>
        <mxCell id="5tJ5e0qFEt_hm9HJa-Kv-761" value="pooling" style="rounded=1;whiteSpace=wrap;html=1;fontStyle=1;fillColor=#0071C5;sketch=1;curveFitting=1;jiggle=2;" vertex="1" parent="1">
          <mxGeometry x="1673" y="1782" width="60" height="24" as="geometry" />
        </mxCell>
        <mxCell id="5tJ5e0qFEt_hm9HJa-Kv-767" style="edgeStyle=entityRelationEdgeStyle;rounded=0;orthogonalLoop=1;jettySize=auto;html=1;exitX=1;exitY=0.5;exitDx=0;exitDy=0;entryX=0;entryY=0.25;entryDx=0;entryDy=0;" edge="1" parent="1" source="5tJ5e0qFEt_hm9HJa-Kv-762" target="5tJ5e0qFEt_hm9HJa-Kv-734">
          <mxGeometry relative="1" as="geometry" />
        </mxCell>
        <mxCell id="5tJ5e0qFEt_hm9HJa-Kv-762" value="" style="rounded=1;whiteSpace=wrap;html=1;sketch=1;curveFitting=1;jiggle=2;fontStyle=1;fillColor=#cce5ff;strokeColor=#36393d;" vertex="1" parent="1">
          <mxGeometry x="1590" y="1864" width="160" height="36" as="geometry" />
        </mxCell>
        <mxCell id="5tJ5e0qFEt_hm9HJa-Kv-763" value="lookup" style="rounded=1;whiteSpace=wrap;html=1;fontStyle=1;fillColor=#0071C5;sketch=1;curveFitting=1;jiggle=2;" vertex="1" parent="1">
          <mxGeometry x="1600" y="1873" width="65" height="24" as="geometry" />
        </mxCell>
        <mxCell id="5tJ5e0qFEt_hm9HJa-Kv-764" value="pooling" style="rounded=1;whiteSpace=wrap;html=1;fontStyle=1;fillColor=#0071C5;sketch=1;curveFitting=1;jiggle=2;" vertex="1" parent="1">
          <mxGeometry x="1673" y="1872" width="60" height="24" as="geometry" />
        </mxCell>
        <mxCell id="5tJ5e0qFEt_hm9HJa-Kv-774" value="" style="rounded=0;whiteSpace=wrap;html=1;" vertex="1" parent="1">
          <mxGeometry x="2370" y="2001" width="290" height="130" as="geometry" />
        </mxCell>
        <mxCell id="5tJ5e0qFEt_hm9HJa-Kv-775" value="CPU" style="rounded=1;whiteSpace=wrap;html=1;fillColor=#0071c5;strokeColor=#1A1A1A;fontStyle=1" vertex="1" parent="1">
          <mxGeometry x="2270" y="2001" width="80" height="20" as="geometry" />
        </mxCell>
        <mxCell id="5tJ5e0qFEt_hm9HJa-Kv-776" style="edgeStyle=none;rounded=0;orthogonalLoop=1;jettySize=auto;html=1;exitX=0;exitY=0.5;exitDx=0;exitDy=0;entryX=1;entryY=0.5;entryDx=0;entryDy=0;endArrow=none;endFill=0;sketch=1;curveFitting=1;jiggle=2;" edge="1" parent="1" source="5tJ5e0qFEt_hm9HJa-Kv-774" target="5tJ5e0qFEt_hm9HJa-Kv-774">
          <mxGeometry relative="1" as="geometry" />
        </mxCell>
        <mxCell id="5tJ5e0qFEt_hm9HJa-Kv-777" value="GPU" style="rounded=1;whiteSpace=wrap;html=1;fillColor=#76b900;fontStyle=1;" vertex="1" parent="1">
          <mxGeometry x="2270" y="2031" width="80" height="20" as="geometry" />
        </mxCell>
        <mxCell id="5tJ5e0qFEt_hm9HJa-Kv-778" style="edgeStyle=orthogonalEdgeStyle;rounded=0;orthogonalLoop=1;jettySize=auto;html=1;exitX=0.5;exitY=1;exitDx=0;exitDy=0;entryX=0;entryY=0.5;entryDx=0;entryDy=0;" edge="1" parent="1" source="5tJ5e0qFEt_hm9HJa-Kv-780" target="5tJ5e0qFEt_hm9HJa-Kv-782">
          <mxGeometry relative="1" as="geometry" />
        </mxCell>
        <mxCell id="5tJ5e0qFEt_hm9HJa-Kv-779" style="edgeStyle=none;rounded=0;orthogonalLoop=1;jettySize=auto;html=1;exitX=1;exitY=0.5;exitDx=0;exitDy=0;entryX=0;entryY=0.5;entryDx=0;entryDy=0;" edge="1" parent="1" source="5tJ5e0qFEt_hm9HJa-Kv-780" target="5tJ5e0qFEt_hm9HJa-Kv-781">
          <mxGeometry relative="1" as="geometry" />
        </mxCell>
        <mxCell id="5tJ5e0qFEt_hm9HJa-Kv-780" value="特征" style="rounded=1;whiteSpace=wrap;html=1;fillColor=#0071C5;strokeColor=#1A1A1A;fontStyle=1" vertex="1" parent="1">
          <mxGeometry x="2407" y="2026" width="80" height="20" as="geometry" />
        </mxCell>
        <mxCell id="5tJ5e0qFEt_hm9HJa-Kv-781" value="GPU" style="rounded=1;whiteSpace=wrap;html=1;fillColor=#76B900;fontStyle=1;" vertex="1" parent="1">
          <mxGeometry x="2510" y="2026" width="80" height="20" as="geometry" />
        </mxCell>
        <mxCell id="5tJ5e0qFEt_hm9HJa-Kv-782" value="lookup" style="rounded=1;whiteSpace=wrap;html=1;fillColor=#0071C5;strokeColor=#1A1A1A;fontStyle=1" vertex="1" parent="1">
          <mxGeometry x="2468" y="2075" width="112" height="20" as="geometry" />
        </mxCell>
        <mxCell id="5tJ5e0qFEt_hm9HJa-Kv-783" style="edgeStyle=orthogonalEdgeStyle;rounded=0;orthogonalLoop=1;jettySize=auto;html=1;exitX=0;exitY=0.5;exitDx=0;exitDy=0;entryX=0;entryY=0.5;entryDx=0;entryDy=0;" edge="1" parent="1" source="5tJ5e0qFEt_hm9HJa-Kv-784" target="5tJ5e0qFEt_hm9HJa-Kv-780">
          <mxGeometry relative="1" as="geometry">
            <Array as="points">
              <mxPoint x="2390" y="2111" />
              <mxPoint x="2390" y="2036" />
            </Array>
          </mxGeometry>
        </mxCell>
        <mxCell id="5tJ5e0qFEt_hm9HJa-Kv-784" value="pooling" style="rounded=1;whiteSpace=wrap;html=1;fillColor=#0071C5;strokeColor=#1A1A1A;fontStyle=1" vertex="1" parent="1">
          <mxGeometry x="2468" y="2101" width="112" height="20" as="geometry" />
        </mxCell>
        <mxCell id="5tJ5e0qFEt_hm9HJa-Kv-785" value="业界竞品" style="text;html=1;strokeColor=none;fillColor=none;align=center;verticalAlign=middle;whiteSpace=wrap;rounded=0;sketch=1;curveFitting=1;jiggle=2;fontStyle=1" vertex="1" parent="1">
          <mxGeometry x="2601" y="1980" width="59" height="20" as="geometry" />
        </mxCell>
        <mxCell id="5tJ5e0qFEt_hm9HJa-Kv-786" value="推理" style="text;html=1;strokeColor=none;fillColor=none;align=center;verticalAlign=middle;whiteSpace=wrap;rounded=0;fontStyle=1" vertex="1" parent="1">
          <mxGeometry x="2583" y="2026" width="70" height="20" as="geometry" />
        </mxCell>
        <mxCell id="5tJ5e0qFEt_hm9HJa-Kv-787" value="内存、PS" style="text;html=1;strokeColor=none;fillColor=none;align=center;verticalAlign=middle;whiteSpace=wrap;rounded=0;fontStyle=1" vertex="1" parent="1">
          <mxGeometry x="2584" y="2089" width="70" height="20" as="geometry" />
        </mxCell>
        <mxCell id="5tJ5e0qFEt_hm9HJa-Kv-788" value="" style="rounded=0;whiteSpace=wrap;html=1;verticalAlign=bottom;strokeWidth=2;fillColor=none;" vertex="1" parent="1">
          <mxGeometry x="3172" y="2031.5" width="123" height="43.5" as="geometry" />
        </mxCell>
        <mxCell id="5tJ5e0qFEt_hm9HJa-Kv-792" value="" style="rounded=0;whiteSpace=wrap;html=1;strokeWidth=2;" vertex="1" parent="1">
          <mxGeometry x="3160" y="2188.25" width="310" height="101.75" as="geometry" />
        </mxCell>
        <mxCell id="5tJ5e0qFEt_hm9HJa-Kv-828" value="" style="group;movable=1;resizable=1;rotatable=1;deletable=1;editable=1;locked=0;connectable=1;flipH=1;" vertex="1" connectable="0" parent="1">
          <mxGeometry x="541" y="1049" width="40" height="10" as="geometry" />
        </mxCell>
        <mxCell id="5tJ5e0qFEt_hm9HJa-Kv-829" value="" style="rounded=0;whiteSpace=wrap;html=1;movable=1;resizable=1;rotatable=1;deletable=1;editable=1;locked=0;connectable=1;" vertex="1" parent="5tJ5e0qFEt_hm9HJa-Kv-828">
          <mxGeometry x="30" width="10" height="10" as="geometry" />
        </mxCell>
        <mxCell id="5tJ5e0qFEt_hm9HJa-Kv-830" value="" style="rounded=0;whiteSpace=wrap;html=1;movable=1;resizable=1;rotatable=1;deletable=1;editable=1;locked=0;connectable=1;" vertex="1" parent="5tJ5e0qFEt_hm9HJa-Kv-828">
          <mxGeometry x="20" width="10" height="10" as="geometry" />
        </mxCell>
        <mxCell id="5tJ5e0qFEt_hm9HJa-Kv-831" value="" style="rounded=0;whiteSpace=wrap;html=1;movable=1;resizable=1;rotatable=1;deletable=1;editable=1;locked=0;connectable=1;" vertex="1" parent="5tJ5e0qFEt_hm9HJa-Kv-828">
          <mxGeometry width="10" height="10" as="geometry" />
        </mxCell>
        <mxCell id="5tJ5e0qFEt_hm9HJa-Kv-832" value="" style="rounded=0;whiteSpace=wrap;html=1;movable=1;resizable=1;rotatable=1;deletable=1;editable=1;locked=0;connectable=1;" vertex="1" parent="5tJ5e0qFEt_hm9HJa-Kv-828">
          <mxGeometry x="10" width="10" height="10" as="geometry" />
        </mxCell>
        <mxCell id="5tJ5e0qFEt_hm9HJa-Kv-854" value="" style="group" vertex="1" connectable="0" parent="1">
          <mxGeometry x="3180" y="2136" width="129.25" height="60.25" as="geometry" />
        </mxCell>
        <mxCell id="5tJ5e0qFEt_hm9HJa-Kv-853" value="&lt;span style=&quot;font-weight: normal;&quot;&gt;cacheline&lt;/span&gt;" style="rounded=0;whiteSpace=wrap;html=1;verticalAlign=top;labelPosition=center;verticalLabelPosition=middle;align=center;fontStyle=1;strokeWidth=2;" vertex="1" parent="5tJ5e0qFEt_hm9HJa-Kv-854">
          <mxGeometry x="5" y="-18" width="97" height="39.5" as="geometry" />
        </mxCell>
        <mxCell id="5tJ5e0qFEt_hm9HJa-Kv-846" value="" style="rounded=0;whiteSpace=wrap;html=1;container=0;fillColor=#CC0000;" vertex="1" parent="5tJ5e0qFEt_hm9HJa-Kv-854">
          <mxGeometry x="53" y="8.5" width="12" height="12" as="geometry" />
        </mxCell>
        <mxCell id="5tJ5e0qFEt_hm9HJa-Kv-847" value="" style="rounded=0;whiteSpace=wrap;html=1;container=0;fillColor=#CC0000;" vertex="1" parent="5tJ5e0qFEt_hm9HJa-Kv-854">
          <mxGeometry x="65" y="8.5" width="12" height="12" as="geometry" />
        </mxCell>
        <mxCell id="5tJ5e0qFEt_hm9HJa-Kv-848" value="" style="rounded=0;whiteSpace=wrap;html=1;container=0;fillColor=#CC0000;" vertex="1" parent="5tJ5e0qFEt_hm9HJa-Kv-854">
          <mxGeometry x="77" y="8.5" width="12" height="12" as="geometry" />
        </mxCell>
        <mxCell id="5tJ5e0qFEt_hm9HJa-Kv-849" value="" style="rounded=0;whiteSpace=wrap;html=1;container=0;fillColor=#CC0000;" vertex="1" parent="5tJ5e0qFEt_hm9HJa-Kv-854">
          <mxGeometry x="89" y="8.5" width="12" height="12" as="geometry" />
        </mxCell>
        <mxCell id="F06jq8IFjxAQC7QXPxzw-55" value="" style="rounded=0;whiteSpace=wrap;html=1;container=0;fillColor=#CC0000;" parent="5tJ5e0qFEt_hm9HJa-Kv-854" vertex="1">
          <mxGeometry x="5" y="8.5" width="12" height="12" as="geometry" />
        </mxCell>
        <mxCell id="5tJ5e0qFEt_hm9HJa-Kv-842" value="" style="rounded=0;whiteSpace=wrap;html=1;container=0;fillColor=#CC0000;" vertex="1" parent="5tJ5e0qFEt_hm9HJa-Kv-854">
          <mxGeometry x="17" y="8.5" width="12" height="12" as="geometry" />
        </mxCell>
        <mxCell id="5tJ5e0qFEt_hm9HJa-Kv-843" value="" style="rounded=0;whiteSpace=wrap;html=1;container=0;fillColor=#CC0000;" vertex="1" parent="5tJ5e0qFEt_hm9HJa-Kv-854">
          <mxGeometry x="29" y="8.5" width="12" height="12" as="geometry" />
        </mxCell>
        <mxCell id="5tJ5e0qFEt_hm9HJa-Kv-844" value="" style="rounded=0;whiteSpace=wrap;html=1;container=0;fillColor=#CC0000;" vertex="1" parent="5tJ5e0qFEt_hm9HJa-Kv-854">
          <mxGeometry x="41" y="8.5" width="12" height="12" as="geometry" />
        </mxCell>
        <mxCell id="5tJ5e0qFEt_hm9HJa-Kv-855" value="&lt;b&gt;L2 Cache&lt;/b&gt;" style="text;html=1;strokeColor=none;fillColor=none;align=center;verticalAlign=middle;whiteSpace=wrap;rounded=0;" vertex="1" parent="1">
          <mxGeometry x="3195" y="2099" width="80" height="15" as="geometry" />
        </mxCell>
        <mxCell id="5tJ5e0qFEt_hm9HJa-Kv-947" style="edgeStyle=none;rounded=0;orthogonalLoop=1;jettySize=auto;html=1;exitX=0.25;exitY=1;exitDx=0;exitDy=0;entryX=0.375;entryY=-0.2;entryDx=0;entryDy=0;entryPerimeter=0;endArrow=none;endFill=0;strokeWidth=5;" edge="1" parent="1">
          <mxGeometry relative="1" as="geometry">
            <mxPoint x="3230.75" y="2075" as="sourcePoint" />
            <mxPoint x="3231" y="2096" as="targetPoint" />
          </mxGeometry>
        </mxCell>
        <mxCell id="5tJ5e0qFEt_hm9HJa-Kv-856" value="&lt;b&gt;CPU 0&lt;/b&gt;" style="text;html=1;strokeColor=none;fillColor=none;align=center;verticalAlign=middle;whiteSpace=wrap;rounded=0;" vertex="1" parent="1">
          <mxGeometry x="3212" y="2060" width="51" height="15" as="geometry" />
        </mxCell>
        <mxCell id="5tJ5e0qFEt_hm9HJa-Kv-935" style="edgeStyle=none;rounded=0;orthogonalLoop=1;jettySize=auto;html=1;exitX=0.25;exitY=1;exitDx=0;exitDy=0;entryX=0.75;entryY=0;entryDx=0;entryDy=0;strokeColor=#CC0000;" edge="1" parent="1" source="5tJ5e0qFEt_hm9HJa-Kv-857" target="F06jq8IFjxAQC7QXPxzw-55">
          <mxGeometry relative="1" as="geometry" />
        </mxCell>
        <mxCell id="5tJ5e0qFEt_hm9HJa-Kv-857" value="&lt;font color=&quot;#cc0000&quot;&gt;thread 0&lt;/font&gt;" style="rounded=0;whiteSpace=wrap;html=1;fillColor=none;strokeColor=#CC0000;strokeWidth=2;" vertex="1" parent="1">
          <mxGeometry x="3179" y="2037" width="60" height="20" as="geometry" />
        </mxCell>
        <mxCell id="5tJ5e0qFEt_hm9HJa-Kv-860" value="" style="sketch=0;pointerEvents=1;shadow=0;dashed=0;html=1;strokeColor=none;fillColor=#434445;aspect=fixed;labelPosition=center;verticalLabelPosition=bottom;verticalAlign=top;align=center;outlineConnect=0;shape=mxgraph.vvd.cpu;strokeWidth=2;gradientColor=none;" vertex="1" parent="1">
          <mxGeometry x="3265" y="2043.75" width="19" height="19" as="geometry" />
        </mxCell>
        <mxCell id="5tJ5e0qFEt_hm9HJa-Kv-861" value="" style="rounded=0;whiteSpace=wrap;html=1;strokeWidth=2;" vertex="1" parent="1">
          <mxGeometry x="3335" y="2096" width="123" height="70" as="geometry" />
        </mxCell>
        <mxCell id="5tJ5e0qFEt_hm9HJa-Kv-862" value="" style="rounded=0;whiteSpace=wrap;html=1;verticalAlign=bottom;strokeWidth=2;fillColor=none;" vertex="1" parent="1">
          <mxGeometry x="3335" y="2031.5" width="123" height="43.5" as="geometry" />
        </mxCell>
        <mxCell id="5tJ5e0qFEt_hm9HJa-Kv-863" value="" style="group" vertex="1" connectable="0" parent="1">
          <mxGeometry x="3348" y="2130" width="129.25" height="60.25" as="geometry" />
        </mxCell>
        <mxCell id="5tJ5e0qFEt_hm9HJa-Kv-864" value="&lt;span style=&quot;font-weight: normal;&quot;&gt;cacheline&lt;/span&gt;" style="rounded=0;whiteSpace=wrap;html=1;verticalAlign=top;labelPosition=center;verticalLabelPosition=middle;align=center;fontStyle=1;strokeWidth=2;" vertex="1" parent="5tJ5e0qFEt_hm9HJa-Kv-863">
          <mxGeometry y="-12" width="97" height="39.5" as="geometry" />
        </mxCell>
        <mxCell id="5tJ5e0qFEt_hm9HJa-Kv-865" value="" style="rounded=0;whiteSpace=wrap;html=1;container=0;fillColor=#CC6600;" vertex="1" parent="5tJ5e0qFEt_hm9HJa-Kv-863">
          <mxGeometry x="48" y="14.5" width="12" height="12" as="geometry" />
        </mxCell>
        <mxCell id="5tJ5e0qFEt_hm9HJa-Kv-866" value="" style="rounded=0;whiteSpace=wrap;html=1;container=0;fillColor=#CC6600;" vertex="1" parent="5tJ5e0qFEt_hm9HJa-Kv-863">
          <mxGeometry x="60" y="14.5" width="12" height="12" as="geometry" />
        </mxCell>
        <mxCell id="5tJ5e0qFEt_hm9HJa-Kv-867" value="" style="rounded=0;whiteSpace=wrap;html=1;container=0;fillColor=#CC6600;" vertex="1" parent="5tJ5e0qFEt_hm9HJa-Kv-863">
          <mxGeometry x="72" y="14.5" width="12" height="12" as="geometry" />
        </mxCell>
        <mxCell id="5tJ5e0qFEt_hm9HJa-Kv-868" value="" style="rounded=0;whiteSpace=wrap;html=1;container=0;fillColor=#CC6600;" vertex="1" parent="5tJ5e0qFEt_hm9HJa-Kv-863">
          <mxGeometry x="84" y="14.5" width="12" height="12" as="geometry" />
        </mxCell>
        <mxCell id="5tJ5e0qFEt_hm9HJa-Kv-869" value="" style="rounded=0;whiteSpace=wrap;html=1;container=0;fillColor=#CC6600;" vertex="1" parent="5tJ5e0qFEt_hm9HJa-Kv-863">
          <mxGeometry y="14.5" width="12" height="12" as="geometry" />
        </mxCell>
        <mxCell id="5tJ5e0qFEt_hm9HJa-Kv-870" value="" style="rounded=0;whiteSpace=wrap;html=1;container=0;fillColor=#CC6600;" vertex="1" parent="5tJ5e0qFEt_hm9HJa-Kv-863">
          <mxGeometry x="12" y="14.5" width="12" height="12" as="geometry" />
        </mxCell>
        <mxCell id="5tJ5e0qFEt_hm9HJa-Kv-871" value="" style="rounded=0;whiteSpace=wrap;html=1;container=0;fillColor=#CC6600;" vertex="1" parent="5tJ5e0qFEt_hm9HJa-Kv-863">
          <mxGeometry x="24" y="14.5" width="12" height="12" as="geometry" />
        </mxCell>
        <mxCell id="5tJ5e0qFEt_hm9HJa-Kv-872" value="" style="rounded=0;whiteSpace=wrap;html=1;container=0;fillColor=#CC6600;" vertex="1" parent="5tJ5e0qFEt_hm9HJa-Kv-863">
          <mxGeometry x="36" y="14.5" width="12" height="12" as="geometry" />
        </mxCell>
        <mxCell id="5tJ5e0qFEt_hm9HJa-Kv-873" value="&lt;b&gt;L2 Cache&lt;/b&gt;" style="text;html=1;strokeColor=none;fillColor=none;align=center;verticalAlign=middle;whiteSpace=wrap;rounded=0;" vertex="1" parent="1">
          <mxGeometry x="3358" y="2099" width="80" height="15" as="geometry" />
        </mxCell>
        <mxCell id="5tJ5e0qFEt_hm9HJa-Kv-874" value="&lt;b&gt;CPU 1&lt;/b&gt;" style="text;html=1;strokeColor=none;fillColor=none;align=center;verticalAlign=middle;whiteSpace=wrap;rounded=0;" vertex="1" parent="1">
          <mxGeometry x="3375" y="2060" width="51" height="15" as="geometry" />
        </mxCell>
        <mxCell id="5tJ5e0qFEt_hm9HJa-Kv-936" style="edgeStyle=none;rounded=0;orthogonalLoop=1;jettySize=auto;html=1;exitX=0.25;exitY=1;exitDx=0;exitDy=0;entryX=0.75;entryY=0;entryDx=0;entryDy=0;strokeColor=#CC6600;" edge="1" parent="1" source="5tJ5e0qFEt_hm9HJa-Kv-875" target="5tJ5e0qFEt_hm9HJa-Kv-869">
          <mxGeometry relative="1" as="geometry" />
        </mxCell>
        <mxCell id="5tJ5e0qFEt_hm9HJa-Kv-875" value="&lt;font color=&quot;#cc6600&quot;&gt;thread 1&lt;/font&gt;" style="rounded=0;whiteSpace=wrap;html=1;fillColor=none;strokeColor=#CC6600;strokeWidth=2;" vertex="1" parent="1">
          <mxGeometry x="3342" y="2037" width="60" height="20" as="geometry" />
        </mxCell>
        <mxCell id="5tJ5e0qFEt_hm9HJa-Kv-878" value="" style="sketch=0;pointerEvents=1;shadow=0;dashed=0;html=1;strokeColor=none;fillColor=#434445;aspect=fixed;labelPosition=center;verticalLabelPosition=bottom;verticalAlign=top;align=center;outlineConnect=0;shape=mxgraph.vvd.cpu;strokeWidth=2;gradientColor=none;" vertex="1" parent="1">
          <mxGeometry x="3428" y="2043.75" width="19" height="19" as="geometry" />
        </mxCell>
        <mxCell id="5tJ5e0qFEt_hm9HJa-Kv-880" value="&lt;font style=&quot;font-size: 10px;&quot;&gt;HashMap&lt;/font&gt;" style="rounded=0;whiteSpace=wrap;html=1;verticalAlign=middle;horizontal=0;fontSize=9;fontStyle=1;strokeWidth=2;" vertex="1" parent="1">
          <mxGeometry x="3396" y="2203.5" width="30" height="60" as="geometry" />
        </mxCell>
        <mxCell id="5tJ5e0qFEt_hm9HJa-Kv-881" value="&lt;font style=&quot;font-weight: normal; font-size: 11px;&quot;&gt;HashMap&lt;/font&gt;" style="rounded=0;whiteSpace=wrap;html=1;verticalAlign=bottom;horizontal=0;fontSize=9;labelPosition=center;verticalLabelPosition=middle;align=center;fontStyle=1;strokeWidth=2;" vertex="1" parent="1">
          <mxGeometry x="3177" y="2204" width="210" height="60" as="geometry" />
        </mxCell>
        <mxCell id="5tJ5e0qFEt_hm9HJa-Kv-882" value="" style="rounded=0;whiteSpace=wrap;html=1;container=0;fillColor=#CC0000;" vertex="1" parent="1">
          <mxGeometry x="3232" y="2215.5" width="12" height="12" as="geometry" />
        </mxCell>
        <mxCell id="5tJ5e0qFEt_hm9HJa-Kv-883" value="" style="rounded=0;whiteSpace=wrap;html=1;container=0;fillColor=#CC0000;" vertex="1" parent="1">
          <mxGeometry x="3244" y="2215.5" width="12" height="12" as="geometry" />
        </mxCell>
        <mxCell id="5tJ5e0qFEt_hm9HJa-Kv-884" value="" style="rounded=0;whiteSpace=wrap;html=1;container=0;fillColor=#CC0000;" vertex="1" parent="1">
          <mxGeometry x="3256" y="2215.5" width="12" height="12" as="geometry" />
        </mxCell>
        <mxCell id="5tJ5e0qFEt_hm9HJa-Kv-885" value="" style="rounded=0;whiteSpace=wrap;html=1;container=0;fillColor=#CC0000;" vertex="1" parent="1">
          <mxGeometry x="3268" y="2215.5" width="12" height="12" as="geometry" />
        </mxCell>
        <mxCell id="5tJ5e0qFEt_hm9HJa-Kv-886" value="" style="rounded=0;whiteSpace=wrap;html=1;container=0;" vertex="1" parent="1">
          <mxGeometry x="3184" y="2215.5" width="12" height="12" as="geometry" />
        </mxCell>
        <mxCell id="5tJ5e0qFEt_hm9HJa-Kv-963" style="edgeStyle=orthogonalEdgeStyle;rounded=0;orthogonalLoop=1;jettySize=auto;html=1;exitX=0;exitY=0.5;exitDx=0;exitDy=0;entryX=0;entryY=0.75;entryDx=0;entryDy=0;curved=1;strokeWidth=3;strokeColor=#0071C5;" edge="1" parent="1" source="5tJ5e0qFEt_hm9HJa-Kv-887" target="5tJ5e0qFEt_hm9HJa-Kv-853">
          <mxGeometry relative="1" as="geometry">
            <Array as="points">
              <mxPoint x="3196" y="2219" />
              <mxPoint x="3150" y="2219" />
              <mxPoint x="3150" y="2148" />
            </Array>
          </mxGeometry>
        </mxCell>
        <mxCell id="5tJ5e0qFEt_hm9HJa-Kv-887" value="" style="rounded=0;whiteSpace=wrap;html=1;container=0;fillColor=#CC0000;" vertex="1" parent="1">
          <mxGeometry x="3196" y="2215.5" width="12" height="12" as="geometry" />
        </mxCell>
        <mxCell id="5tJ5e0qFEt_hm9HJa-Kv-888" value="" style="rounded=0;whiteSpace=wrap;html=1;container=0;fillColor=#CC0000;" vertex="1" parent="1">
          <mxGeometry x="3208" y="2215.5" width="12" height="12" as="geometry" />
        </mxCell>
        <mxCell id="5tJ5e0qFEt_hm9HJa-Kv-889" value="" style="rounded=0;whiteSpace=wrap;html=1;container=0;fillColor=#CC0000;" vertex="1" parent="1">
          <mxGeometry x="3220" y="2215.5" width="12" height="12" as="geometry" />
        </mxCell>
        <mxCell id="5tJ5e0qFEt_hm9HJa-Kv-890" value="" style="rounded=0;whiteSpace=wrap;html=1;container=0;fillColor=none;" vertex="1" parent="1">
          <mxGeometry x="3232" y="2227.5" width="12" height="12" as="geometry" />
        </mxCell>
        <mxCell id="5tJ5e0qFEt_hm9HJa-Kv-891" value="" style="rounded=0;whiteSpace=wrap;html=1;container=0;fillColor=none;" vertex="1" parent="1">
          <mxGeometry x="3244" y="2227.5" width="12" height="12" as="geometry" />
        </mxCell>
        <mxCell id="5tJ5e0qFEt_hm9HJa-Kv-892" value="" style="rounded=0;whiteSpace=wrap;html=1;container=0;fillColor=none;" vertex="1" parent="1">
          <mxGeometry x="3256" y="2227.5" width="12" height="12" as="geometry" />
        </mxCell>
        <mxCell id="5tJ5e0qFEt_hm9HJa-Kv-893" value="" style="rounded=0;whiteSpace=wrap;html=1;container=0;fillColor=#CC6600;" vertex="1" parent="1">
          <mxGeometry x="3268" y="2227.5" width="12" height="12" as="geometry" />
        </mxCell>
        <mxCell id="5tJ5e0qFEt_hm9HJa-Kv-894" value="" style="rounded=0;whiteSpace=wrap;html=1;container=0;fillColor=none;" vertex="1" parent="1">
          <mxGeometry x="3184" y="2227.5" width="12" height="12" as="geometry" />
        </mxCell>
        <mxCell id="5tJ5e0qFEt_hm9HJa-Kv-895" value="" style="rounded=0;whiteSpace=wrap;html=1;container=0;fillColor=none;" vertex="1" parent="1">
          <mxGeometry x="3196" y="2227.5" width="12" height="12" as="geometry" />
        </mxCell>
        <mxCell id="5tJ5e0qFEt_hm9HJa-Kv-896" value="" style="rounded=0;whiteSpace=wrap;html=1;container=0;fillColor=none;" vertex="1" parent="1">
          <mxGeometry x="3208" y="2227.5" width="12" height="12" as="geometry" />
        </mxCell>
        <mxCell id="5tJ5e0qFEt_hm9HJa-Kv-897" value="" style="rounded=0;whiteSpace=wrap;html=1;container=0;fillColor=none;" vertex="1" parent="1">
          <mxGeometry x="3220" y="2227.5" width="12" height="12" as="geometry" />
        </mxCell>
        <mxCell id="5tJ5e0qFEt_hm9HJa-Kv-898" value="" style="rounded=0;whiteSpace=wrap;html=1;container=0;" vertex="1" parent="1">
          <mxGeometry x="3316" y="2215.5" width="12" height="12" as="geometry" />
        </mxCell>
        <mxCell id="5tJ5e0qFEt_hm9HJa-Kv-899" value="" style="rounded=0;whiteSpace=wrap;html=1;container=0;" vertex="1" parent="1">
          <mxGeometry x="3328" y="2215.5" width="12" height="12" as="geometry" />
        </mxCell>
        <mxCell id="5tJ5e0qFEt_hm9HJa-Kv-900" value="" style="rounded=0;whiteSpace=wrap;html=1;container=0;" vertex="1" parent="1">
          <mxGeometry x="3340" y="2215.5" width="12" height="12" as="geometry" />
        </mxCell>
        <mxCell id="5tJ5e0qFEt_hm9HJa-Kv-901" value="" style="rounded=0;whiteSpace=wrap;html=1;container=0;" vertex="1" parent="1">
          <mxGeometry x="3352" y="2215.5" width="12" height="12" as="geometry" />
        </mxCell>
        <mxCell id="5tJ5e0qFEt_hm9HJa-Kv-902" value="" style="rounded=0;whiteSpace=wrap;html=1;container=0;fillColor=#CC0000;" vertex="1" parent="1">
          <mxGeometry x="3268" y="2215.5" width="12" height="12" as="geometry" />
        </mxCell>
        <mxCell id="5tJ5e0qFEt_hm9HJa-Kv-903" value="" style="rounded=0;whiteSpace=wrap;html=1;container=0;fillColor=#CC0000;" vertex="1" parent="1">
          <mxGeometry x="3280" y="2215.5" width="12" height="12" as="geometry" />
        </mxCell>
        <mxCell id="5tJ5e0qFEt_hm9HJa-Kv-904" value="" style="rounded=0;whiteSpace=wrap;html=1;container=0;" vertex="1" parent="1">
          <mxGeometry x="3292" y="2215.5" width="12" height="12" as="geometry" />
        </mxCell>
        <mxCell id="5tJ5e0qFEt_hm9HJa-Kv-905" value="" style="rounded=0;whiteSpace=wrap;html=1;container=0;" vertex="1" parent="1">
          <mxGeometry x="3304" y="2215.5" width="12" height="12" as="geometry" />
        </mxCell>
        <mxCell id="5tJ5e0qFEt_hm9HJa-Kv-906" value="" style="rounded=0;whiteSpace=wrap;html=1;container=0;fillColor=#CC6600;" vertex="1" parent="1">
          <mxGeometry x="3316" y="2227.5" width="12" height="12" as="geometry" />
        </mxCell>
        <mxCell id="5tJ5e0qFEt_hm9HJa-Kv-907" value="" style="rounded=0;whiteSpace=wrap;html=1;container=0;fillColor=#CC6600;" vertex="1" parent="1">
          <mxGeometry x="3328" y="2227.5" width="12" height="12" as="geometry" />
        </mxCell>
        <mxCell id="5tJ5e0qFEt_hm9HJa-Kv-908" value="" style="rounded=0;whiteSpace=wrap;html=1;container=0;fillColor=#CC6600;" vertex="1" parent="1">
          <mxGeometry x="3340" y="2227.5" width="12" height="12" as="geometry" />
        </mxCell>
        <mxCell id="5tJ5e0qFEt_hm9HJa-Kv-965" style="edgeStyle=orthogonalEdgeStyle;rounded=0;orthogonalLoop=1;jettySize=auto;html=1;exitX=1;exitY=0.25;exitDx=0;exitDy=0;entryX=0;entryY=0.75;entryDx=0;entryDy=0;curved=1;strokeWidth=3;strokeColor=#0071C5;" edge="1" parent="1" source="5tJ5e0qFEt_hm9HJa-Kv-909" target="5tJ5e0qFEt_hm9HJa-Kv-864">
          <mxGeometry relative="1" as="geometry" />
        </mxCell>
        <mxCell id="5tJ5e0qFEt_hm9HJa-Kv-909" value="" style="rounded=0;whiteSpace=wrap;html=1;container=0;fillColor=#CC6600;" vertex="1" parent="1">
          <mxGeometry x="3352" y="2227.5" width="12" height="12" as="geometry" />
        </mxCell>
        <mxCell id="5tJ5e0qFEt_hm9HJa-Kv-910" value="" style="rounded=0;whiteSpace=wrap;html=1;container=0;fillColor=#CC6600;" vertex="1" parent="1">
          <mxGeometry x="3268" y="2227.5" width="12" height="12" as="geometry" />
        </mxCell>
        <mxCell id="5tJ5e0qFEt_hm9HJa-Kv-911" value="" style="rounded=0;whiteSpace=wrap;html=1;container=0;fillColor=#CC6600;" vertex="1" parent="1">
          <mxGeometry x="3280" y="2227.5" width="12" height="12" as="geometry" />
        </mxCell>
        <mxCell id="5tJ5e0qFEt_hm9HJa-Kv-912" value="" style="rounded=0;whiteSpace=wrap;html=1;container=0;fillColor=#CC6600;" vertex="1" parent="1">
          <mxGeometry x="3292" y="2227.5" width="12" height="12" as="geometry" />
        </mxCell>
        <mxCell id="5tJ5e0qFEt_hm9HJa-Kv-913" value="" style="rounded=0;whiteSpace=wrap;html=1;container=0;fillColor=#CC6600;" vertex="1" parent="1">
          <mxGeometry x="3304" y="2227.5" width="12" height="12" as="geometry" />
        </mxCell>
        <mxCell id="5tJ5e0qFEt_hm9HJa-Kv-914" value="" style="rounded=0;whiteSpace=wrap;html=1;container=0;" vertex="1" parent="1">
          <mxGeometry x="3232" y="2239.5" width="12" height="12" as="geometry" />
        </mxCell>
        <mxCell id="5tJ5e0qFEt_hm9HJa-Kv-915" value="" style="rounded=0;whiteSpace=wrap;html=1;container=0;" vertex="1" parent="1">
          <mxGeometry x="3244" y="2239.5" width="12" height="12" as="geometry" />
        </mxCell>
        <mxCell id="5tJ5e0qFEt_hm9HJa-Kv-916" value="" style="rounded=0;whiteSpace=wrap;html=1;container=0;" vertex="1" parent="1">
          <mxGeometry x="3256" y="2239.5" width="12" height="12" as="geometry" />
        </mxCell>
        <mxCell id="5tJ5e0qFEt_hm9HJa-Kv-917" value="" style="rounded=0;whiteSpace=wrap;html=1;container=0;" vertex="1" parent="1">
          <mxGeometry x="3268" y="2239.5" width="12" height="12" as="geometry" />
        </mxCell>
        <mxCell id="5tJ5e0qFEt_hm9HJa-Kv-918" value="" style="rounded=0;whiteSpace=wrap;html=1;container=0;" vertex="1" parent="1">
          <mxGeometry x="3184" y="2239.5" width="12" height="12" as="geometry" />
        </mxCell>
        <mxCell id="5tJ5e0qFEt_hm9HJa-Kv-919" value="" style="rounded=0;whiteSpace=wrap;html=1;container=0;" vertex="1" parent="1">
          <mxGeometry x="3196" y="2239.5" width="12" height="12" as="geometry" />
        </mxCell>
        <mxCell id="5tJ5e0qFEt_hm9HJa-Kv-920" value="" style="rounded=0;whiteSpace=wrap;html=1;container=0;" vertex="1" parent="1">
          <mxGeometry x="3208" y="2239.5" width="12" height="12" as="geometry" />
        </mxCell>
        <mxCell id="5tJ5e0qFEt_hm9HJa-Kv-921" value="" style="rounded=0;whiteSpace=wrap;html=1;container=0;" vertex="1" parent="1">
          <mxGeometry x="3220" y="2239.5" width="12" height="12" as="geometry" />
        </mxCell>
        <mxCell id="5tJ5e0qFEt_hm9HJa-Kv-922" value="" style="rounded=0;whiteSpace=wrap;html=1;container=0;" vertex="1" parent="1">
          <mxGeometry x="3316" y="2239.5" width="12" height="12" as="geometry" />
        </mxCell>
        <mxCell id="5tJ5e0qFEt_hm9HJa-Kv-923" value="" style="rounded=0;whiteSpace=wrap;html=1;container=0;" vertex="1" parent="1">
          <mxGeometry x="3328" y="2239.5" width="12" height="12" as="geometry" />
        </mxCell>
        <mxCell id="5tJ5e0qFEt_hm9HJa-Kv-924" value="" style="rounded=0;whiteSpace=wrap;html=1;container=0;" vertex="1" parent="1">
          <mxGeometry x="3340" y="2239.5" width="12" height="12" as="geometry" />
        </mxCell>
        <mxCell id="5tJ5e0qFEt_hm9HJa-Kv-925" value="" style="rounded=0;whiteSpace=wrap;html=1;container=0;" vertex="1" parent="1">
          <mxGeometry x="3352" y="2239.5" width="12" height="12" as="geometry" />
        </mxCell>
        <mxCell id="5tJ5e0qFEt_hm9HJa-Kv-926" value="" style="rounded=0;whiteSpace=wrap;html=1;container=0;" vertex="1" parent="1">
          <mxGeometry x="3268" y="2239.5" width="12" height="12" as="geometry" />
        </mxCell>
        <mxCell id="5tJ5e0qFEt_hm9HJa-Kv-927" value="" style="rounded=0;whiteSpace=wrap;html=1;container=0;" vertex="1" parent="1">
          <mxGeometry x="3280" y="2239.5" width="12" height="12" as="geometry" />
        </mxCell>
        <mxCell id="5tJ5e0qFEt_hm9HJa-Kv-928" value="" style="rounded=0;whiteSpace=wrap;html=1;container=0;" vertex="1" parent="1">
          <mxGeometry x="3292" y="2239.5" width="12" height="12" as="geometry" />
        </mxCell>
        <mxCell id="5tJ5e0qFEt_hm9HJa-Kv-929" value="" style="rounded=0;whiteSpace=wrap;html=1;container=0;" vertex="1" parent="1">
          <mxGeometry x="3304" y="2239.5" width="12" height="12" as="geometry" />
        </mxCell>
        <mxCell id="5tJ5e0qFEt_hm9HJa-Kv-930" value="&lt;font style=&quot;font-size: 10px;&quot;&gt;HashMap&lt;/font&gt;" style="rounded=0;whiteSpace=wrap;html=1;verticalAlign=middle;horizontal=0;fontSize=9;fontStyle=1;strokeWidth=2;" vertex="1" parent="1">
          <mxGeometry x="3404" y="2203.5" width="30" height="60" as="geometry" />
        </mxCell>
        <mxCell id="5tJ5e0qFEt_hm9HJa-Kv-931" value="&lt;font style=&quot;font-size: 10px;&quot;&gt;HashMap&lt;/font&gt;" style="rounded=0;whiteSpace=wrap;html=1;verticalAlign=middle;horizontal=0;fontSize=9;fontStyle=1;strokeWidth=2;" vertex="1" parent="1">
          <mxGeometry x="3414" y="2203.5" width="30" height="60" as="geometry" />
        </mxCell>
        <mxCell id="5tJ5e0qFEt_hm9HJa-Kv-932" value="&lt;font style=&quot;font-size: 10px; font-weight: normal;&quot;&gt;HashMap&lt;/font&gt;" style="rounded=0;whiteSpace=wrap;html=1;verticalAlign=middle;horizontal=0;fontSize=9;fontStyle=1;strokeWidth=2;" vertex="1" parent="1">
          <mxGeometry x="3424" y="2203.5" width="30" height="60" as="geometry" />
        </mxCell>
        <mxCell id="5tJ5e0qFEt_hm9HJa-Kv-933" value="&lt;b&gt;Memory&lt;/b&gt;" style="text;html=1;strokeColor=none;fillColor=none;align=center;verticalAlign=middle;whiteSpace=wrap;rounded=0;" vertex="1" parent="1">
          <mxGeometry x="3283" y="2270" width="60" height="16" as="geometry" />
        </mxCell>
        <mxCell id="5tJ5e0qFEt_hm9HJa-Kv-949" style="edgeStyle=none;rounded=0;orthogonalLoop=1;jettySize=auto;html=1;exitX=0.25;exitY=1;exitDx=0;exitDy=0;entryX=0.375;entryY=-0.2;entryDx=0;entryDy=0;entryPerimeter=0;endArrow=none;endFill=0;strokeWidth=5;" edge="1" parent="1">
          <mxGeometry relative="1" as="geometry">
            <mxPoint x="3397" y="2075" as="sourcePoint" />
            <mxPoint x="3397" y="2096" as="targetPoint" />
          </mxGeometry>
        </mxCell>
        <mxCell id="5tJ5e0qFEt_hm9HJa-Kv-951" style="edgeStyle=none;rounded=0;orthogonalLoop=1;jettySize=auto;html=1;exitX=0.25;exitY=1;exitDx=0;exitDy=0;entryX=0.375;entryY=-0.2;entryDx=0;entryDy=0;entryPerimeter=0;endArrow=none;endFill=0;strokeWidth=4;" edge="1" parent="1">
          <mxGeometry relative="1" as="geometry">
            <mxPoint x="3230.75" y="2166" as="sourcePoint" />
            <mxPoint x="3231" y="2187" as="targetPoint" />
          </mxGeometry>
        </mxCell>
        <mxCell id="5tJ5e0qFEt_hm9HJa-Kv-952" style="edgeStyle=none;rounded=0;orthogonalLoop=1;jettySize=auto;html=1;exitX=0.25;exitY=1;exitDx=0;exitDy=0;entryX=0.375;entryY=-0.2;entryDx=0;entryDy=0;entryPerimeter=0;endArrow=none;endFill=0;strokeWidth=4;" edge="1" parent="1">
          <mxGeometry relative="1" as="geometry">
            <mxPoint x="3396.75" y="2167" as="sourcePoint" />
            <mxPoint x="3397" y="2188" as="targetPoint" />
          </mxGeometry>
        </mxCell>
        <mxCell id="5tJ5e0qFEt_hm9HJa-Kv-957" value="" style="verticalLabelPosition=bottom;verticalAlign=top;html=1;shape=mxgraph.basic.star" vertex="1" parent="1">
          <mxGeometry x="3324" y="2810" width="100" height="95" as="geometry" />
        </mxCell>
        <mxCell id="5tJ5e0qFEt_hm9HJa-Kv-969" value="" style="rounded=0;whiteSpace=wrap;html=1;container=0;fillColor=#0071C5;" vertex="1" parent="1">
          <mxGeometry x="3160" y="2347.5" width="60" height="12" as="geometry" />
        </mxCell>
        <mxCell id="5tJ5e0qFEt_hm9HJa-Kv-979" style="edgeStyle=none;rounded=0;orthogonalLoop=1;jettySize=auto;html=1;exitX=1;exitY=1;exitDx=0;exitDy=0;entryX=0;entryY=0;entryDx=0;entryDy=0;" edge="1" parent="1" source="5tJ5e0qFEt_hm9HJa-Kv-970" target="5tJ5e0qFEt_hm9HJa-Kv-972">
          <mxGeometry relative="1" as="geometry" />
        </mxCell>
        <mxCell id="5tJ5e0qFEt_hm9HJa-Kv-970" value="" style="rounded=0;whiteSpace=wrap;html=1;container=0;fillColor=#1A1A1A;" vertex="1" parent="1">
          <mxGeometry x="3220" y="2347.5" width="12" height="12" as="geometry" />
        </mxCell>
        <mxCell id="5tJ5e0qFEt_hm9HJa-Kv-981" style="edgeStyle=none;rounded=0;orthogonalLoop=1;jettySize=auto;html=1;exitX=1;exitY=0;exitDx=0;exitDy=0;" edge="1" parent="1" source="5tJ5e0qFEt_hm9HJa-Kv-972">
          <mxGeometry relative="1" as="geometry">
            <mxPoint x="3292" y="2360" as="targetPoint" />
          </mxGeometry>
        </mxCell>
        <mxCell id="5tJ5e0qFEt_hm9HJa-Kv-972" value="" style="rounded=0;whiteSpace=wrap;html=1;container=0;fillColor=#CC0000;" vertex="1" parent="1">
          <mxGeometry x="3232" y="2386.5" width="60" height="12" as="geometry" />
        </mxCell>
        <mxCell id="5tJ5e0qFEt_hm9HJa-Kv-973" value="" style="rounded=0;whiteSpace=wrap;html=1;container=0;fillColor=#0071C5;" vertex="1" parent="1">
          <mxGeometry x="3292" y="2347.5" width="60" height="12" as="geometry" />
        </mxCell>
        <mxCell id="5tJ5e0qFEt_hm9HJa-Kv-982" style="edgeStyle=none;rounded=0;orthogonalLoop=1;jettySize=auto;html=1;exitX=1;exitY=0.75;exitDx=0;exitDy=0;entryX=0;entryY=0;entryDx=0;entryDy=0;" edge="1" parent="1" source="5tJ5e0qFEt_hm9HJa-Kv-974" target="5tJ5e0qFEt_hm9HJa-Kv-975">
          <mxGeometry relative="1" as="geometry" />
        </mxCell>
        <mxCell id="5tJ5e0qFEt_hm9HJa-Kv-974" value="" style="rounded=0;whiteSpace=wrap;html=1;container=0;fillColor=#1A1A1A;" vertex="1" parent="1">
          <mxGeometry x="3352" y="2347.5" width="12" height="12" as="geometry" />
        </mxCell>
        <mxCell id="5tJ5e0qFEt_hm9HJa-Kv-983" style="edgeStyle=none;rounded=0;orthogonalLoop=1;jettySize=auto;html=1;exitX=1;exitY=0;exitDx=0;exitDy=0;" edge="1" parent="1" source="5tJ5e0qFEt_hm9HJa-Kv-975">
          <mxGeometry relative="1" as="geometry">
            <mxPoint x="3424" y="2360" as="targetPoint" />
          </mxGeometry>
        </mxCell>
        <mxCell id="5tJ5e0qFEt_hm9HJa-Kv-975" value="" style="rounded=0;whiteSpace=wrap;html=1;container=0;fillColor=#CC0000;" vertex="1" parent="1">
          <mxGeometry x="3364" y="2386.5" width="60" height="12" as="geometry" />
        </mxCell>
        <mxCell id="5tJ5e0qFEt_hm9HJa-Kv-976" value="" style="rounded=0;whiteSpace=wrap;html=1;container=0;fillColor=#0071C5;" vertex="1" parent="1">
          <mxGeometry x="3422" y="2347.5" width="81" height="12" as="geometry" />
        </mxCell>
        <mxCell id="5tJ5e0qFEt_hm9HJa-Kv-988" style="edgeStyle=none;rounded=0;orthogonalLoop=1;jettySize=auto;html=1;exitX=1;exitY=0.75;exitDx=0;exitDy=0;entryX=0;entryY=0;entryDx=0;entryDy=0;" edge="1" parent="1" source="5tJ5e0qFEt_hm9HJa-Kv-977" target="5tJ5e0qFEt_hm9HJa-Kv-984">
          <mxGeometry relative="1" as="geometry" />
        </mxCell>
        <mxCell id="5tJ5e0qFEt_hm9HJa-Kv-977" value="" style="rounded=0;whiteSpace=wrap;html=1;container=0;fillColor=#1A1A1A;" vertex="1" parent="1">
          <mxGeometry x="3503" y="2347.5" width="12" height="12" as="geometry" />
        </mxCell>
        <mxCell id="5tJ5e0qFEt_hm9HJa-Kv-989" style="edgeStyle=none;rounded=0;orthogonalLoop=1;jettySize=auto;html=1;exitX=1;exitY=0;exitDx=0;exitDy=0;" edge="1" parent="1" source="5tJ5e0qFEt_hm9HJa-Kv-984">
          <mxGeometry relative="1" as="geometry">
            <mxPoint x="3575" y="2360" as="targetPoint" />
          </mxGeometry>
        </mxCell>
        <mxCell id="5tJ5e0qFEt_hm9HJa-Kv-984" value="" style="rounded=0;whiteSpace=wrap;html=1;container=0;fillColor=#CC0000;" vertex="1" parent="1">
          <mxGeometry x="3515" y="2386.5" width="60" height="12" as="geometry" />
        </mxCell>
        <mxCell id="5tJ5e0qFEt_hm9HJa-Kv-986" value="" style="rounded=0;whiteSpace=wrap;html=1;container=0;fillColor=#0071C5;" vertex="1" parent="1">
          <mxGeometry x="3575" y="2347.5" width="45" height="12" as="geometry" />
        </mxCell>
        <mxCell id="5tJ5e0qFEt_hm9HJa-Kv-994" style="edgeStyle=none;rounded=0;orthogonalLoop=1;jettySize=auto;html=1;exitX=0;exitY=1;exitDx=0;exitDy=0;entryX=0;entryY=0;entryDx=0;entryDy=0;" edge="1" parent="1" source="5tJ5e0qFEt_hm9HJa-Kv-990" target="5tJ5e0qFEt_hm9HJa-Kv-992">
          <mxGeometry relative="1" as="geometry" />
        </mxCell>
        <mxCell id="5tJ5e0qFEt_hm9HJa-Kv-990" value="" style="rounded=0;whiteSpace=wrap;html=1;container=0;fillColor=#0071C5;" vertex="1" parent="1">
          <mxGeometry x="3171" y="2466.5" width="60" height="12" as="geometry" />
        </mxCell>
        <mxCell id="5tJ5e0qFEt_hm9HJa-Kv-991" value="" style="rounded=0;whiteSpace=wrap;html=1;container=0;fillColor=#7EA6E0;" vertex="1" parent="1">
          <mxGeometry x="3159" y="2466.5" width="12" height="12" as="geometry" />
        </mxCell>
        <mxCell id="5tJ5e0qFEt_hm9HJa-Kv-995" style="edgeStyle=none;rounded=0;orthogonalLoop=1;jettySize=auto;html=1;exitX=1;exitY=0;exitDx=0;exitDy=0;entryX=1;entryY=1;entryDx=0;entryDy=0;" edge="1" parent="1" source="5tJ5e0qFEt_hm9HJa-Kv-992" target="5tJ5e0qFEt_hm9HJa-Kv-990">
          <mxGeometry relative="1" as="geometry" />
        </mxCell>
        <mxCell id="5tJ5e0qFEt_hm9HJa-Kv-992" value="" style="rounded=0;whiteSpace=wrap;html=1;container=0;fillColor=#CC0000;" vertex="1" parent="1">
          <mxGeometry x="3171" y="2508.5" width="60" height="12" as="geometry" />
        </mxCell>
        <mxCell id="5tJ5e0qFEt_hm9HJa-Kv-993" value="" style="rounded=0;whiteSpace=wrap;html=1;container=0;fillColor=#76B900;" vertex="1" parent="1">
          <mxGeometry x="3231" y="2466.5" width="12" height="12" as="geometry" />
        </mxCell>
        <mxCell id="5tJ5e0qFEt_hm9HJa-Kv-996" value="" style="rounded=0;whiteSpace=wrap;html=1;container=0;fillColor=#0071C5;" vertex="1" parent="1">
          <mxGeometry x="3243" y="2466.5" width="27" height="12" as="geometry" />
        </mxCell>
        <mxCell id="5tJ5e0qFEt_hm9HJa-Kv-999" style="edgeStyle=none;rounded=0;orthogonalLoop=1;jettySize=auto;html=1;exitX=1;exitY=1;exitDx=0;exitDy=0;entryX=0;entryY=0;entryDx=0;entryDy=0;" edge="1" parent="1" source="5tJ5e0qFEt_hm9HJa-Kv-997" target="5tJ5e0qFEt_hm9HJa-Kv-998">
          <mxGeometry relative="1" as="geometry" />
        </mxCell>
        <mxCell id="5tJ5e0qFEt_hm9HJa-Kv-997" value="" style="rounded=0;whiteSpace=wrap;html=1;container=0;fillColor=#7EA6E0;" vertex="1" parent="1">
          <mxGeometry x="3270" y="2466.5" width="12" height="12" as="geometry" />
        </mxCell>
        <mxCell id="5tJ5e0qFEt_hm9HJa-Kv-1004" style="edgeStyle=none;rounded=0;orthogonalLoop=1;jettySize=auto;html=1;exitX=1;exitY=0;exitDx=0;exitDy=0;entryX=1;entryY=1;entryDx=0;entryDy=0;" edge="1" parent="1" source="5tJ5e0qFEt_hm9HJa-Kv-998" target="5tJ5e0qFEt_hm9HJa-Kv-1000">
          <mxGeometry relative="1" as="geometry" />
        </mxCell>
        <mxCell id="5tJ5e0qFEt_hm9HJa-Kv-998" value="" style="rounded=0;whiteSpace=wrap;html=1;container=0;fillColor=#CC0000;" vertex="1" parent="1">
          <mxGeometry x="3282" y="2507.5" width="60" height="12" as="geometry" />
        </mxCell>
        <mxCell id="5tJ5e0qFEt_hm9HJa-Kv-1000" value="" style="rounded=0;whiteSpace=wrap;html=1;container=0;fillColor=#0071C5;" vertex="1" parent="1">
          <mxGeometry x="3282" y="2466.5" width="60" height="12" as="geometry" />
        </mxCell>
        <mxCell id="5tJ5e0qFEt_hm9HJa-Kv-1005" value="" style="rounded=0;whiteSpace=wrap;html=1;container=0;fillColor=#76B900;" vertex="1" parent="1">
          <mxGeometry x="3342" y="2466.5" width="12" height="12" as="geometry" />
        </mxCell>
        <mxCell id="5tJ5e0qFEt_hm9HJa-Kv-1011" style="edgeStyle=none;rounded=0;orthogonalLoop=1;jettySize=auto;html=1;exitX=1;exitY=0.75;exitDx=0;exitDy=0;entryX=0;entryY=0;entryDx=0;entryDy=0;" edge="1" parent="1" source="5tJ5e0qFEt_hm9HJa-Kv-1006" target="5tJ5e0qFEt_hm9HJa-Kv-1010">
          <mxGeometry relative="1" as="geometry" />
        </mxCell>
        <mxCell id="5tJ5e0qFEt_hm9HJa-Kv-1006" value="" style="rounded=0;whiteSpace=wrap;html=1;container=0;fillColor=#7EA6E0;" vertex="1" parent="1">
          <mxGeometry x="3435" y="2466.5" width="12" height="12" as="geometry" />
        </mxCell>
        <mxCell id="5tJ5e0qFEt_hm9HJa-Kv-1009" value="" style="rounded=0;whiteSpace=wrap;html=1;container=0;fillColor=#0071C5;" vertex="1" parent="1">
          <mxGeometry x="3354" y="2466.5" width="81" height="12" as="geometry" />
        </mxCell>
        <mxCell id="5tJ5e0qFEt_hm9HJa-Kv-1013" style="edgeStyle=none;rounded=0;orthogonalLoop=1;jettySize=auto;html=1;exitX=1;exitY=0;exitDx=0;exitDy=0;entryX=1;entryY=1;entryDx=0;entryDy=0;" edge="1" parent="1" source="5tJ5e0qFEt_hm9HJa-Kv-1010" target="5tJ5e0qFEt_hm9HJa-Kv-1012">
          <mxGeometry relative="1" as="geometry" />
        </mxCell>
        <mxCell id="5tJ5e0qFEt_hm9HJa-Kv-1010" value="" style="rounded=0;whiteSpace=wrap;html=1;container=0;fillColor=#CC0000;" vertex="1" parent="1">
          <mxGeometry x="3447" y="2507.5" width="60" height="12" as="geometry" />
        </mxCell>
        <mxCell id="5tJ5e0qFEt_hm9HJa-Kv-1012" value="" style="rounded=0;whiteSpace=wrap;html=1;container=0;fillColor=#0071C5;" vertex="1" parent="1">
          <mxGeometry x="3447" y="2466.5" width="60" height="12" as="geometry" />
        </mxCell>
        <mxCell id="5tJ5e0qFEt_hm9HJa-Kv-1014" value="" style="rounded=0;whiteSpace=wrap;html=1;container=0;fillColor=#76B900;" vertex="1" parent="1">
          <mxGeometry x="3507" y="2466.5" width="12" height="12" as="geometry" />
        </mxCell>
        <mxCell id="5tJ5e0qFEt_hm9HJa-Kv-1015" value="" style="rounded=0;whiteSpace=wrap;html=1;container=0;fillColor=#0071C5;" vertex="1" parent="1">
          <mxGeometry x="3519" y="2466.5" width="45" height="12" as="geometry" />
        </mxCell>
        <mxCell id="5tJ5e0qFEt_hm9HJa-Kv-1016" value="" style="endArrow=classic;html=1;rounded=0;strokeWidth=2;" edge="1" parent="1">
          <mxGeometry width="50" height="50" relative="1" as="geometry">
            <mxPoint x="3149" y="2560" as="sourcePoint" />
            <mxPoint x="3644" y="2560" as="targetPoint" />
          </mxGeometry>
        </mxCell>
        <mxCell id="5tJ5e0qFEt_hm9HJa-Kv-1017" value="&lt;b&gt;Compution&lt;/b&gt;" style="text;html=1;strokeColor=none;fillColor=none;align=center;verticalAlign=middle;whiteSpace=wrap;rounded=0;" vertex="1" parent="1">
          <mxGeometry x="3060" y="2344" width="70" height="19" as="geometry" />
        </mxCell>
        <mxCell id="5tJ5e0qFEt_hm9HJa-Kv-1018" value="&lt;b&gt;Memory Delay&lt;/b&gt;" style="text;html=1;strokeColor=none;fillColor=none;align=center;verticalAlign=middle;whiteSpace=wrap;rounded=0;" vertex="1" parent="1">
          <mxGeometry x="3045" y="2383" width="100" height="19" as="geometry" />
        </mxCell>
        <mxCell id="5tJ5e0qFEt_hm9HJa-Kv-1019" value="&lt;b&gt;Compution&lt;/b&gt;" style="text;html=1;strokeColor=none;fillColor=none;align=center;verticalAlign=middle;whiteSpace=wrap;rounded=0;" vertex="1" parent="1">
          <mxGeometry x="3060" y="2463" width="70" height="19" as="geometry" />
        </mxCell>
        <mxCell id="5tJ5e0qFEt_hm9HJa-Kv-1020" value="&lt;b&gt;Memory Delay&lt;/b&gt;" style="text;html=1;strokeColor=none;fillColor=none;align=center;verticalAlign=middle;whiteSpace=wrap;rounded=0;" vertex="1" parent="1">
          <mxGeometry x="3045" y="2504" width="100" height="19" as="geometry" />
        </mxCell>
        <mxCell id="5tJ5e0qFEt_hm9HJa-Kv-1021" value="" style="rounded=0;whiteSpace=wrap;html=1;container=0;fillColor=#0071C5;" vertex="1" parent="1">
          <mxGeometry x="3160" y="2575.5" width="12" height="12" as="geometry" />
        </mxCell>
        <mxCell id="5tJ5e0qFEt_hm9HJa-Kv-1022" value="compution" style="text;html=1;strokeColor=none;fillColor=none;align=center;verticalAlign=middle;whiteSpace=wrap;rounded=0;" vertex="1" parent="1">
          <mxGeometry x="3176" y="2572" width="63" height="19" as="geometry" />
        </mxCell>
        <mxCell id="5tJ5e0qFEt_hm9HJa-Kv-1023" value="" style="rounded=0;whiteSpace=wrap;html=1;container=0;fillColor=#CC0000;" vertex="1" parent="1">
          <mxGeometry x="3253" y="2575.5" width="12" height="12" as="geometry" />
        </mxCell>
        <mxCell id="5tJ5e0qFEt_hm9HJa-Kv-1024" value="&lt;span style=&quot;font-weight: normal;&quot;&gt;memory access&lt;/span&gt;" style="text;html=1;strokeColor=none;fillColor=none;align=center;verticalAlign=middle;whiteSpace=wrap;rounded=0;fontStyle=1" vertex="1" parent="1">
          <mxGeometry x="3263" y="2572" width="103" height="19" as="geometry" />
        </mxCell>
        <mxCell id="5tJ5e0qFEt_hm9HJa-Kv-1025" value="" style="rounded=0;whiteSpace=wrap;html=1;container=0;fillColor=#7EA6E0;" vertex="1" parent="1">
          <mxGeometry x="3377" y="2575.5" width="12" height="12" as="geometry" />
        </mxCell>
        <mxCell id="5tJ5e0qFEt_hm9HJa-Kv-1026" value="&lt;span style=&quot;font-weight: normal;&quot;&gt;prefetch&lt;/span&gt;" style="text;html=1;strokeColor=none;fillColor=none;align=center;verticalAlign=middle;whiteSpace=wrap;rounded=0;fontStyle=1" vertex="1" parent="1">
          <mxGeometry x="3385" y="2572" width="63" height="19" as="geometry" />
        </mxCell>
        <mxCell id="5tJ5e0qFEt_hm9HJa-Kv-1030" value="" style="rounded=0;whiteSpace=wrap;html=1;container=0;fillColor=#76B900;" vertex="1" parent="1">
          <mxGeometry x="3463" y="2575.5" width="12" height="12" as="geometry" />
        </mxCell>
        <mxCell id="5tJ5e0qFEt_hm9HJa-Kv-1031" value="&lt;span style=&quot;font-weight: normal;&quot;&gt;cache hit&lt;/span&gt;" style="text;html=1;strokeColor=none;fillColor=none;align=center;verticalAlign=middle;whiteSpace=wrap;rounded=0;fontStyle=1" vertex="1" parent="1">
          <mxGeometry x="3473" y="2572" width="63" height="19" as="geometry" />
        </mxCell>
        <mxCell id="5tJ5e0qFEt_hm9HJa-Kv-1032" value="" style="rounded=0;whiteSpace=wrap;html=1;container=0;fillColor=#1A1A1A;" vertex="1" parent="1">
          <mxGeometry x="3544" y="2575.5" width="12" height="12" as="geometry" />
        </mxCell>
        <mxCell id="5tJ5e0qFEt_hm9HJa-Kv-1033" value="cache miss" style="text;html=1;strokeColor=none;fillColor=none;align=center;verticalAlign=middle;whiteSpace=wrap;rounded=0;" vertex="1" parent="1">
          <mxGeometry x="3553" y="2572" width="78" height="19" as="geometry" />
        </mxCell>
        <mxCell id="5tJ5e0qFEt_hm9HJa-Kv-1034" value="&lt;b&gt;TimeLine&lt;/b&gt;" style="text;html=1;strokeColor=none;fillColor=none;align=center;verticalAlign=middle;whiteSpace=wrap;rounded=0;" vertex="1" parent="1">
          <mxGeometry x="3058" y="2549" width="70" height="19" as="geometry" />
        </mxCell>
      </root>
    </mxGraphModel>
  </diagram>
</mxfile>
